<?xml version="1.0" encoding="UTF-8"?><svg id="a" xmlns="http://www.w3.org/2000/svg" viewBox="0 0 688 647"><path d="M300.5,206c0-3.31,2.69-6,6-6h148c3.31,0,6,2.69,6,6v108c0,3.31-2.69,6-6,6h-148c-3.31,0-6-2.69-6-6v-108Z" style="fill:#fff; stroke:#3a414a;"/><g id="b"><path id="c" d="M366.98,264.03l.12-13.46c-1.42,4.69-3.33,8.95-4.94,13.46h-1.42l-5-13.46.06,13.46h-1.79v-15.31h2.72l4.75,13.02c1.3-4.63,3.15-8.64,4.69-13.02h2.65v15.31h-1.85" style="fill:#3a414a; stroke-width:0px;"/><path id="d" d="M376.8,252.05c3.83-.06,5.25,2.28,5.25,6.11.06,3.89-1.67,6.11-5.31,6.11s-5.12-2.41-5.19-6.11c0-4.07,1.73-6.11,5.25-6.11ZM376.73,262.79c2.72.06,3.27-1.91,3.27-4.63s-.49-4.63-3.15-4.63-3.27,1.98-3.27,4.63.62,4.57,3.15,4.63" style="fill:#3a414a; stroke-width:0px;"/><path id="e" d="M386.61,261.13c-.12,1.48,1.11,1.79,2.35,1.36v1.48c-2.04.62-4.32.31-4.32-2.41v-7.84h-1.36v-1.42h1.48l.56-2.65h1.3v2.65h2.16v1.42h-2.16v7.41" style="fill:#3a414a; stroke-width:0px;"/><path id="f" d="M395.31,252.05c3.83-.06,5.25,2.28,5.25,6.11.06,3.89-1.67,6.11-5.31,6.11s-5.12-2.41-5.19-6.11c0-4.07,1.73-6.11,5.25-6.11ZM395.25,262.79c2.72.06,3.27-1.91,3.27-4.63s-.49-4.63-3.15-4.63-3.27,1.98-3.27,4.63.62,4.57,3.15,4.63" style="fill:#3a414a; stroke-width:0px;"/><path id="g" d="M408.52,253.97c-4.81-.99-3.27,5.62-3.52,10.06h-1.98l-.06-11.73h1.85c.06.74-.06,1.79.12,2.41.37-1.67,1.42-3.02,3.58-2.53v1.79" style="fill:#3a414a; stroke-width:0px;"/></g><path d="M140.5,206c0-3.31,2.69-6,6-6h148c3.31,0,6,2.69,6,6v108c0,3.31-2.69,6-6,6h-148c-3.31,0-6-2.69-6-6v-108Z" style="fill:#fff; stroke:#3a414a;"/><g id="h"><path id="i" d="M206.98,264.03l.12-13.46c-1.42,4.69-3.33,8.95-4.94,13.46h-1.42l-5-13.46.06,13.46h-1.79v-15.31h2.72l4.75,13.02c1.3-4.63,3.15-8.64,4.69-13.02h2.65v15.31h-1.85" style="fill:#3a414a; stroke-width:0px;"/><path id="j" d="M216.8,252.05c3.83-.06,5.25,2.28,5.25,6.11.06,3.89-1.67,6.11-5.31,6.11s-5.12-2.41-5.19-6.11c0-4.07,1.73-6.11,5.25-6.11ZM216.73,262.79c2.72.06,3.27-1.91,3.27-4.63s-.49-4.63-3.15-4.63-3.27,1.98-3.27,4.63.62,4.57,3.15,4.63" style="fill:#3a414a; stroke-width:0px;"/><path id="k" d="M226.61,261.13c-.12,1.48,1.11,1.79,2.35,1.36v1.48c-2.04.62-4.32.31-4.32-2.41v-7.84h-1.36v-1.42h1.48l.56-2.65h1.3v2.65h2.16v1.42h-2.16v7.41" style="fill:#3a414a; stroke-width:0px;"/><path id="l" d="M235.31,252.05c3.83-.06,5.25,2.28,5.25,6.11.06,3.89-1.67,6.11-5.31,6.11s-5.12-2.41-5.19-6.11c0-4.07,1.73-6.11,5.25-6.11ZM235.25,262.79c2.72.06,3.27-1.91,3.27-4.63s-.49-4.63-3.15-4.63-3.27,1.98-3.27,4.63.62,4.57,3.15,4.63" style="fill:#3a414a; stroke-width:0px;"/><path id="m" d="M248.52,253.97c-4.81-.99-3.27,5.62-3.52,10.06h-1.98l-.06-11.73h1.85c.06.74-.06,1.79.12,2.41.37-1.67,1.42-3.02,3.58-2.53v1.79" style="fill:#3a414a; stroke-width:0px;"/></g><path d="M140.5,326c0-3.31,2.69-6,6-6h148c3.31,0,6,2.69,6,6v108c0,3.31-2.69,6-6,6h-148c-3.31,0-6-2.69-6-6v-108Z" style="fill:#fff; stroke:#3a414a;"/><g id="n"><path id="o" d="M206.98,384.03l.12-13.46c-1.42,4.69-3.33,8.95-4.94,13.46h-1.42l-5-13.46.06,13.46h-1.79v-15.31h2.72l4.75,13.02c1.3-4.63,3.15-8.64,4.69-13.02h2.65v15.31h-1.85" style="fill:#3a414a; stroke-width:0px;"/><path id="p" d="M216.8,372.05c3.83-.06,5.25,2.28,5.25,6.11.06,3.89-1.67,6.11-5.31,6.11s-5.12-2.41-5.19-6.11c0-4.07,1.73-6.11,5.25-6.11ZM216.73,382.79c2.72.06,3.27-1.91,3.27-4.63s-.49-4.63-3.15-4.63-3.27,1.98-3.27,4.63.62,4.57,3.15,4.63" style="fill:#3a414a; stroke-width:0px;"/><path id="q" d="M226.61,381.13c-.12,1.48,1.11,1.79,2.35,1.36v1.48c-2.04.62-4.32.31-4.32-2.41v-7.84h-1.36v-1.42h1.48l.56-2.65h1.3v2.65h2.16v1.42h-2.16v7.41" style="fill:#3a414a; stroke-width:0px;"/><path id="r" d="M235.31,372.05c3.83-.06,5.25,2.28,5.25,6.11.06,3.89-1.67,6.11-5.31,6.11s-5.12-2.41-5.19-6.11c0-4.07,1.73-6.11,5.25-6.11ZM235.25,382.79c2.72.06,3.27-1.91,3.27-4.63s-.49-4.63-3.15-4.63-3.27,1.98-3.27,4.63.62,4.57,3.15,4.63" style="fill:#3a414a; stroke-width:0px;"/><path id="s" d="M248.52,373.97c-4.81-.99-3.27,5.62-3.52,10.06h-1.98l-.06-11.73h1.85c.06.74-.06,1.79.12,2.41.37-1.67,1.42-3.02,3.58-2.53v1.79" style="fill:#3a414a; stroke-width:0px;"/></g><path d="M300.5,326c0-3.31,2.69-6,6-6h148c3.31,0,6,2.69,6,6v108c0,3.31-2.69,6-6,6h-148c-3.31,0-6-2.69-6-6v-108Z" style="fill:#fff; stroke:#3a414a;"/><g id="t"><path id="u" d="M366.98,384.03l.12-13.46c-1.42,4.69-3.33,8.95-4.94,13.46h-1.42l-5-13.46.06,13.46h-1.79v-15.31h2.72l4.75,13.02c1.3-4.63,3.15-8.64,4.69-13.02h2.65v15.31h-1.85" style="fill:#3a414a; stroke-width:0px;"/><path id="v" d="M376.8,372.05c3.83-.06,5.25,2.28,5.25,6.11.06,3.89-1.67,6.11-5.31,6.11s-5.12-2.41-5.19-6.11c0-4.07,1.73-6.11,5.25-6.11ZM376.73,382.79c2.72.06,3.27-1.91,3.27-4.63s-.49-4.63-3.15-4.63-3.27,1.98-3.27,4.63.62,4.57,3.15,4.63" style="fill:#3a414a; stroke-width:0px;"/><path id="w" d="M386.61,381.13c-.12,1.48,1.11,1.79,2.35,1.36v1.48c-2.04.62-4.32.31-4.32-2.41v-7.84h-1.36v-1.42h1.48l.56-2.65h1.3v2.65h2.16v1.42h-2.16v7.41" style="fill:#3a414a; stroke-width:0px;"/><path id="x" d="M395.31,372.05c3.83-.06,5.25,2.28,5.25,6.11.06,3.89-1.67,6.11-5.31,6.11s-5.12-2.41-5.19-6.11c0-4.07,1.73-6.11,5.25-6.11ZM395.25,382.79c2.72.06,3.27-1.91,3.27-4.63s-.49-4.63-3.15-4.63-3.27,1.98-3.27,4.63.62,4.57,3.15,4.63" style="fill:#3a414a; stroke-width:0px;"/><path id="y" d="M408.52,373.97c-4.81-.99-3.27,5.62-3.52,10.06h-1.98l-.06-11.73h1.85c.06.74-.06,1.79.12,2.41.37-1.67,1.42-3.02,3.58-2.53v1.79" style="fill:#3a414a; stroke-width:0px;"/></g><path d="M60.5,108c0-3.31,2.69-6,6-6h468c3.31,0,6,2.69,6,6v68c0,3.31-2.69,6-6,6H66.5c-3.31,0-6-2.69-6-6h0v-68ZM60.5,508c0-3.31,2.69-6,6-6h468c3.31,0,6,2.69,6,6v68c0,3.31-2.69,6-6,6H66.5c-3.31,0-6-2.69-6-6v-68Z" style="fill:#fff; stroke:#3a414a;"/><path d="M466.5,582c-3.31,0-6-2.69-6-6V108c0-3.31,2.69-6,6-6h68c3.31,0,6,2.69,6,6v468c0,3.31-2.69,6-6,6h-68ZM66.5,582c-3.31,0-6-2.69-6-6V108c0-3.31,2.69-6,6-6h68c3.31,0,6,2.69,6,6v468c0,3.31-2.69,6-6,6h-68ZM60.5,220c0,33.14-8.95,60-20,60s-20-26.86-20-60,8.95-60,20-60,20,26.86,20,60ZM60.5,460c0,33.14-8.95,60-20,60s-20-26.86-20-60,8.95-60,20-60,20,26.86,20,60ZM580.5,460c0,33.14-8.95,60-20,60s-20-26.86-20-60,8.95-60,20-60,20,26.86,20,60ZM580.5,220c0,33.14-8.95,60-20,60s-20-26.86-20-60,8.95-60,20-60,20,26.86,20,60Z" style="fill:#fff; stroke:#3a414a;"/><path d="M60.5,386c0-3.31,2.69-6,6-6h468c3.31,0,6,2.69,6,6v168c0,3.31-2.69,6-6,6H66.5c-3.31,0-6-2.69-6-6v-168Z" style="fill:#fff; isolation:isolate; opacity:.67; stroke:#3a414a;"/><path d="M220.5,416c0-3.31,2.69-6,6-6h148c3.31,0,6,2.69,6,6v108c0,3.31-2.69,6-6,6h-148c-3.31,0-6-2.69-6-6v-108Z" style="fill:#fff; stroke:#3a414a;"/><g id="z"><path id="aa" d="M257.78,474.03h-2.1l-6.23-15.31h2.16l5.12,13.46,5.12-13.46h2.22" style="fill:#3a414a; stroke-width:0px;"/><path id="ab" d="M265.99,474.03v-15.31h11.54v1.73h-9.51v4.88h8.89v1.67h-8.89v5.37h10v1.67h-12.04" style="fill:#3a414a; stroke-width:0px;"/><path id="ac" d="M290.99,474.03l-4.57-6.67-4.69,6.67h-2.28l5.8-7.96-5.37-7.35h2.28l4.26,6.05,4.14-6.05h2.28l-5.19,7.28,5.68,8.02h-2.35" style="fill:#3a414a; stroke-width:0px;"/></g><g id="ad"><path id="ae" d="M309.82,465.94c2.16.31,3.77,1.42,3.77,3.77,0,5.37-6.54,4.2-11.79,4.32v-15.31c4.69.19,10.93-1.05,10.93,3.7,0,2.04-1.17,3.09-2.9,3.52ZM303.83,465.26c3.09-.06,6.79.56,6.79-2.59,0-2.9-3.89-2.22-6.79-2.28v4.88ZM303.83,472.36c3.4-.12,7.65.86,7.65-2.78s-4.32-2.59-7.65-2.72v5.49" style="fill:#3a414a; stroke-width:0px;"/><path id="af" d="M321.8,463.97c-4.81-.99-3.27,5.62-3.52,10.06h-1.98l-.06-11.73h1.85c.06.74-.06,1.79.12,2.41.37-1.67,1.42-3.02,3.58-2.53v1.79" style="fill:#3a414a; stroke-width:0px;"/><path id="ag" d="M330.81,471.81c-.93,1.3-1.91,2.53-4.2,2.47-2.22-.06-3.58-1.3-3.58-3.52-.06-3.95,3.89-3.89,7.72-3.89.19-2.16-.56-3.33-2.53-3.33-1.48.06-2.53.43-2.59,1.91l-2.04-.19c.31-2.28,2.04-3.21,4.69-3.21s4.44,1.23,4.44,3.95v5.06c-.06,1.23.43,1.98,1.73,1.67v1.23c-1.91.56-3.77-.12-3.64-2.16ZM325.07,470.76c0,1.23.74,2.04,1.98,2.04,2.53-.19,3.89-1.79,3.7-4.57-2.65.12-5.68-.31-5.68,2.53" style="fill:#3a414a; stroke-width:0px;"/><path id="ah" d="M335.93,459.77v-1.85h1.98v1.85h-1.98ZM335.93,474.03v-11.73h1.98v11.73h-1.98" style="fill:#3a414a; stroke-width:0px;"/><path id="ai" d="M346.55,462.05c5.49-.25,3.27,7.16,3.7,11.98h-1.98v-7.47c0-1.91-.49-3.02-2.41-2.96-4.44.12-2.72,6.3-3.02,10.43h-1.98l-.06-11.73h1.85c.06.62-.06,1.48.12,1.98.68-1.36,1.79-2.16,3.77-2.22" style="fill:#3a414a; stroke-width:0px;"/></g><path d="M176.26,586.24c.97-.96.98-2.54.01-3.51-.47-.47-1.11-.74-1.77-.73h-108c-1.37,0-2.49,1.1-2.49,2.47,0,.67.26,1.3.73,1.77l51.52,51.52c2.34,2.34,6.14,2.34,8.48,0l51.52-51.52Z" style="fill:#fff; stroke:#3a414a;"/><g id="aj"><path id="ak" d="M143.66,603.24c-1.73-.25-3.01-1.14-3.01-3.01,0-4.3,5.23-3.36,9.43-3.46v12.25c-3.75-.15-8.74.84-8.74-2.96,0-1.63.94-2.47,2.32-2.81ZM148.45,603.78c-2.47.05-5.43-.44-5.43,2.07,0,2.32,3.11,1.78,5.43,1.83v-3.9ZM148.45,598.1c-2.72.1-6.12-.69-6.12,2.22s3.46,2.07,6.12,2.17v-4.4" style="fill:#3a414a; stroke-width:0px;"/><path id="al" d="M135.56,596.57c4.4-.2,2.67,5.73,3.01,9.58h-1.58v-5.93c0-1.53-.35-2.47-1.93-2.42-3.56.1-2.22,4.99-2.47,8.35h-1.53l-.05-9.38h1.48c.05.49-.05,1.23.1,1.63.54-1.09,1.38-1.78,2.96-1.83" style="fill:#3a414a; stroke-width:0px;"/><path id="am" d="M119.46,605.11c3.31-.15,1.88-5.19,2.17-8.35h1.53v5.98c0,1.43.25,2.47,1.73,2.37,3.26-.2,1.88-5.14,2.17-8.35h1.53l.05,9.38h-1.48c-.05-.49.05-1.19-.1-1.58-.49,2.17-4.89,2.47-5.28,0-.54,1.04-1.33,1.73-2.86,1.78-4.2.1-2.32-5.88-2.72-9.58h1.53v5.98c0,1.43.25,2.42,1.73,2.37" style="fill:#3a414a; stroke-width:0px;"/><path id="an" d="M109.38,606.35c-2.72-.05-3.46-2.02-3.46-4.84s.79-4.84,3.46-4.94c1.53,0,2.42.64,2.96,1.68l-.05-5.19h1.58l.05,13.09h-1.53l-.1-1.48c-.49,1.04-1.38,1.68-2.91,1.68ZM109.78,597.76c-1.98,0-2.22,1.68-2.22,3.7s.3,3.6,2.22,3.65c2.07,0,2.52-1.58,2.52-3.75s-.49-3.6-2.52-3.6" style="fill:#3a414a; stroke-width:0px;"/><path id="ao" d="M100.25,606.35c-3.11,0-4.25-2.07-4.15-5.23h6.67c0-1.98-.69-3.31-2.62-3.36-1.28-.05-2.12.59-2.42,1.43l-1.38-.4c.54-1.38,1.83-2.22,3.8-2.22,2.86,0,4.35,1.83,4.3,4.94-.05,3.01-1.28,4.84-4.2,4.84ZM97.68,602.35c-.3,2.96,3.75,3.8,4.79,1.38.15-.35.3-.84.3-1.38h-5.09" style="fill:#3a414a; stroke-width:0px;"/><path id="ap" d="M89.68,604.82c3.85.79,2.62-4.49,2.81-8.05h1.58l.05,9.38h-1.48c-.05-.59.05-1.43-.1-1.93-.3,1.33-1.14,2.42-2.86,2.02v-1.43" style="fill:#3a414a; stroke-width:0px;"/></g><path d="M536.26,586.24c.97-.96.98-2.54.01-3.51-.47-.47-1.11-.74-1.77-.73h-108c-1.37,0-2.49,1.1-2.49,2.47,0,.67.26,1.3.73,1.77l51.52,51.52c2.34,2.34,6.14,2.34,8.48,0l51.52-51.52Z" style="fill:#fff; stroke:#3a414a;"/><g id="aq"><path id="ar" d="M503.66,603.24c-1.73-.25-3.01-1.14-3.01-3.01,0-4.3,5.23-3.36,9.43-3.46v12.25c-3.75-.15-8.74.84-8.74-2.96,0-1.63.94-2.47,2.32-2.81ZM508.45,603.78c-2.47.05-5.43-.44-5.43,2.07,0,2.32,3.11,1.78,5.43,1.83v-3.9ZM508.45,598.1c-2.72.1-6.12-.69-6.12,2.22s3.46,2.07,6.12,2.17v-4.4" style="fill:#3a414a; stroke-width:0px;"/><path id="as" d="M495.56,596.57c4.4-.2,2.67,5.73,3.01,9.58h-1.58v-5.93c0-1.53-.35-2.47-1.93-2.42-3.56.1-2.22,4.99-2.47,8.35h-1.53l-.05-9.38h1.48c.05.49-.05,1.23.1,1.63.54-1.09,1.38-1.78,2.96-1.83" style="fill:#3a414a; stroke-width:0px;"/><path id="at" d="M479.46,605.11c3.31-.15,1.88-5.19,2.17-8.35h1.53v5.98c0,1.43.25,2.47,1.73,2.37,3.26-.2,1.88-5.14,2.17-8.35h1.53l.05,9.38h-1.48c-.05-.49.05-1.19-.1-1.58-.49,2.17-4.89,2.47-5.28,0-.54,1.04-1.33,1.73-2.86,1.78-4.2.1-2.32-5.88-2.72-9.58h1.53v5.98c0,1.43.25,2.42,1.73,2.37" style="fill:#3a414a; stroke-width:0px;"/><path id="au" d="M469.38,606.35c-2.72-.05-3.46-2.02-3.46-4.84s.79-4.84,3.46-4.94c1.53,0,2.42.64,2.96,1.68l-.05-5.19h1.58l.05,13.09h-1.53l-.1-1.48c-.49,1.04-1.38,1.68-2.91,1.68ZM469.78,597.76c-1.98,0-2.22,1.68-2.22,3.7s.3,3.6,2.22,3.65c2.07,0,2.52-1.58,2.52-3.75s-.49-3.6-2.52-3.6" style="fill:#3a414a; stroke-width:0px;"/><path id="av" d="M460.25,606.35c-3.11,0-4.25-2.07-4.15-5.23h6.67c0-1.98-.69-3.31-2.62-3.36-1.28-.05-2.12.59-2.42,1.43l-1.38-.4c.54-1.38,1.83-2.22,3.8-2.22,2.86,0,4.35,1.83,4.3,4.94-.05,3.01-1.28,4.84-4.2,4.84ZM457.68,602.35c-.3,2.96,3.75,3.8,4.79,1.38.15-.35.3-.84.3-1.38h-5.09" style="fill:#3a414a; stroke-width:0px;"/><path id="aw" d="M449.68,604.82c3.85.79,2.62-4.49,2.81-8.05h1.58l.05,9.38h-1.48c-.05-.59.05-1.43-.1-1.93-.3,1.33-1.14,2.42-2.86,2.02v-1.43" style="fill:#3a414a; stroke-width:0px;"/></g><path d="M400.5,126c0-3.31,2.69-6,6-6h128c3.31,0,6,2.69,6,6v58c0,3.31-2.69,6-6,6h-128c-3.31,0-6-2.69-6-6v-58Z" style="fill:#fff; stroke:#3a414a;"/><g id="ax"><path id="ay" d="M413.25,157.78v-15.31h2.04v13.64h7.72v1.67h-9.75" style="fill:#3a414a; stroke-width:0px;"/><path id="az" d="M425.22,143.52v-1.85h1.98v1.85h-1.98ZM425.22,157.78v-11.73h1.98v11.73h-1.98" style="fill:#3a414a; stroke-width:0px;"/><path id="ba" d="M441.58,147.35c-4.14.19-2.35,6.48-2.72,10.43h-1.91v-7.47c0-1.79-.31-3.09-2.16-2.96-4.07.25-2.35,6.42-2.72,10.43h-1.91l-.06-11.73h1.85c.06.62-.06,1.48.12,1.98.62-2.72,6.11-3.09,6.6,0,.68-1.3,1.67-2.16,3.58-2.22,5.25-.12,2.9,7.35,3.4,11.98h-1.91v-7.47c0-1.79-.31-3.02-2.16-2.96" style="fill:#3a414a; stroke-width:0px;"/><path id="bb" d="M448.56,143.52v-1.85h1.98v1.85h-1.98ZM448.56,157.78v-11.73h1.98v11.73h-1.98" style="fill:#3a414a; stroke-width:0px;"/><path id="bc" d="M455.59,154.88c-.12,1.48,1.11,1.79,2.35,1.36v1.48c-2.04.62-4.32.31-4.32-2.41v-7.84h-1.36v-1.42h1.48l.56-2.65h1.3v2.65h2.16v1.42h-2.16v7.41" style="fill:#3a414a; stroke-width:0px;"/></g><g id="bd"><path id="be" d="M475.72,146.11c-.31-2.96-7.59-3.33-7.65.12.86,4.63,9.75.86,10.06,7.35.19,4.81-7.47,5.37-10.8,3.4-1.05-.62-1.73-1.6-2.04-2.84l2.04-.43c.31,3.46,8.7,3.89,8.7-.06,0-4.81-9.57-.86-10-7.28-.31-5.06,8.95-5.19,11.05-2.1.31.43.49.99.68,1.54" style="fill:#3a414a; stroke-width:0px;"/><path id="bf" d="M491.83,157.78h-2.22l-2.47-10.12-2.53,10.12h-2.22l-3.33-11.73h1.98l2.41,10.12,2.65-10.12h2.1l2.53,10.12,2.59-10.12h1.91" style="fill:#3a414a; stroke-width:0px;"/><path id="bg" d="M498.74,154.88c-.12,1.48,1.11,1.79,2.35,1.36v1.48c-2.04.62-4.32.31-4.32-2.41v-7.84h-1.36v-1.42h1.48l.56-2.65h1.3v2.65h2.16v1.42h-2.16v7.41" style="fill:#3a414a; stroke-width:0px;"/><path id="bh" d="M502.75,143.52v-1.85h1.98v1.85h-1.98ZM502.75,157.78v-11.73h1.98v11.73h-1.98" style="fill:#3a414a; stroke-width:0px;"/><path id="bi" d="M512.07,147.35c-2.47,0-2.96,2.04-2.96,4.51s.56,4.63,2.96,4.63c1.48,0,2.53-.86,2.65-2.35l1.98.12c-.37,2.28-1.91,3.77-4.57,3.77-3.64,0-4.69-2.53-5.06-6.11-.62-5.74,6.23-8.09,9.07-3.95.25.43.31.86.43,1.36l-1.98.19c-.25-1.3-.99-2.16-2.53-2.16" style="fill:#3a414a; stroke-width:0px;"/><path id="bj" d="M523.8,147.35c-4.44,0-2.72,6.3-3.02,10.43h-1.98v-16.11h1.98l-.06,6.36c.74-1.3,1.73-2.22,3.77-2.22,5.49,0,3.27,7.16,3.7,11.98h-1.98v-7.47c.12-1.98-.49-3.02-2.41-2.96" style="fill:#3a414a; stroke-width:0px;"/></g><path d="M60.5,126c0-3.31,2.69-6,6-6h468c3.31,0,6,2.69,6,6v168c0,3.31-2.69,6-6,6H66.5c-3.31,0-6-2.69-6-6V126Z" style="fill:#fff; isolation:isolate; opacity:.67; stroke:#3a414a;"/><path d="M260.5,146c0-3.31,2.69-6,6-6h68c3.31,0,6,2.69,6,6v108c0,3.31-2.69,6-6,6h-68c-3.31,0-6-2.69-6-6v-108Z" style="fill:#fff; stroke:#3a414a;"/><g id="bk"><path id="bl" d="M282.94,192.36c-.31-2.96-7.59-3.33-7.65.12.86,4.63,9.75.86,10.06,7.35.19,4.81-7.47,5.37-10.8,3.4-1.05-.62-1.73-1.6-2.04-2.84l2.04-.43c.31,3.46,8.7,3.89,8.7-.06,0-4.81-9.57-.86-10-7.28-.31-5.06,8.95-5.19,11.05-2.1.31.43.49.99.68,1.54" style="fill:#3a414a; stroke-width:0px;"/><path id="bm" d="M292.51,192.05c3.89,0,5.31,2.59,5.19,6.54h-8.33c0,2.47.86,4.14,3.27,4.2,1.6.06,2.65-.74,3.02-1.79l1.73.49c-.68,1.73-2.28,2.78-4.75,2.78-3.58,0-5.43-2.28-5.37-6.17.06-3.77,1.6-6.05,5.25-6.05ZM295.72,197.05c.37-3.7-4.69-4.75-5.99-1.73-.19.43-.37,1.05-.37,1.73h6.36" style="fill:#3a414a; stroke-width:0px;"/><path id="bn" d="M305.72,193.97c-4.81-.99-3.27,5.62-3.52,10.06h-1.98l-.06-11.73h1.85c.06.74-.06,1.79.12,2.41.37-1.67,1.42-3.02,3.58-2.53v1.79" style="fill:#3a414a; stroke-width:0px;"/><path id="bo" d="M312.69,204.03h-2.35l-4.26-11.73h2.1l3.33,10.19,3.46-10.19h2.1" style="fill:#3a414a; stroke-width:0px;"/><path id="bp" d="M323.31,192.05c3.83-.06,5.25,2.28,5.25,6.11.06,3.89-1.67,6.11-5.31,6.11s-5.12-2.41-5.19-6.11c0-4.07,1.73-6.11,5.25-6.11ZM323.25,202.79c2.72.06,3.27-1.91,3.27-4.63s-.49-4.63-3.15-4.63-3.27,1.98-3.27,4.63.62,4.57,3.15,4.63" style="fill:#3a414a; stroke-width:0px;"/></g><path d="M60.5,126c0-3.31,2.69-6,6-6h128c3.31,0,6,2.69,6,6v58c0,3.31-2.69,6-6,6H66.5c-3.31,0-6-2.69-6-6v-58Z" style="fill:#fff; stroke:#3a414a;"/><g id="bq"><path id="br" d="M73.25,157.78v-15.31h2.04v13.64h7.72v1.67h-9.75" style="fill:#3a414a; stroke-width:0px;"/><path id="bs" d="M85.22,143.52v-1.85h1.98v1.85h-1.98ZM85.22,157.78v-11.73h1.98v11.73h-1.98" style="fill:#3a414a; stroke-width:0px;"/><path id="bt" d="M101.58,147.35c-4.14.19-2.35,6.48-2.72,10.43h-1.91v-7.47c0-1.79-.31-3.09-2.16-2.96-4.07.25-2.35,6.42-2.72,10.43h-1.91l-.06-11.73h1.85c.06.62-.06,1.48.12,1.98.62-2.72,6.11-3.09,6.6,0,.68-1.3,1.67-2.16,3.58-2.22,5.25-.12,2.9,7.35,3.4,11.98h-1.91v-7.47c0-1.79-.31-3.02-2.16-2.96" style="fill:#3a414a; stroke-width:0px;"/><path id="bu" d="M108.56,143.52v-1.85h1.98v1.85h-1.98ZM108.56,157.78v-11.73h1.98v11.73h-1.98" style="fill:#3a414a; stroke-width:0px;"/><path id="bv" d="M115.59,154.88c-.12,1.48,1.11,1.79,2.35,1.36v1.48c-2.04.62-4.32.31-4.32-2.41v-7.84h-1.36v-1.42h1.48l.56-2.65h1.3v2.65h2.16v1.42h-2.16v7.41" style="fill:#3a414a; stroke-width:0px;"/></g><g id="bw"><path id="bx" d="M135.72,146.11c-.31-2.96-7.59-3.33-7.65.12.86,4.63,9.75.86,10.06,7.35.19,4.81-7.47,5.37-10.8,3.4-1.05-.62-1.73-1.6-2.04-2.84l2.04-.43c.31,3.46,8.7,3.89,8.7-.06,0-4.81-9.57-.86-10-7.28-.31-5.06,8.95-5.19,11.05-2.1.31.43.49.99.68,1.54" style="fill:#3a414a; stroke-width:0px;"/><path id="by" d="M151.83,157.78h-2.22l-2.47-10.12-2.53,10.12h-2.22l-3.33-11.73h1.98l2.41,10.12,2.65-10.12h2.1l2.53,10.12,2.59-10.12h1.91" style="fill:#3a414a; stroke-width:0px;"/><path id="bz" d="M158.74,154.88c-.12,1.48,1.11,1.79,2.35,1.36v1.48c-2.04.62-4.32.31-4.32-2.41v-7.84h-1.36v-1.42h1.48l.56-2.65h1.3v2.65h2.16v1.42h-2.16v7.41" style="fill:#3a414a; stroke-width:0px;"/><path id="ca" d="M162.75,143.52v-1.85h1.98v1.85h-1.98ZM162.75,157.78v-11.73h1.98v11.73h-1.98" style="fill:#3a414a; stroke-width:0px;"/><path id="cb" d="M172.07,147.35c-2.47,0-2.96,2.04-2.96,4.51s.56,4.63,2.96,4.63c1.48,0,2.53-.86,2.65-2.35l1.98.12c-.37,2.28-1.91,3.77-4.57,3.77-3.64,0-4.69-2.53-5.06-6.11-.62-5.74,6.23-8.09,9.07-3.95.25.43.31.86.43,1.36l-1.98.19c-.25-1.3-.99-2.16-2.53-2.16" style="fill:#3a414a; stroke-width:0px;"/><path id="cc" d="M183.8,147.35c-4.44,0-2.72,6.3-3.02,10.43h-1.98v-16.11h1.98l-.06,6.36c.74-1.3,1.73-2.22,3.77-2.22,5.49,0,3.27,7.16,3.7,11.98h-1.98v-7.47c.12-1.98-.49-3.02-2.41-2.96" style="fill:#3a414a; stroke-width:0px;"/></g><path d="M520.5,318c0-3.31,2.69-6,6-6h228c3.31,0,6,2.69,6,6v48c0,3.31-2.69,6-6,6h-228c-3.31,0-6-2.69-6-6v-48Z" style="fill:none; stroke-width:0px;"/><g id="cd"><path id="ce" d="M619.94,333.11h-2.47l-3.46-12.96-3.4,12.96h-2.47l-4.51-15.31h2.16l3.64,13.46.93-3.95,2.65-9.51h1.98l3.64,13.46,3.64-13.46h2.16" style="fill:#3a414a; stroke-width:0px;"/><path id="cf" d="M630.99,322.68c-4.44,0-2.72,6.3-3.02,10.43h-1.98v-16.11h1.98l-.06,6.36c.74-1.3,1.73-2.22,3.77-2.22,5.49,0,3.27,7.16,3.7,11.98h-1.98v-7.47c.12-1.98-.49-3.02-2.41-2.96" style="fill:#3a414a; stroke-width:0px;"/><path id="cg" d="M642.97,321.14c3.89,0,5.31,2.59,5.19,6.54h-8.33c0,2.47.86,4.14,3.27,4.2,1.6.06,2.65-.74,3.02-1.79l1.73.49c-.68,1.73-2.28,2.78-4.75,2.78-3.58,0-5.43-2.28-5.37-6.17.06-3.77,1.6-6.05,5.25-6.05ZM646.18,326.14c.37-3.7-4.69-4.75-5.99-1.73-.19.43-.37,1.05-.37,1.73h6.36" style="fill:#3a414a; stroke-width:0px;"/><path id="ch" d="M655.31,321.14c3.89,0,5.31,2.59,5.19,6.54h-8.33c0,2.47.86,4.14,3.27,4.2,1.6.06,2.65-.74,3.02-1.79l1.73.49c-.68,1.73-2.28,2.78-4.75,2.78-3.58,0-5.43-2.28-5.37-6.17.06-3.77,1.6-6.05,5.25-6.05ZM658.52,326.14c.37-3.7-4.69-4.75-5.99-1.73-.19.43-.37,1.05-.37,1.73h6.36" style="fill:#3a414a; stroke-width:0px;"/><path id="ci" d="M662.97,333.11v-16.11h1.98v16.11h-1.98" style="fill:#3a414a; stroke-width:0px;"/><path id="cj" d="M674.7,324.28c-.19-2.1-5.31-2.35-5.37,0,.93,3.27,7.1.74,7.35,5.56s-9.26,4.57-9.69.49l1.73-.31c.25,2.22,5.99,2.78,6.05,0-.62-3.46-6.98-.93-7.28-5.56-.25-3.52,5.06-3.89,7.53-2.59.74.43,1.3,1.17,1.48,2.16" style="fill:#3a414a; stroke-width:0px;"/></g><g id="ck"><path id="cl" d="M608.31,364.41c-2.35-2.59-4.01-5.68-4.01-10.43s1.73-7.78,4.01-10.31h1.91c-2.35,2.53-3.95,5.68-3.95,10.37s1.6,7.84,3.95,10.37h-1.91" style="fill:#3a414a; stroke-width:0px;"/><path id="cm" d="M616.52,344.28c5.06-.43,5.74,5.37,2.65,8.15l-3.83,3.4c-.68.68-1.42,1.36-1.79,2.28h7.96v1.67h-10.12c.12-6.11,7.9-5.8,7.9-11.23,0-1.73-.99-2.65-2.78-2.65s-2.84.93-3.02,2.53l-1.98-.19c.37-2.53,2.1-3.7,5-3.95" style="fill:#3a414a; stroke-width:0px;"/><path id="cn" d="M624.67,359.78v-2.35h2.1v2.35h-2.1" style="fill:#3a414a; stroke-width:0px;"/><path id="co" d="M632.75,359.78c.19-6.05,2.96-9.81,5.43-13.64h-8.27v-1.67h10.12v1.6c-2.41,4.01-5.19,7.47-5.25,13.7h-2.04" style="fill:#3a414a; stroke-width:0px;"/><path id="cp" d="M644.48,351.01c2.96-2.16,8.46-.49,8.09,3.77.68,6.11-9.51,7.04-10.56,1.6l1.98-.25c.43,1.42,1.36,2.28,3.21,2.28,2.16-.06,3.15-1.36,3.33-3.58.25-3.4-4.51-4.01-6.11-2.1h-1.91l.49-8.27h8.7v1.67h-6.91" style="fill:#3a414a; stroke-width:0px;"/><path id="cq" d="M654.98,345.52v-1.85h1.98v1.85h-1.98ZM654.98,359.78v-11.73h1.98v11.73h-1.98" style="fill:#3a414a; stroke-width:0px;"/><path id="cr" d="M665.59,347.8c5.49-.25,3.27,7.16,3.7,11.98h-1.98v-7.47c0-1.91-.49-3.02-2.41-2.96-4.44.12-2.72,6.3-3.02,10.43h-1.98l-.06-11.73h1.85c.06.62-.06,1.48.12,1.98.68-1.36,1.79-2.16,3.77-2.22" style="fill:#3a414a; stroke-width:0px;"/><path id="cs" d="M672.75,343.67c2.35,2.53,4.01,5.68,4.01,10.37s-1.67,7.84-4.01,10.37h-1.91c2.28-2.53,3.95-5.68,3.95-10.37s-1.67-7.84-3.95-10.37h1.91" style="fill:#3a414a; stroke-width:0px;"/></g><path d="M585.14,408.6l33.95-33.96M582.83,261.4l36.26,31.47M413.68,118.7l126.4-46.95" style="fill:none; stroke:#000; stroke-linecap:round; stroke-width:2px;"/><path d="M61.78,71.75l126.74,46.05" style="fill:none; stroke:#000; stroke-linecap:round; stroke-width:2px;"/><path d="M240.5,6c0-3.31,2.69-6,6-6h108c3.31,0,6,2.69,6,6v28c0,3.31-2.69,6-6,6h-108c-3.31,0-6-2.69-6-6V6Z" style="fill:none; stroke-width:0px;"/><g id="ct"><path id="cu" d="M253.43,9.93v15.41h-3.85v-15.41h-5.93v-2.96h15.7v2.96h-5.93" style="fill:#3a414a; stroke-width:0px;"/><path id="cv" d="M265.72,10.96c4.74,0,7.11,2.67,7.11,7.33s-2.59,7.33-7.19,7.33-7.04-2.67-7.04-7.33,2.52-7.33,7.11-7.33ZM265.65,23.11c2.59,0,3.33-2.07,3.33-4.81,0-2.96-.74-4.81-3.19-4.81s-3.33,1.93-3.33,4.81c0,2.67.74,4.81,3.19,4.81" style="fill:#3a414a; stroke-width:0px;"/><path id="cw" d="M283.8,10.96c3.93,0,5.19,3.26,5.19,7.26s-1.41,7.26-5.41,7.41c-2.3.07-3.33-1.26-4.37-2.52.22,2.44.15,5.11.15,7.78h-3.7l-.07-19.63h3.56c.15.74,0,1.7.22,2.3.81-1.78,2.15-2.59,4.44-2.59ZM282.24,23.11c2.44,0,2.89-2.3,2.96-4.89,0-2.81-.67-4.74-2.96-4.74-4.15,0-4.07,9.63,0,9.63" style="fill:#3a414a; stroke-width:0px;"/></g><g id="cx"><path id="cy" d="M308.31,25.33h-3.93l-6.81-18.37h4.07l4.74,15.26c1.26-5.33,3.11-10.15,4.67-15.26h4" style="fill:#3a414a; stroke-width:0px;"/><path id="cz" d="M316.54,8.74v-2.74h3.7v2.74h-3.7ZM316.54,25.33v-14.07h3.7v14.07h-3.7" style="fill:#3a414a; stroke-width:0px;"/><path id="da" d="M335.8,21.78c-.96,2.22-2.74,3.93-6.07,3.85-4.44-.15-6.59-2.74-6.59-7.41s2.22-7.26,6.67-7.26,6.15,3.33,6.22,8h-9.04c0,2.3.59,4.07,2.89,4.15,1.33,0,2.22-.52,2.52-1.63l3.41.3ZM332.46,16.67c.37-3.41-4.22-4.67-5.19-1.56-.15.44-.3.96-.3,1.56h5.48" style="fill:#3a414a; stroke-width:0px;"/><path id="db" d="M354.02,25.33h-3.85l-2.89-11.48-2.96,11.48h-3.85l-3.63-14.07h3.41l2.37,10.74c.67-3.85,1.78-7.19,2.67-10.74h3.93l2.74,10.74,2.37-10.74h3.41" style="fill:#3a414a; stroke-width:0px;"/></g></svg>