<?xml version="1.0" encoding="UTF-8"?><svg id="a" xmlns="http://www.w3.org/2000/svg" viewBox="0 0 556.09 506.84"><path d="M178.09,3c0-3.31,2.69-6,6-6h138c3.31,0,6,2.69,6,6v28c0,3.31-2.69,6-6,6h-138c-3.31,0-6-2.69-6-6V3Z" style="fill:none; stroke-width:0px;"/><g id="b"><path id="c" d="M190.98,6.93v5.7h9.41v2.96h-9.41v6.74h-3.85V3.96h13.56v2.96h-9.7" style="fill:#3a414a; stroke-width:0px;"/><path id="d" d="M211.57,11.22c-2.89-.89-4.44.96-4.44,4.22v6.89h-3.7l-.07-14.07h3.48c.15.96-.07,2.15.22,2.96.44-2.07,2-3.93,4.52-3.04v3.04" style="fill:#3a414a; stroke-width:0px;"/><path id="e" d="M220.09,7.96c4.74,0,7.11,2.67,7.11,7.33s-2.59,7.33-7.19,7.33-7.04-2.67-7.04-7.33,2.52-7.33,7.11-7.33ZM220.02,20.11c2.59,0,3.33-2.07,3.33-4.81,0-2.96-.74-4.81-3.19-4.81s-3.33,1.93-3.33,4.81c0,2.67.74,4.81,3.19,4.81" style="fill:#3a414a; stroke-width:0px;"/><path id="f" d="M238.16,7.96c6.44-.07,4.3,8.37,4.67,14.37h-3.7c-.52-4.22,1.7-11.63-2.52-11.63s-2.52,7.19-2.89,11.63h-3.7l-.07-14.07h3.48c.15.89-.07,2.07.22,2.81.89-1.93,2.07-3.04,4.52-3.11" style="fill:#3a414a; stroke-width:0px;"/><path id="g" d="M252.9,22.11c-2.67,1.04-6.44.52-6.44-3.11v-8.3h-1.78v-2.44h2l1.11-3.33h2.3v3.33h2.67v2.44h-2.67v7.33c-.07,1.7,1.19,2.3,2.81,1.85v2.22" style="fill:#3a414a; stroke-width:0px;"/></g><g id="h"><path id="i" d="M271.5,22.33h-3.93l-6.81-18.37h4.07l4.74,15.26c1.26-5.33,3.11-10.15,4.67-15.26h4" style="fill:#3a414a; stroke-width:0px;"/><path id="j" d="M279.72,5.74v-2.74h3.7v2.74h-3.7ZM279.72,22.33v-14.07h3.7v14.07h-3.7" style="fill:#3a414a; stroke-width:0px;"/><path id="k" d="M298.98,18.78c-.96,2.22-2.74,3.93-6.07,3.85-4.44-.15-6.59-2.74-6.59-7.41s2.22-7.26,6.67-7.26,6.15,3.33,6.22,8h-9.04c0,2.3.59,4.07,2.89,4.15,1.33,0,2.22-.52,2.52-1.63l3.41.3ZM295.65,13.67c.37-3.41-4.22-4.67-5.19-1.56-.15.44-.3.96-.3,1.56h5.48" style="fill:#3a414a; stroke-width:0px;"/><path id="l" d="M317.2,22.33h-3.85l-2.89-11.48-2.96,11.48h-3.85l-3.63-14.07h3.41l2.37,10.74c.67-3.85,1.78-7.19,2.67-10.74h3.93l2.74,10.74,2.37-10.74h3.41" style="fill:#3a414a; stroke-width:0px;"/></g><path d="M14.09,238h478" style="fill:none; stroke:#000; stroke-linecap:round; stroke-width:2px;"/><path d="M13.09,245c0-3.31,2.69-6,6-6h148c3.31,0,6,2.69,6,6v26c0,3.31-2.69,6-6,6H19.09c-3.31,0-6-2.69-6-6v-26Z" style="fill:#fff; stroke:#3a414a;"/><g id="m"><path id="n" d="M37.89,261.69v-10.72h1.43v9.55h5.4v1.17h-6.83" style="fill:#3a414a; stroke-width:0px;"/><path id="o" d="M46.27,251.71v-1.3h1.38v1.3h-1.38ZM46.27,261.69v-8.21h1.38v8.21h-1.38" style="fill:#3a414a; stroke-width:0px;"/><path id="p" d="M57.72,254.39c-2.9.13-1.64,4.54-1.9,7.3h-1.34v-5.23c0-1.25-.22-2.16-1.51-2.07-2.85.17-1.64,4.49-1.9,7.3h-1.34l-.04-8.21h1.3c.04.43-.04,1.04.09,1.38.43-1.9,4.28-2.16,4.62,0,.48-.91,1.17-1.51,2.51-1.56,3.67-.09,2.03,5.14,2.38,8.38h-1.34v-5.23c0-1.25-.22-2.12-1.51-2.07" style="fill:#3a414a; stroke-width:0px;"/><path id="q" d="M62.61,251.71v-1.3h1.38v1.3h-1.38ZM62.61,261.69v-8.21h1.38v8.21h-1.38" style="fill:#3a414a; stroke-width:0px;"/><path id="r" d="M67.53,259.66c-.09,1.04.78,1.25,1.64.95v1.04c-1.43.43-3.02.22-3.02-1.69v-5.49h-.95v-.99h1.04l.39-1.86h.91v1.86h1.51v.99h-1.51v5.19" style="fill:#3a414a; stroke-width:0px;"/></g><g id="s"><path id="t" d="M81.62,253.53c-.22-2.07-5.31-2.33-5.36.09.6,3.24,6.83.6,7.04,5.14.13,3.37-5.23,3.76-7.56,2.38-.73-.43-1.21-1.12-1.43-1.99l1.43-.3c.22,2.42,6.09,2.72,6.09-.04,0-3.37-6.7-.6-7-5.1-.22-3.54,6.27-3.63,7.73-1.47.22.3.35.69.48,1.08" style="fill:#3a414a; stroke-width:0px;"/><path id="u" d="M92.9,261.69h-1.56l-1.73-7.09-1.77,7.09h-1.56l-2.33-8.21h1.38l1.69,7.09,1.86-7.09h1.47l1.77,7.09,1.81-7.09h1.34" style="fill:#3a414a; stroke-width:0px;"/><path id="v" d="M96.22,251.71v-1.3h1.38v1.3h-1.38ZM96.22,261.69v-8.21h1.38v8.21h-1.38" style="fill:#3a414a; stroke-width:0px;"/><path id="w" d="M101.15,259.66c-.09,1.04.78,1.25,1.64.95v1.04c-1.43.43-3.02.22-3.02-1.69v-5.49h-.95v-.99h1.04l.39-1.86h.91v1.86h1.51v.99h-1.51v5.19" style="fill:#3a414a; stroke-width:0px;"/><path id="x" d="M107.07,254.39c-1.73,0-2.07,1.43-2.07,3.15s.39,3.24,2.07,3.24c1.04,0,1.77-.6,1.86-1.64l1.38.09c-.26,1.6-1.34,2.64-3.2,2.64-2.55,0-3.28-1.77-3.54-4.28-.43-4.02,4.36-5.66,6.35-2.77.17.3.22.6.3.95l-1.38.13c-.17-.91-.69-1.51-1.77-1.51" style="fill:#3a414a; stroke-width:0px;"/><path id="y" d="M115.28,254.39c-3.11,0-1.9,4.41-2.12,7.3h-1.38v-11.28h1.38l-.04,4.45c.52-.91,1.21-1.56,2.64-1.56,3.85,0,2.29,5.01,2.59,8.38h-1.38v-5.23c.09-1.38-.35-2.12-1.69-2.07" style="fill:#3a414a; stroke-width:0px;"/></g><g id="z"><path id="aa" d="M124.96,261.69v-10.72h1.43v9.55h5.4v1.17h-6.83" style="fill:#3a414a; stroke-width:0px;"/><path id="ab" d="M136.62,253.31c2.72,0,3.72,1.81,3.63,4.58h-5.83c0,1.73.6,2.9,2.29,2.94,1.12.04,1.86-.52,2.12-1.25l1.21.35c-.48,1.21-1.6,1.94-3.33,1.94-2.51,0-3.8-1.6-3.76-4.32.04-2.64,1.12-4.23,3.67-4.23ZM138.87,256.81c.26-2.59-3.28-3.33-4.19-1.21-.13.3-.26.73-.26,1.21h4.45" style="fill:#3a414a; stroke-width:0px;"/><path id="ac" d="M145.31,251.58c-1.34-.39-1.81.43-1.64,1.9h1.64v.99h-1.64v7.22h-1.34v-7.22h-1.17v-.99h1.17c-.3-2.25.73-3.54,2.98-2.94v1.04" style="fill:#3a414a; stroke-width:0px;"/><path id="ad" d="M147.81,259.66c-.09,1.04.78,1.25,1.64.95v1.04c-1.43.43-3.02.22-3.02-1.69v-5.49h-.95v-.99h1.04l.39-1.86h.91v1.86h1.51v.99h-1.51v5.19" style="fill:#3a414a; stroke-width:0px;"/></g><path d="M333.09,205c0-3.31,2.69-6,6-6h148c3.31,0,6,2.69,6,6v26c0,3.31-2.69,6-6,6h-148c-3.31,0-6-2.69-6-6v-26Z" style="fill:#fff; stroke:#3a414a;"/><g id="ae"><path id="af" d="M352.75,221.69v-10.72h1.43v9.55h5.4v1.17h-6.83" style="fill:#3a414a; stroke-width:0px;"/><path id="ag" d="M361.13,211.71v-1.3h1.38v1.3h-1.38ZM361.13,221.69v-8.21h1.38v8.21h-1.38" style="fill:#3a414a; stroke-width:0px;"/><path id="ah" d="M372.58,214.39c-2.9.13-1.64,4.54-1.9,7.3h-1.34v-5.23c0-1.25-.22-2.16-1.51-2.07-2.85.17-1.64,4.49-1.9,7.3h-1.34l-.04-8.21h1.3c.04.43-.04,1.04.09,1.38.43-1.9,4.28-2.16,4.62,0,.48-.91,1.17-1.51,2.51-1.56,3.67-.09,2.03,5.14,2.38,8.38h-1.34v-5.23c0-1.25-.22-2.12-1.51-2.07" style="fill:#3a414a; stroke-width:0px;"/><path id="ai" d="M377.46,211.71v-1.3h1.38v1.3h-1.38ZM377.46,221.69v-8.21h1.38v8.21h-1.38" style="fill:#3a414a; stroke-width:0px;"/><path id="aj" d="M382.39,219.66c-.09,1.04.78,1.25,1.64.95v1.04c-1.43.43-3.02.22-3.02-1.69v-5.49h-.95v-.99h1.04l.39-1.86h.91v1.86h1.51v.99h-1.51v5.19" style="fill:#3a414a; stroke-width:0px;"/></g><g id="ak"><path id="al" d="M396.48,213.53c-.22-2.07-5.31-2.33-5.36.09.6,3.24,6.83.6,7.04,5.14.13,3.37-5.23,3.76-7.56,2.38-.73-.43-1.21-1.12-1.43-1.99l1.43-.3c.22,2.42,6.09,2.72,6.09-.04,0-3.37-6.7-.6-7-5.1-.22-3.54,6.27-3.63,7.73-1.47.22.3.35.69.48,1.08" style="fill:#3a414a; stroke-width:0px;"/><path id="am" d="M407.75,221.69h-1.56l-1.73-7.09-1.77,7.09h-1.56l-2.33-8.21h1.38l1.69,7.09,1.86-7.09h1.47l1.77,7.09,1.81-7.09h1.34" style="fill:#3a414a; stroke-width:0px;"/><path id="an" d="M411.08,211.71v-1.3h1.38v1.3h-1.38ZM411.08,221.69v-8.21h1.38v8.21h-1.38" style="fill:#3a414a; stroke-width:0px;"/><path id="ao" d="M416.01,219.66c-.09,1.04.78,1.25,1.64.95v1.04c-1.43.43-3.02.22-3.02-1.69v-5.49h-.95v-.99h1.04l.39-1.86h.91v1.86h1.51v.99h-1.51v5.19" style="fill:#3a414a; stroke-width:0px;"/><path id="ap" d="M421.93,214.39c-1.73,0-2.07,1.43-2.07,3.15s.39,3.24,2.07,3.24c1.04,0,1.77-.6,1.86-1.64l1.38.09c-.26,1.6-1.34,2.64-3.2,2.64-2.55,0-3.28-1.77-3.54-4.28-.43-4.02,4.36-5.66,6.35-2.77.17.3.22.6.3.95l-1.38.13c-.17-.91-.69-1.51-1.77-1.51" style="fill:#3a414a; stroke-width:0px;"/><path id="aq" d="M430.14,214.39c-3.11,0-1.9,4.41-2.12,7.3h-1.38v-11.28h1.38l-.04,4.45c.52-.91,1.21-1.56,2.64-1.56,3.85,0,2.29,5.01,2.59,8.38h-1.38v-5.23c.09-1.38-.35-2.12-1.69-2.07" style="fill:#3a414a; stroke-width:0px;"/></g><g id="ar"><path id="as" d="M448.59,214.05c-.04,1.77-.99,2.77-2.59,3.02l3.02,4.62h-1.64l-2.81-4.45h-3.33v4.45h-1.43v-10.72c3.8.13,8.86-.91,8.77,3.07ZM441.24,216.12c2.59-.09,5.92.56,5.92-2.03s-3.46-1.81-5.92-1.94v3.98" style="fill:#3a414a; stroke-width:0px;"/><path id="at" d="M450.75,211.71v-1.3h1.38v1.3h-1.38ZM450.75,221.69v-8.21h1.38v8.21h-1.38" style="fill:#3a414a; stroke-width:0px;"/><path id="au" d="M460.77,213.48c-.43,5.4,1.77,12.66-4.75,11.28-.99-.26-1.64-.86-1.9-1.86l1.38-.22c.65,2.03,4.32,1.38,3.85-1.21v-1.3c-.48.91-1.25,1.56-2.64,1.56-2.33,0-2.94-1.77-2.94-4.15s.69-4.19,3.07-4.23c1.25-.04,2.07.69,2.55,1.51.04-.43,0-.99.09-1.38h1.3ZM457.19,220.74c1.56,0,2.16-1.38,2.16-3.15s-.6-3.24-2.16-3.24c-1.69,0-1.99,1.47-1.99,3.24s.26,3.15,1.99,3.15" style="fill:#3a414a; stroke-width:0px;"/><path id="av" d="M466.35,214.39c-3.11,0-1.9,4.41-2.12,7.3h-1.38v-11.28h1.38l-.04,4.45c.52-.91,1.21-1.56,2.64-1.56,3.85,0,2.29,5.01,2.59,8.38h-1.38v-5.23c.09-1.38-.35-2.12-1.69-2.07" style="fill:#3a414a; stroke-width:0px;"/><path id="aw" d="M472.96,219.66c-.09,1.04.78,1.25,1.64.95v1.04c-1.43.43-3.02.22-3.02-1.69v-5.49h-.95v-.99h1.04l.39-1.86h.91v1.86h1.51v.99h-1.51v5.19" style="fill:#3a414a; stroke-width:0px;"/></g><path d="M193.09,303c0-3.31,2.69-6,6-6h108c3.31,0,6,2.69,6,6v68c0,3.31-2.69,6-6,6h-108c-3.31,0-6-2.69-6-6v-68Z" style="fill:#fff; stroke:#3a414a;"/><path d="M229.09,179c-3.31,0-6-2.69-6-6h0V53c0-3.31,2.69-6,6-6h48c3.31,0,6,2.69,6,6v120c0,3.31-2.69,6-6,6h-48Z" style="fill:#fff; stroke:#3a414a;"/><g id="ax"><path id="ay" d="M246.7,130.56c-2.96.31-3.33,7.59.12,7.65,4.63-.86.86-9.75,7.35-10.06,4.81-.19,5.37,7.47,3.4,10.8-.62,1.05-1.6,1.73-2.84,2.04l-.43-2.04c3.46-.31,3.89-8.7-.06-8.7-4.81,0-.86,9.57-7.28,10-5.06.31-5.19-8.95-2.1-11.05.43-.31.99-.49,1.54-.68" style="fill:#3a414a; stroke-width:0px;"/><path id="az" d="M246.39,120.99c0-3.89,2.59-5.31,6.54-5.19v8.33c2.47,0,4.14-.86,4.2-3.27.06-1.6-.74-2.65-1.79-3.02l.49-1.73c1.73.68,2.78,2.28,2.78,4.75,0,3.58-2.28,5.43-6.17,5.37-3.77-.06-6.05-1.6-6.05-5.25ZM251.39,117.78c-3.7-.37-4.75,4.69-1.73,5.99.43.19,1.05.37,1.73.37v-6.36" style="fill:#3a414a; stroke-width:0px;"/><path id="ba" d="M248.31,107.78c-.99,4.81,5.62,3.27,10.06,3.52v1.98l-11.73.06v-1.85c.74-.06,1.79.06,2.41-.12-1.67-.37-3.02-1.42-2.53-3.58h1.79" style="fill:#3a414a; stroke-width:0px;"/><path id="bb" d="M258.37,100.81v2.35l-11.73,4.26v-2.1l10.19-3.33-10.19-3.46v-2.1" style="fill:#3a414a; stroke-width:0px;"/><path id="bc" d="M246.39,90.19c-.06-3.83,2.28-5.25,6.11-5.25,3.89-.06,6.11,1.67,6.11,5.31s-2.41,5.12-6.11,5.19c-4.07,0-6.11-1.73-6.11-5.25ZM257.13,90.25c.06-2.72-1.91-3.27-4.63-3.27s-4.63.49-4.63,3.15,1.98,3.27,4.63,3.27,4.57-.62,4.63-3.15" style="fill:#3a414a; stroke-width:0px;"/></g><path d="M253.09,180v116" style="fill:none; stroke:#000; stroke-linecap:round; stroke-width:2px;"/><path d="M248.85,301.24c2.34-2.34,6.14-2.34,8.48,0l31.52,31.52c2.34,2.34,2.34,6.14,0,8.48l-31.52,31.52c-2.34,2.34-6.14,2.34-8.48,0l-31.52-31.52c-2.34-2.34-2.34-6.14,0-8.48l31.52-31.52Z" style="fill:#fff; stroke:#3a414a;"/><g id="bd"><path id="be" d="M234.99,329.85c3.5,0,5.31,1.99,5.31,5.44s-1.9,5.57-5.31,5.57-5.31-2.12-5.31-5.57,1.81-5.44,5.31-5.44ZM234.99,339.66c2.72,0,3.85-1.77,3.85-4.36s-1.25-4.28-3.85-4.28-3.85,1.69-3.85,4.28,1.21,4.32,3.85,4.36" style="fill:#3a414a; stroke-width:0px;"/><path id="bf" d="M246.01,332.31c2.38.04,3.02,1.77,3.02,4.23s-.69,4.23-3.02,4.32c-1.34,0-2.12-.56-2.59-1.47l.04,4.54h-1.38l-.04-11.45h1.34l.09,1.3c.43-.91,1.21-1.47,2.55-1.47ZM245.66,339.83c1.73,0,1.94-1.47,1.94-3.24s-.26-3.15-1.94-3.2c-1.81,0-2.2,1.38-2.2,3.28s.43,3.15,2.2,3.15" style="fill:#3a414a; stroke-width:0px;"/><path id="bg" d="M252.23,338.66c-.09,1.04.78,1.25,1.64.95v1.04c-1.43.43-3.02.22-3.02-1.69v-5.49h-.95v-.99h1.04l.39-1.86h.91v1.86h1.51v.99h-1.51v5.19" style="fill:#3a414a; stroke-width:0px;"/><path id="bh" d="M255.04,330.71v-1.3h1.38v1.3h-1.38ZM255.04,340.69v-8.21h1.38v8.21h-1.38" style="fill:#3a414a; stroke-width:0px;"/><path id="bi" d="M261.56,333.39c-1.73,0-2.07,1.43-2.07,3.15s.39,3.24,2.07,3.24c1.04,0,1.77-.6,1.86-1.64l1.38.09c-.26,1.6-1.34,2.64-3.2,2.64-2.55,0-3.28-1.77-3.54-4.28-.43-4.02,4.36-5.66,6.35-2.77.17.3.22.6.3.95l-1.38.13c-.17-.91-.69-1.51-1.77-1.51" style="fill:#3a414a; stroke-width:0px;"/><path id="bj" d="M271.29,339.14c-.65.91-1.34,1.77-2.94,1.73-1.56-.04-2.51-.91-2.51-2.46-.04-2.77,2.72-2.72,5.4-2.72.13-1.51-.39-2.33-1.77-2.33-1.04.04-1.77.3-1.81,1.34l-1.43-.13c.22-1.6,1.43-2.25,3.28-2.25s3.11.86,3.11,2.77v3.54c-.04.86.3,1.38,1.21,1.17v.86c-1.34.39-2.64-.09-2.55-1.51ZM267.27,338.4c0,.86.52,1.43,1.38,1.43,1.77-.13,2.72-1.25,2.59-3.2-1.86.09-3.98-.22-3.98,1.77" style="fill:#3a414a; stroke-width:0px;"/><path id="bk" d="M274.87,340.69v-11.28h1.38v11.28h-1.38" style="fill:#3a414a; stroke-width:0px;"/></g><path d="M254.09,255c0-3.31,2.69-6,6-6h108c3.31,0,6,2.69,6,6v26c0,3.31-2.69,6-6,6h-108c-3.31,0-6-2.69-6-6v-26Z" style="fill:none; stroke-width:0px;"/><g id="bl"><path id="bm" d="M270.75,271.11l-1.21-3.11h-4.88l-1.21,3.11h-1.51l4.36-10.72h1.64l4.28,10.72h-1.47ZM269.11,266.83l-2.03-5.31c-.52,1.94-1.34,3.54-1.99,5.31h4.02" style="fill:#3a414a; stroke-width:0px;"/><path id="bn" d="M278.36,271.11l-2.2-3.37-2.25,3.37h-1.47l2.94-4.23-2.81-3.98h1.51l2.07,3.2,2.03-3.2h1.51l-2.77,3.98,2.94,4.23h-1.51" style="fill:#3a414a; stroke-width:0px;"/><path id="bo" d="M281.08,271.11v-11.28h1.38v11.28h-1.38" style="fill:#3a414a; stroke-width:0px;"/><path id="bp" d="M287.77,262.73c2.72,0,3.72,1.81,3.63,4.58h-5.83c0,1.73.6,2.9,2.29,2.94,1.12.04,1.86-.52,2.12-1.25l1.21.35c-.48,1.21-1.6,1.94-3.33,1.94-2.51,0-3.8-1.6-3.76-4.32.04-2.64,1.12-4.23,3.67-4.23ZM290.02,266.23c.26-2.59-3.28-3.33-4.19-1.21-.13.3-.26.73-.26,1.21h4.45" style="fill:#3a414a; stroke-width:0px;"/><path id="bq" d="M292.1,271.28l3.11-11.45h1.21l-3.11,11.45h-1.21" style="fill:#3a414a; stroke-width:0px;"/><path id="br" d="M297.71,260.4c5.1-.3,9.33.35,9.2,5.27-.13,3.37-1.86,5.44-5.23,5.44h-3.98v-10.72ZM299.14,269.94c3.85.35,6.31-.69,6.31-4.28s-2.59-4.36-6.31-4.1v8.38" style="fill:#3a414a; stroke-width:0px;"/><path id="bs" d="M312.53,264.07c-3.37-.69-2.29,3.93-2.46,7.04h-1.38l-.04-8.21h1.3c.04.52-.04,1.25.09,1.69.26-1.17.99-2.12,2.51-1.77v1.25" style="fill:#3a414a; stroke-width:0px;"/><path id="bt" d="M313.79,261.13v-1.3h1.38v1.3h-1.38ZM313.79,271.11v-8.21h1.38v8.21h-1.38" style="fill:#3a414a; stroke-width:0px;"/><path id="bu" d="M320.83,271.11h-1.64l-2.98-8.21h1.47l2.33,7.13,2.42-7.13h1.47" style="fill:#3a414a; stroke-width:0px;"/><path id="bv" d="M328.26,262.73c2.72,0,3.72,1.81,3.63,4.58h-5.83c0,1.73.6,2.9,2.29,2.94,1.12.04,1.86-.52,2.12-1.25l1.21.35c-.48,1.21-1.6,1.94-3.33,1.94-2.51,0-3.8-1.6-3.76-4.32.04-2.64,1.12-4.23,3.67-4.23ZM330.51,266.23c.26-2.59-3.28-3.33-4.19-1.21-.13.3-.26.73-.26,1.21h4.45" style="fill:#3a414a; stroke-width:0px;"/><path id="bw" d="M338.42,264.93c-.13-1.47-3.72-1.64-3.76,0,.65,2.29,4.97.52,5.14,3.89s-6.48,3.2-6.78.35l1.21-.22c.17,1.56,4.19,1.94,4.23,0-.43-2.42-4.88-.65-5.1-3.89-.17-2.46,3.54-2.72,5.27-1.81.52.3.91.82,1.04,1.51" style="fill:#3a414a; stroke-width:0px;"/><path id="bx" d="M344.94,263.81c-3.11,0-1.9,4.41-2.12,7.3h-1.38v-11.28h1.38l-.04,4.45c.52-.91,1.21-1.56,2.64-1.56,3.85,0,2.29,5.01,2.59,8.38h-1.38v-5.23c.09-1.38-.35-2.12-1.69-2.07" style="fill:#3a414a; stroke-width:0px;"/><path id="by" d="M355.1,269.56c-.65.91-1.34,1.77-2.94,1.73-1.56-.04-2.51-.91-2.51-2.46-.04-2.77,2.72-2.72,5.4-2.72.13-1.51-.39-2.33-1.77-2.33-1.04.04-1.77.3-1.81,1.34l-1.43-.13c.22-1.6,1.43-2.25,3.28-2.25s3.11.86,3.11,2.77v3.54c-.04.86.3,1.38,1.21,1.17v.86c-1.34.39-2.64-.09-2.55-1.51ZM351.08,268.82c0,.86.52,1.43,1.38,1.43,1.77-.13,2.72-1.25,2.59-3.2-1.86.09-3.98-.22-3.98,1.77" style="fill:#3a414a; stroke-width:0px;"/><path id="bz" d="M362.01,261c-1.34-.39-1.81.43-1.64,1.9h1.64v.99h-1.64v7.22h-1.34v-7.22h-1.17v-.99h1.17c-.3-2.25.73-3.54,2.98-2.94v1.04" style="fill:#3a414a; stroke-width:0px;"/><path id="ca" d="M364.52,269.08c-.09,1.04.78,1.25,1.64.95v1.04c-1.43.43-3.02.22-3.02-1.69v-5.49h-.95v-.99h1.04l.39-1.86h.91v1.86h1.51v.99h-1.51v5.19" style="fill:#3a414a; stroke-width:0px;"/></g><path d="M13.09,423c0-3.31,2.69-6,6-6h468c3.31,0,6,2.69,6,6v68c0,3.31-2.69,6-6,6H19.09c-3.31,0-6-2.69-6-6v-68Z" style="fill:#fff; stroke:#3a414a;"/><path d="M54.09,278v138" style="fill:none; stroke:#000; stroke-linecap:round; stroke-width:2px;"/><path d="M454.09,238v178" style="fill:none; stroke:#000; stroke-linecap:round; stroke-width:2px;"/><path d="M455.09,333c0-3.31,2.69-6,6-6h89c3.31,0,6,2.69,6,6v28c0,3.31-2.69,6-6,6h-89c-3.31,0-6-2.69-6-6v-28Z" style="fill:none; stroke-width:0px;"/><g id="cb"><path id="cc" d="M465.25,341.94c-.22-2.07-5.31-2.33-5.36.09.6,3.24,6.83.6,7.04,5.14.13,3.37-5.23,3.76-7.56,2.38-.73-.43-1.21-1.12-1.43-1.99l1.43-.3c.22,2.42,6.09,2.72,6.09-.04,0-3.37-6.7-.6-7-5.1-.22-3.54,6.27-3.63,7.73-1.47.22.3.35.69.48,1.08" style="fill:#3a414a; stroke-width:0px;"/><path id="cd" d="M472.6,341.73c2.38.04,3.02,1.77,3.02,4.23s-.69,4.23-3.02,4.32c-1.34,0-2.12-.56-2.59-1.47l.04,4.54h-1.38l-.04-11.45h1.34l.09,1.3c.43-.91,1.21-1.47,2.55-1.47ZM472.25,349.25c1.73,0,1.94-1.47,1.94-3.24s-.26-3.15-1.94-3.2c-1.81,0-2.2,1.38-2.2,3.28s.43,3.15,2.2,3.15" style="fill:#3a414a; stroke-width:0px;"/><path id="ce" d="M482.36,348.56c-.65.91-1.34,1.77-2.94,1.73-1.56-.04-2.51-.91-2.51-2.46-.04-2.77,2.72-2.72,5.4-2.72.13-1.51-.39-2.33-1.77-2.33-1.04.04-1.77.3-1.81,1.34l-1.43-.13c.22-1.6,1.43-2.25,3.28-2.25s3.11.86,3.11,2.77v3.54c-.04.86.3,1.38,1.21,1.17v.86c-1.34.39-2.64-.09-2.55-1.51ZM478.35,347.82c0,.86.52,1.43,1.38,1.43,1.77-.13,2.72-1.25,2.59-3.2-1.86.09-3.98-.22-3.98,1.77" style="fill:#3a414a; stroke-width:0px;"/><path id="cf" d="M489.06,342.81c-1.73,0-2.07,1.43-2.07,3.15s.39,3.24,2.07,3.24c1.04,0,1.77-.6,1.86-1.64l1.38.09c-.26,1.6-1.34,2.64-3.2,2.64-2.55,0-3.28-1.77-3.54-4.28-.43-4.02,4.36-5.66,6.35-2.77.17.3.22.6.3.95l-1.38.13c-.17-.91-.69-1.51-1.77-1.51" style="fill:#3a414a; stroke-width:0px;"/><path id="cg" d="M497.01,341.73c2.72,0,3.72,1.81,3.63,4.58h-5.83c0,1.73.6,2.9,2.29,2.94,1.12.04,1.86-.52,2.12-1.25l1.21.35c-.48,1.21-1.6,1.94-3.33,1.94-2.51,0-3.8-1.6-3.76-4.32.04-2.64,1.12-4.23,3.67-4.23ZM499.26,345.23c.26-2.59-3.28-3.33-4.19-1.21-.13.3-.26.73-.26,1.21h4.45" style="fill:#3a414a; stroke-width:0px;"/><path id="ch" d="M506.26,343.07c-3.37-.69-2.29,3.93-2.46,7.04h-1.38l-.04-8.21h1.3c.04.52-.04,1.25.09,1.69.26-1.17.99-2.12,2.51-1.77v1.25" style="fill:#3a414a; stroke-width:0px;"/><path id="ci" d="M506.48,350.28l3.11-11.45h1.21l-3.11,11.45h-1.21" style="fill:#3a414a; stroke-width:0px;"/><path id="cj" d="M518.79,341.94c-.22-2.07-5.31-2.33-5.36.09.6,3.24,6.83.6,7.04,5.14.13,3.37-5.23,3.76-7.56,2.38-.73-.43-1.21-1.12-1.43-1.99l1.43-.3c.22,2.42,6.09,2.72,6.09-.04,0-3.37-6.7-.6-7-5.1-.22-3.54,6.27-3.63,7.73-1.47.22.3.35.69.48,1.08" style="fill:#3a414a; stroke-width:0px;"/><path id="ck" d="M525.31,342.81c-1.73,0-2.07,1.43-2.07,3.15s.39,3.24,2.07,3.24c1.04,0,1.77-.6,1.86-1.64l1.38.09c-.26,1.6-1.34,2.64-3.2,2.64-2.55,0-3.28-1.77-3.54-4.28-.43-4.02,4.36-5.66,6.35-2.77.17.3.22.6.3.95l-1.38.13c-.17-.91-.69-1.51-1.77-1.51" style="fill:#3a414a; stroke-width:0px;"/><path id="cl" d="M533.87,343.07c-3.37-.69-2.29,3.93-2.46,7.04h-1.38l-.04-8.21h1.3c.04.52-.04,1.25.09,1.69.26-1.17.99-2.12,2.51-1.77v1.25" style="fill:#3a414a; stroke-width:0px;"/><path id="cm" d="M538.41,341.73c2.72,0,3.72,1.81,3.63,4.58h-5.83c0,1.73.6,2.9,2.29,2.94,1.12.04,1.86-.52,2.12-1.25l1.21.35c-.48,1.21-1.6,1.94-3.33,1.94-2.51,0-3.8-1.6-3.76-4.32.04-2.64,1.12-4.23,3.67-4.23ZM540.65,345.23c.26-2.59-3.28-3.33-4.19-1.21-.13.3-.26.73-.26,1.21h4.45" style="fill:#3a414a; stroke-width:0px;"/><path id="cn" d="M551.63,350.11h-1.56l-1.73-7.09-1.77,7.09h-1.56l-2.33-8.21h1.38l1.69,7.09,1.86-7.09h1.47l1.77,7.09,1.81-7.09h1.34" style="fill:#3a414a; stroke-width:0px;"/></g><path d="M55.09,363c0-3.31,2.69-6,6-6h89c3.31,0,6,2.69,6,6v28c0,3.31-2.69,6-6,6H61.09c-3.31,0-6-2.69-6-6v-28Z" style="fill:none; stroke-width:0px;"/><g id="co"><path id="cp" d="M65.25,371.94c-.22-2.07-5.31-2.33-5.36.09.6,3.24,6.83.6,7.04,5.14.13,3.37-5.23,3.76-7.56,2.38-.73-.43-1.21-1.12-1.43-1.99l1.43-.3c.22,2.42,6.09,2.72,6.09-.04,0-3.37-6.7-.6-7-5.1-.22-3.54,6.27-3.63,7.73-1.47.22.3.35.69.48,1.08" style="fill:#3a414a; stroke-width:0px;"/><path id="cq" d="M72.6,371.73c2.38.04,3.02,1.77,3.02,4.23s-.69,4.23-3.02,4.32c-1.34,0-2.12-.56-2.59-1.47l.04,4.54h-1.38l-.04-11.45h1.34l.09,1.3c.43-.91,1.21-1.47,2.55-1.47ZM72.25,379.25c1.73,0,1.94-1.47,1.94-3.24s-.26-3.15-1.94-3.2c-1.81,0-2.2,1.38-2.2,3.28s.43,3.15,2.2,3.15" style="fill:#3a414a; stroke-width:0px;"/><path id="cr" d="M82.36,378.56c-.65.91-1.34,1.77-2.94,1.73-1.56-.04-2.51-.91-2.51-2.46-.04-2.77,2.72-2.72,5.4-2.72.13-1.51-.39-2.33-1.77-2.33-1.04.04-1.77.3-1.81,1.34l-1.43-.13c.22-1.6,1.43-2.25,3.28-2.25s3.11.86,3.11,2.77v3.54c-.04.86.3,1.38,1.21,1.17v.86c-1.34.39-2.64-.09-2.55-1.51ZM78.35,377.82c0,.86.52,1.43,1.38,1.43,1.77-.13,2.72-1.25,2.59-3.2-1.86.09-3.98-.22-3.98,1.77" style="fill:#3a414a; stroke-width:0px;"/><path id="cs" d="M89.06,372.81c-1.73,0-2.07,1.43-2.07,3.15s.39,3.24,2.07,3.24c1.04,0,1.77-.6,1.86-1.64l1.38.09c-.26,1.6-1.34,2.64-3.2,2.64-2.55,0-3.28-1.77-3.54-4.28-.43-4.02,4.36-5.66,6.35-2.77.17.3.22.6.3.95l-1.38.13c-.17-.91-.69-1.51-1.77-1.51" style="fill:#3a414a; stroke-width:0px;"/><path id="ct" d="M97.01,371.73c2.72,0,3.72,1.81,3.63,4.58h-5.83c0,1.73.6,2.9,2.29,2.94,1.12.04,1.86-.52,2.12-1.25l1.21.35c-.48,1.21-1.6,1.94-3.33,1.94-2.51,0-3.8-1.6-3.76-4.32.04-2.64,1.12-4.23,3.67-4.23ZM99.26,375.23c.26-2.59-3.28-3.33-4.19-1.21-.13.3-.26.73-.26,1.21h4.45" style="fill:#3a414a; stroke-width:0px;"/><path id="cu" d="M106.26,373.07c-3.37-.69-2.29,3.93-2.46,7.04h-1.38l-.04-8.21h1.3c.04.52-.04,1.25.09,1.69.26-1.17.99-2.12,2.51-1.77v1.25" style="fill:#3a414a; stroke-width:0px;"/><path id="cv" d="M106.48,380.28l3.11-11.45h1.21l-3.11,11.45h-1.21" style="fill:#3a414a; stroke-width:0px;"/><path id="cw" d="M118.79,371.94c-.22-2.07-5.31-2.33-5.36.09.6,3.24,6.83.6,7.04,5.14.13,3.37-5.23,3.76-7.56,2.38-.73-.43-1.21-1.12-1.43-1.99l1.43-.3c.22,2.42,6.09,2.72,6.09-.04,0-3.37-6.7-.6-7-5.1-.22-3.54,6.27-3.63,7.73-1.47.22.3.35.69.48,1.08" style="fill:#3a414a; stroke-width:0px;"/><path id="cx" d="M125.31,372.81c-1.73,0-2.07,1.43-2.07,3.15s.39,3.24,2.07,3.24c1.04,0,1.77-.6,1.86-1.64l1.38.09c-.26,1.6-1.34,2.64-3.2,2.64-2.55,0-3.28-1.77-3.54-4.28-.43-4.02,4.36-5.66,6.35-2.77.17.3.22.6.3.95l-1.38.13c-.17-.91-.69-1.51-1.77-1.51" style="fill:#3a414a; stroke-width:0px;"/><path id="cy" d="M133.87,373.07c-3.37-.69-2.29,3.93-2.46,7.04h-1.38l-.04-8.21h1.3c.04.52-.04,1.25.09,1.69.26-1.17.99-2.12,2.51-1.77v1.25" style="fill:#3a414a; stroke-width:0px;"/><path id="cz" d="M138.41,371.73c2.72,0,3.72,1.81,3.63,4.58h-5.83c0,1.73.6,2.9,2.29,2.94,1.12.04,1.86-.52,2.12-1.25l1.21.35c-.48,1.21-1.6,1.94-3.33,1.94-2.51,0-3.8-1.6-3.76-4.32.04-2.64,1.12-4.23,3.67-4.23ZM140.65,375.23c.26-2.59-3.28-3.33-4.19-1.21-.13.3-.26.73-.26,1.21h4.45" style="fill:#3a414a; stroke-width:0px;"/><path id="da" d="M151.63,380.11h-1.56l-1.73-7.09-1.77,7.09h-1.56l-2.33-8.21h1.38l1.69,7.09,1.86-7.09h1.47l1.77,7.09,1.81-7.09h1.34" style="fill:#3a414a; stroke-width:0px;"/></g></svg>