<?xml version="1.0" encoding="UTF-8"?><svg id="a" xmlns="http://www.w3.org/2000/svg" viewBox="0 0 493.86 692.14"><path d="M193.86,26.1c0,11.05-8.95,20-20,20s-20-8.95-20-20,8.95-20,20-20,20,8.95,20,20Z" style="stroke:#3a414a;"/><path d="M93.86,92.1c0-3.31,2.69-6,6-6h148c3.31,0,6,2.69,6,6v108c0,3.31-2.69,6-6,6H99.86c-3.31,0-6-2.69-6-6v-108Z" style="fill:#fff; stroke:#3a414a;"/><g id="b"><path id="c" d="M146.89,111.58c-.62-1.73-2.16-2.78-4.51-2.78-3.64,0-5.37,2.47-5.37,6.11s1.79,6.23,5.49,6.23c2.65,0,3.83-1.48,4.81-3.21l1.67.86c-1.11,2.35-3.15,4.07-6.6,4.07-4.94,0-7.22-3.09-7.47-7.96-.37-6.42,6.11-9.44,11.54-6.85,1.17.56,1.91,1.6,2.41,2.84" style="fill:#3a414a; stroke-width:0px;"/><path id="d" d="M156.33,112.2c-4.44,0-2.72,6.3-3.02,10.43h-1.98v-16.11h1.98l-.06,6.36c.74-1.3,1.73-2.22,3.77-2.22,5.49,0,3.27,7.16,3.7,11.98h-1.98v-7.47c.12-1.98-.49-3.02-2.41-2.96" style="fill:#3a414a; stroke-width:0px;"/><path id="e" d="M168.31,110.65c3.89,0,5.31,2.59,5.19,6.54h-8.33c0,2.47.86,4.14,3.27,4.2,1.6.06,2.65-.74,3.02-1.79l1.73.49c-.68,1.73-2.28,2.78-4.75,2.78-3.58,0-5.43-2.28-5.37-6.17.06-3.77,1.6-6.05,5.25-6.05ZM171.52,115.65c.37-3.7-4.69-4.75-5.99-1.73-.19.43-.37,1.05-.37,1.73h6.36" style="fill:#3a414a; stroke-width:0px;"/><path id="f" d="M180.4,112.2c-2.47,0-2.96,2.04-2.96,4.51s.56,4.63,2.96,4.63c1.48,0,2.53-.86,2.65-2.35l1.98.12c-.37,2.28-1.91,3.77-4.57,3.77-3.64,0-4.69-2.53-5.06-6.11-.62-5.74,6.23-8.09,9.07-3.95.25.43.31.86.43,1.36l-1.98.19c-.25-1.3-.99-2.16-2.53-2.16" style="fill:#3a414a; stroke-width:0px;"/><path id="g" d="M194.42,122.63l-3.95-5.37-1.42,1.17v4.2h-1.98v-16.11h1.98v10.06l5.12-5.68h2.28l-4.75,5.06,5.06,6.67h-2.35" style="fill:#3a414a; stroke-width:0px;"/></g><g id="h"><path id="i" d="M204.35,108.37v-1.85h1.98v1.85h-1.98ZM204.35,122.63v-11.73h1.98v11.73h-1.98" style="fill:#3a414a; stroke-width:0px;"/><path id="j" d="M213.98,108.18c-1.91-.56-2.59.62-2.35,2.72h2.35v1.42h-2.35v10.31h-1.91v-10.31h-1.67v-1.42h1.67c-.43-3.21,1.05-5.06,4.26-4.2v1.48" style="fill:#3a414a; stroke-width:0px;"/></g><g id="k"><path id="l" d="M110.06,138.86c-4.44,0-2.72,6.3-3.02,10.43h-1.98v-16.11h1.98l-.06,6.36c.74-1.3,1.73-2.22,3.77-2.22,5.49,0,3.27,7.16,3.7,11.98h-1.98v-7.47c.12-1.98-.49-3.02-2.41-2.96" style="fill:#3a414a; stroke-width:0px;"/><path id="m" d="M122.04,137.32c3.89,0,5.31,2.59,5.19,6.54h-8.33c0,2.47.86,4.14,3.27,4.2,1.6.06,2.65-.74,3.02-1.79l1.73.49c-.68,1.73-2.28,2.78-4.75,2.78-3.58,0-5.43-2.28-5.37-6.17.06-3.77,1.6-6.05,5.25-6.05ZM125.25,142.32c.37-3.7-4.69-4.75-5.99-1.73-.19.43-.37,1.05-.37,1.73h6.36" style="fill:#3a414a; stroke-width:0px;"/><path id="n" d="M136.92,147.07c-.93,1.3-1.91,2.53-4.2,2.47-2.22-.06-3.58-1.3-3.58-3.52-.06-3.95,3.89-3.89,7.72-3.89.19-2.16-.56-3.33-2.53-3.33-1.48.06-2.53.43-2.59,1.91l-2.04-.19c.31-2.28,2.04-3.21,4.69-3.21s4.44,1.23,4.44,3.95v5.06c-.06,1.23.43,1.98,1.73,1.67v1.23c-1.91.56-3.77-.12-3.64-2.16ZM131.18,146.02c0,1.23.74,2.04,1.98,2.04,2.53-.19,3.89-1.79,3.7-4.57-2.65.12-5.68-.31-5.68,2.53" style="fill:#3a414a; stroke-width:0px;"/><path id="o" d="M145.81,137.32c1.91,0,2.96.8,3.7,2.04l-.06-6.17h1.98l.06,16.11h-1.85c-.12-.62,0-1.42-.19-1.91-.62,1.42-1.73,2.16-3.64,2.16-3.27,0-4.26-2.41-4.32-6.05,0-4.07,1.42-6.17,4.32-6.17ZM146.36,138.8c-2.47,0-2.84,2.1-2.84,4.63s.37,4.57,2.78,4.57c2.59,0,3.15-1.98,3.15-4.69s-.56-4.57-3.09-4.51" style="fill:#3a414a; stroke-width:0px;"/><path id="p" d="M154.39,135.04v-1.85h1.98v1.85h-1.98ZM154.39,149.29v-11.73h1.98v11.73h-1.98" style="fill:#3a414a; stroke-width:0px;"/><path id="q" d="M165,137.32c5.49-.25,3.27,7.16,3.7,11.98h-1.98v-7.47c0-1.91-.49-3.02-2.41-2.96-4.44.12-2.72,6.3-3.02,10.43h-1.98l-.06-11.73h1.85c.06.62-.06,1.48.12,1.98.68-1.36,1.79-2.16,3.77-2.22" style="fill:#3a414a; stroke-width:0px;"/><path id="r" d="M181.05,137.57c-.62,7.72,2.53,18.09-6.79,16.11-1.42-.37-2.35-1.23-2.72-2.65l1.98-.31c.93,2.9,6.17,1.98,5.49-1.73v-1.85c-.68,1.3-1.79,2.22-3.77,2.22-3.33,0-4.2-2.53-4.2-5.93s.99-5.99,4.38-6.05c1.79-.06,2.96.99,3.64,2.16.06-.62,0-1.42.12-1.98h1.85ZM175.93,147.94c2.22,0,3.09-1.98,3.09-4.51s-.86-4.63-3.09-4.63c-2.41,0-2.84,2.1-2.84,4.63s.37,4.51,2.84,4.51" style="fill:#3a414a; stroke-width:0px;"/></g><g id="s"><path id="t" d="M194.82,137.32c3.83-.06,5.25,2.28,5.25,6.11.06,3.89-1.67,6.11-5.31,6.11s-5.12-2.41-5.19-6.11c0-4.07,1.73-6.11,5.25-6.11ZM194.76,148.06c2.72.06,3.27-1.91,3.27-4.63s-.49-4.63-3.15-4.63-3.27,1.98-3.27,4.63.62,4.57,3.15,4.63" style="fill:#3a414a; stroke-width:0px;"/><path id="u" d="M206.18,149.54c-5.49.25-3.33-7.16-3.77-11.98h1.98v7.41c0,1.91.43,3.09,2.41,3.02,4.44-.12,2.78-6.23,3.09-10.43h1.91l.06,11.73h-1.85c-.06-.62.06-1.54-.12-2.04-.68,1.36-1.73,2.22-3.7,2.28" style="fill:#3a414a; stroke-width:0px;"/><path id="v" d="M216.98,146.39c-.12,1.48,1.11,1.79,2.35,1.36v1.48c-2.04.62-4.32.31-4.32-2.41v-7.84h-1.36v-1.42h1.48l.56-2.65h1.3v2.65h2.16v1.42h-2.16v7.41" style="fill:#3a414a; stroke-width:0px;"/></g><g id="w"><path id="x" d="M231.85,137.32c3.83-.06,5.25,2.28,5.25,6.11.06,3.89-1.67,6.11-5.31,6.11s-5.12-2.41-5.19-6.11c0-4.07,1.73-6.11,5.25-6.11ZM231.79,148.06c2.72.06,3.27-1.91,3.27-4.63s-.49-4.63-3.15-4.63-3.27,1.98-3.27,4.63.62,4.57,3.15,4.63" style="fill:#3a414a; stroke-width:0px;"/><path id="y" d="M244.26,134.85c-1.91-.56-2.59.62-2.35,2.72h2.35v1.42h-2.35v10.31h-1.91v-10.31h-1.67v-1.42h1.67c-.43-3.21,1.05-5.06,4.26-4.2v1.48" style="fill:#3a414a; stroke-width:0px;"/></g><g id="z"><path id="aa" d="M134.51,173.74c-.93,1.3-1.91,2.53-4.2,2.47-2.22-.06-3.58-1.3-3.58-3.52-.06-3.95,3.89-3.89,7.72-3.89.19-2.16-.56-3.33-2.53-3.33-1.48.06-2.53.43-2.59,1.91l-2.04-.19c.31-2.28,2.04-3.21,4.69-3.21s4.44,1.23,4.44,3.95v5.06c-.06,1.23.43,1.98,1.73,1.67v1.23c-1.91.56-3.77-.12-3.64-2.16ZM128.77,172.69c0,1.23.74,2.04,1.98,2.04,2.53-.19,3.89-1.79,3.7-4.57-2.65.12-5.68-.31-5.68,2.53" style="fill:#3a414a; stroke-width:0px;"/><path id="ab" d="M139.63,175.96v-16.11h1.98v16.11h-1.98" style="fill:#3a414a; stroke-width:0px;"/><path id="ac" d="M144.51,161.7v-1.85h1.98v1.85h-1.98ZM144.51,175.96v-11.73h1.98v11.73h-1.98" style="fill:#3a414a; stroke-width:0px;"/><path id="ad" d="M158.83,164.23c-.62,7.72,2.53,18.09-6.79,16.11-1.42-.37-2.35-1.23-2.72-2.65l1.98-.31c.93,2.9,6.17,1.98,5.49-1.73v-1.85c-.68,1.3-1.79,2.22-3.77,2.22-3.33,0-4.2-2.53-4.2-5.93s.99-5.99,4.38-6.05c1.79-.06,2.96.99,3.64,2.16.06-.62,0-1.42.12-1.98h1.85ZM153.71,174.6c2.22,0,3.09-1.98,3.09-4.51s-.86-4.63-3.09-4.63c-2.41,0-2.84,2.1-2.84,4.63s.37,4.51,2.84,4.51" style="fill:#3a414a; stroke-width:0px;"/><path id="ae" d="M167.47,163.99c5.49-.25,3.27,7.16,3.7,11.98h-1.98v-7.47c0-1.91-.49-3.02-2.41-2.96-4.44.12-2.72,6.3-3.02,10.43h-1.98l-.06-11.73h1.85c.06.62-.06,1.48.12,1.98.68-1.36,1.79-2.16,3.77-2.22" style="fill:#3a414a; stroke-width:0px;"/><path id="af" d="M185.56,165.53c-4.14.19-2.35,6.48-2.72,10.43h-1.91v-7.47c0-1.79-.31-3.09-2.16-2.96-4.07.25-2.35,6.42-2.72,10.43h-1.91l-.06-11.73h1.85c.06.62-.06,1.48.12,1.98.62-2.72,6.11-3.09,6.6,0,.68-1.3,1.67-2.16,3.58-2.22,5.25-.12,2.9,7.35,3.4,11.98h-1.91v-7.47c0-1.79-.31-3.02-2.16-2.96" style="fill:#3a414a; stroke-width:0px;"/><path id="ag" d="M197.23,163.99c3.89,0,5.31,2.59,5.19,6.54h-8.33c0,2.47.86,4.14,3.27,4.2,1.6.06,2.65-.74,3.02-1.79l1.73.49c-.68,1.73-2.28,2.78-4.75,2.78-3.58,0-5.43-2.28-5.37-6.17.06-3.77,1.6-6.05,5.25-6.05ZM200.44,168.99c.37-3.7-4.69-4.75-5.99-1.73-.19.43-.37,1.05-.37,1.73h6.36" style="fill:#3a414a; stroke-width:0px;"/><path id="ah" d="M210.62,163.99c5.49-.25,3.27,7.16,3.7,11.98h-1.98v-7.47c0-1.91-.49-3.02-2.41-2.96-4.44.12-2.72,6.3-3.02,10.43h-1.98l-.06-11.73h1.85c.06.62-.06,1.48.12,1.98.68-1.36,1.79-2.16,3.77-2.22" style="fill:#3a414a; stroke-width:0px;"/><path id="ai" d="M219.39,173.06c-.12,1.48,1.11,1.79,2.35,1.36v1.48c-2.04.62-4.32.31-4.32-2.41v-7.84h-1.36v-1.42h1.48l.56-2.65h1.3v2.65h2.16v1.42h-2.16v7.41" style="fill:#3a414a; stroke-width:0px;"/></g><path d="M173.86,47.1v22.12" style="fill:none; stroke:#3a414a;"/><path d="M173.84,46.6l.52-.02v.53h-1v-.56l.48.05Z" style="fill:#3a414a; stroke:#3a414a; stroke-width:.05px;"/><path d="M173.86,83.98l-4.63-14.26h9.27l-4.64,14.26Z" style="fill:#3a414a; stroke:#3a414a;"/><path d="M174.36,240.58l.07.88.2.84.33.8.45.73.56.66.67.55.73.45.8.33.84.2.88.07h137.96l.88-.07.84-.2.8-.33.73-.45.66-.56.55-.67.45-.73.33-.8.2-.84.07-.88v-16.35h1v16.4l-.08,1-.24.98-.4.95-.52.87-.66.78-.78.66-.87.53-.94.38-.98.24-1,.08h-138.04l-1-.08-1-.24-.93-.4-.87-.52-.78-.66-.66-.78-.53-.87-.38-.94-.24-.98-.08-1v-33.51h1l-.02,33.48ZM318.88,145.68l1,.24.93.4.87.52.78.66.66.78.53.87.38.94.24.98.08,1v29.48h-1v-29.44l-.07-.88-.2-.84-.33-.8-.45-.73-.56-.66-.67-.55-.73-.45-.8-.33-.84-.2-.88-.07h-47.1v-1h47.14l1.02.08Z" style="fill:#3a414a; stroke:#3a414a; stroke-width:.05px;"/><path d="M174.36,207.1h-1v-.5h1v.5Z" style="fill:#3a414a; stroke-width:0px;"/><path d="M174.39,207.14h-1.06v-.56h1.06v.56ZM173.39,206.62v.47h.94v-.48h-.94Z" style="fill:#3a414a; stroke:#3a414a; stroke-width:.05px;"/><path d="M270.24,150.74l-14.26-4.64,14.26-4.64v9.28Z" style="fill:#3a414a; stroke-width:0px;"/><path d="M270.74,151.42l-16.38-5.32,16.38-5.32v10.64ZM257.6,146.1l12.14,3.95v-7.9l-12.14,3.95Z" style="fill:#3a414a; stroke:#3a414a; stroke-width:.05px;"/><g id="aj"><path id="ak" d="M273.76,195.78v-12.25h2.57v12.25h-2.57" style="fill:#333; stroke-width:0px;"/><path id="al" d="M283.49,184.62c-1.33-.35-2.12.25-1.88,1.78h1.88v1.63h-1.88v7.75h-2.42v-7.75h-1.38v-1.63h1.38c-.44-2.91,1.58-4,4.3-3.36v1.58" style="fill:#333; stroke-width:0px;"/></g><g id="am"><path id="an" d="M295,186.2c4.3-.05,2.86,5.58,3.11,9.58h-2.47c-.35-2.81,1.14-7.75-1.68-7.75s-1.68,4.79-1.93,7.75h-2.47l-.05-9.38h2.32c.1.59-.05,1.38.15,1.88.59-1.28,1.38-2.02,3.01-2.07" style="fill:#333; stroke-width:0px;"/><path id="ao" d="M304.58,186.2c3.16,0,4.74,1.78,4.74,4.89s-1.73,4.89-4.79,4.89-4.69-1.78-4.69-4.89,1.68-4.89,4.74-4.89ZM304.53,194.3c1.73,0,2.22-1.38,2.22-3.21,0-1.98-.49-3.21-2.12-3.21s-2.22,1.28-2.22,3.21c0,1.78.49,3.21,2.12,3.21" style="fill:#333; stroke-width:0px;"/><path id="ap" d="M315.64,195.63c-1.78.69-4.3.35-4.3-2.07v-5.53h-1.19v-1.63h1.33l.74-2.22h1.53v2.22h1.78v1.63h-1.78v4.89c-.05,1.14.79,1.53,1.88,1.23v1.48" style="fill:#333; stroke-width:0px;"/></g><g id="aq"><path id="ar" d="M283.44,209.36c-2.62.44-1.38,4.94-1.68,7.75h-2.42v-5.28c.05-1.33-.25-2.42-1.43-2.47-2.62.49-1.33,4.94-1.63,7.75h-2.47l-.05-9.38h2.32c.1.59-.05,1.38.15,1.88.49-2.62,4.99-2.77,5.33,0,.64-1.09,1.19-2.12,2.91-2.07,4.05.05,2.52,5.73,2.81,9.58h-2.42v-5.28c-.05-1.23-.25-2.37-1.43-2.47" style="fill:#333; stroke-width:0px;"/><path id="as" d="M289.61,206.05v-1.83h2.47v1.83h-2.47ZM289.61,217.12v-9.38h2.47v9.38h-2.47" style="fill:#333; stroke-width:0px;"/><path id="at" d="M300.08,210.3c.05-1.43-3.46-1.68-3.51-.2.74,2.27,5.83.35,5.88,4.25.05,4.1-8.1,3.75-8.49.44l2.12-.35c.2.94.99,1.23,2.17,1.23,1.63.4,2.81-1.48,1.19-2.02-2.12-.69-5.04-.54-5.14-3.26-.1-3.95,7.6-3.65,7.95-.35" style="fill:#333; stroke-width:0px;"/><path id="au" d="M309.96,210.3c.05-1.43-3.46-1.68-3.51-.2.74,2.27,5.83.35,5.88,4.25.05,4.1-8.1,3.75-8.49.44l2.12-.35c.2.94.99,1.23,2.17,1.23,1.63.4,2.81-1.48,1.19-2.02-2.12-.69-5.04-.54-5.14-3.26-.1-3.95,7.6-3.65,7.95-.35" style="fill:#333; stroke-width:0px;"/><path id="av" d="M319.64,215.44c-.79.94-1.48,1.93-3.16,1.88-1.83-.05-2.86-.99-2.86-2.86-.05-2.96,2.72-3.11,5.73-3.01.05-1.28-.15-2.32-1.38-2.32-.89.05-1.28.44-1.38,1.33l-2.57-.1c.35-1.88,1.78-2.86,4.05-2.81s3.65,1.09,3.7,3.36l.05,4.05c-.05.69.59.89,1.23.74v1.33c-1.48.4-3.51.25-3.41-1.58ZM317.27,215.58c1.43,0,2.12-1.19,2.07-2.81-1.58,0-3.26-.15-3.21,1.48,0,.84.4,1.33,1.14,1.33" style="fill:#333; stroke-width:0px;"/><path id="aw" d="M324.18,217.12v-12.89h2.47v12.89h-2.47" style="fill:#333; stroke-width:0px;"/><path id="ax" d="M329.12,206.05v-1.83h2.47v1.83h-2.47ZM329.12,217.12v-9.38h2.47v9.38h-2.47" style="fill:#333; stroke-width:0px;"/><path id="ay" d="M342.45,216.82c.54,4.35-5.93,5.23-8.1,2.57-.2-.3-.3-.64-.4-1.04l2.42-.3c.15.79.79,1.19,1.68,1.23,1.98,0,2.07-1.83,1.98-3.9-.54,1.09-1.48,1.73-3.01,1.73-2.62,0-3.46-2.12-3.46-4.79s.89-4.74,3.6-4.79c1.48,0,2.27.69,2.91,1.68l.1-1.48h2.32l-.05,9.09ZM338.01,215.39c1.58,0,2.02-1.33,2.02-3.11s-.44-3.06-1.98-3.06-1.93,1.43-1.98,3.11c0,1.78.44,3.06,1.93,3.06" style="fill:#333; stroke-width:0px;"/><path id="az" d="M350.31,207.54c4.3-.05,2.86,5.58,3.11,9.58h-2.47c-.35-2.81,1.14-7.75-1.68-7.75s-1.68,4.79-1.93,7.75h-2.47l-.05-9.38h2.32c.1.59-.05,1.38.15,1.88.59-1.28,1.38-2.02,3.01-2.07" style="fill:#333; stroke-width:0px;"/><path id="ba" d="M363.59,214.75c-.64,1.48-1.83,2.62-4.05,2.57-2.96-.1-4.4-1.83-4.4-4.94s1.48-4.84,4.44-4.84,4.1,2.22,4.15,5.33h-6.02c0,1.53.4,2.72,1.93,2.77.89,0,1.48-.35,1.68-1.09l2.27.2ZM361.37,211.34c.25-2.27-2.81-3.11-3.46-1.04-.1.3-.2.64-.2,1.04h3.65" style="fill:#333; stroke-width:0px;"/><path id="bb" d="M368.68,207.54c1.53-.05,2.27.74,2.86,1.68l-.05-4.99h2.47l.05,12.89h-2.37c-.1-.49,0-1.14-.15-1.53-.54,1.14-1.43,1.73-3.01,1.73-2.57,0-3.36-2.22-3.41-4.89,0-2.77.94-4.79,3.6-4.89ZM369.52,215.63c1.63,0,1.98-1.48,2.02-3.26.05-1.83-.44-3.16-2.02-3.16s-1.88,1.48-1.93,3.21c0,2.12.64,3.21,1.93,3.21" style="fill:#333; stroke-width:0px;"/></g><path d="M93.86,372.1c0-3.31,2.69-6,6-6h148c3.31,0,6,2.69,6,6v108c0,3.31-2.69,6-6,6H99.86c-3.31,0-6-2.69-6-6v-108Z" style="fill:#fff; stroke:#3a414a;"/><g id="bc"><path id="bd" d="M146.89,381.27c-.62-1.73-2.16-2.78-4.51-2.78-3.64,0-5.37,2.47-5.37,6.11s1.79,6.23,5.49,6.23c2.65,0,3.83-1.48,4.81-3.21l1.67.86c-1.11,2.35-3.15,4.07-6.6,4.07-4.94,0-7.22-3.09-7.47-7.96-.37-6.42,6.11-9.44,11.54-6.85,1.17.56,1.91,1.6,2.41,2.84" style="fill:#3a414a; stroke-width:0px;"/><path id="be" d="M156.33,381.88c-4.44,0-2.72,6.3-3.02,10.43h-1.98v-16.11h1.98l-.06,6.36c.74-1.3,1.73-2.22,3.77-2.22,5.49,0,3.27,7.16,3.7,11.98h-1.98v-7.47c.12-1.98-.49-3.02-2.41-2.96" style="fill:#3a414a; stroke-width:0px;"/><path id="bf" d="M168.31,380.34c3.89,0,5.31,2.59,5.19,6.54h-8.33c0,2.47.86,4.14,3.27,4.2,1.6.06,2.65-.74,3.02-1.79l1.73.49c-.68,1.73-2.28,2.78-4.75,2.78-3.58,0-5.43-2.28-5.37-6.17.06-3.77,1.6-6.05,5.25-6.05ZM171.52,385.34c.37-3.7-4.69-4.75-5.99-1.73-.19.43-.37,1.05-.37,1.73h6.36" style="fill:#3a414a; stroke-width:0px;"/><path id="bg" d="M180.4,381.88c-2.47,0-2.96,2.04-2.96,4.51s.56,4.63,2.96,4.63c1.48,0,2.53-.86,2.65-2.35l1.98.12c-.37,2.28-1.91,3.77-4.57,3.77-3.64,0-4.69-2.53-5.06-6.11-.62-5.74,6.23-8.09,9.07-3.95.25.43.31.86.43,1.36l-1.98.19c-.25-1.3-.99-2.16-2.53-2.16" style="fill:#3a414a; stroke-width:0px;"/><path id="bh" d="M194.42,392.32l-3.95-5.37-1.42,1.17v4.2h-1.98v-16.11h1.98v10.06l5.12-5.68h2.28l-4.75,5.06,5.06,6.67h-2.35" style="fill:#3a414a; stroke-width:0px;"/></g><g id="bi"><path id="bj" d="M204.35,378.06v-1.85h1.98v1.85h-1.98ZM204.35,392.32v-11.73h1.98v11.73h-1.98" style="fill:#3a414a; stroke-width:0px;"/><path id="bk" d="M213.98,377.87c-1.91-.56-2.59.62-2.35,2.72h2.35v1.42h-2.35v10.31h-1.91v-10.31h-1.67v-1.42h1.67c-.43-3.21,1.05-5.06,4.26-4.2v1.48" style="fill:#3a414a; stroke-width:0px;"/></g><g id="bl"><path id="bm" d="M123,408.92c-4.81-.99-3.27,5.62-3.52,10.06h-1.98l-.06-11.73h1.85c.06.74-.06,1.79.12,2.41.37-1.67,1.42-3.02,3.58-2.53v1.79" style="fill:#3a414a; stroke-width:0px;"/><path id="bn" d="M129.48,407.01c3.89,0,5.31,2.59,5.19,6.54h-8.33c0,2.47.86,4.14,3.27,4.2,1.6.06,2.65-.74,3.02-1.79l1.73.49c-.68,1.73-2.28,2.78-4.75,2.78-3.58,0-5.43-2.28-5.37-6.17.06-3.77,1.6-6.05,5.25-6.05ZM132.69,412.01c.37-3.7-4.69-4.75-5.99-1.73-.19.43-.37,1.05-.37,1.73h6.36" style="fill:#3a414a; stroke-width:0px;"/><path id="bo" d="M144.35,416.76c-.93,1.3-1.91,2.53-4.2,2.47-2.22-.06-3.58-1.3-3.58-3.52-.06-3.95,3.89-3.89,7.72-3.89.19-2.16-.56-3.33-2.53-3.33-1.48.06-2.53.43-2.59,1.91l-2.04-.19c.31-2.28,2.04-3.21,4.69-3.21s4.44,1.23,4.44,3.95v5.06c-.06,1.23.43,1.98,1.73,1.67v1.23c-1.91.56-3.77-.12-3.64-2.16ZM138.61,415.71c0,1.23.74,2.04,1.98,2.04,2.53-.19,3.89-1.79,3.7-4.57-2.65.12-5.68-.31-5.68,2.53" style="fill:#3a414a; stroke-width:0px;"/><path id="bp" d="M149.48,418.98v-16.11h1.98v16.11h-1.98" style="fill:#3a414a; stroke-width:0px;"/><path id="bq" d="M154.35,404.72v-1.85h1.98v1.85h-1.98ZM154.35,418.98v-11.73h1.98v11.73h-1.98" style="fill:#3a414a; stroke-width:0px;"/><path id="br" d="M168.68,407.25c-.62,7.72,2.53,18.09-6.79,16.11-1.42-.37-2.35-1.23-2.72-2.65l1.98-.31c.93,2.9,6.17,1.98,5.49-1.73v-1.85c-.68,1.3-1.79,2.22-3.77,2.22-3.33,0-4.2-2.53-4.2-5.93s.99-5.99,4.38-6.05c1.79-.06,2.96.99,3.64,2.16.06-.62,0-1.42.12-1.98h1.85ZM163.55,417.62c2.22,0,3.09-1.98,3.09-4.51s-.86-4.63-3.09-4.63c-2.41,0-2.84,2.1-2.84,4.63s.37,4.51,2.84,4.51" style="fill:#3a414a; stroke-width:0px;"/><path id="bs" d="M177.32,407.01c5.49-.25,3.27,7.16,3.7,11.98h-1.98v-7.47c0-1.91-.49-3.02-2.41-2.96-4.44.12-2.72,6.3-3.02,10.43h-1.98l-.06-11.73h1.85c.06.62-.06,1.48.12,1.98.68-1.36,1.79-2.16,3.77-2.22" style="fill:#3a414a; stroke-width:0px;"/><path id="bt" d="M195.4,408.55c-4.14.19-2.35,6.48-2.72,10.43h-1.91v-7.47c0-1.79-.31-3.09-2.16-2.96-4.07.25-2.35,6.42-2.72,10.43h-1.91l-.06-11.73h1.85c.06.62-.06,1.48.12,1.98.62-2.72,6.11-3.09,6.6,0,.68-1.3,1.67-2.16,3.58-2.22,5.25-.12,2.9,7.35,3.4,11.98h-1.91v-7.47c0-1.79-.31-3.02-2.16-2.96" style="fill:#3a414a; stroke-width:0px;"/><path id="bu" d="M207.07,407.01c3.89,0,5.31,2.59,5.19,6.54h-8.33c0,2.47.86,4.14,3.27,4.2,1.6.06,2.65-.74,3.02-1.79l1.73.49c-.68,1.73-2.28,2.78-4.75,2.78-3.58,0-5.43-2.28-5.37-6.17.06-3.77,1.6-6.05,5.25-6.05ZM210.28,412.01c.37-3.7-4.69-4.75-5.99-1.73-.19.43-.37,1.05-.37,1.73h6.36" style="fill:#3a414a; stroke-width:0px;"/><path id="bv" d="M220.47,407.01c5.49-.25,3.27,7.16,3.7,11.98h-1.98v-7.47c0-1.91-.49-3.02-2.41-2.96-4.44.12-2.72,6.3-3.02,10.43h-1.98l-.06-11.73h1.85c.06.62-.06,1.48.12,1.98.68-1.36,1.79-2.16,3.77-2.22" style="fill:#3a414a; stroke-width:0px;"/><path id="bw" d="M229.23,416.08c-.12,1.48,1.11,1.79,2.35,1.36v1.48c-2.04.62-4.32.31-4.32-2.41v-7.84h-1.36v-1.42h1.48l.56-2.65h1.3v2.65h2.16v1.42h-2.16v7.41" style="fill:#3a414a; stroke-width:0px;"/></g><g id="bx"><path id="by" d="M134.08,436.82c-.19-2.1-5.31-2.35-5.37,0,.93,3.27,7.1.74,7.35,5.56s-9.26,4.57-9.69.49l1.73-.31c.25,2.22,5.99,2.78,6.05,0-.62-3.46-6.98-.93-7.28-5.56-.25-3.52,5.06-3.89,7.53-2.59.74.43,1.3,1.17,1.48,2.16" style="fill:#3a414a; stroke-width:0px;"/><path id="bz" d="M143.4,435.22c-4.44,0-2.72,6.3-3.02,10.43h-1.98v-16.11h1.98l-.06,6.36c.74-1.3,1.73-2.22,3.77-2.22,5.49,0,3.27,7.16,3.7,11.98h-1.98v-7.47c.12-1.98-.49-3.02-2.41-2.96" style="fill:#3a414a; stroke-width:0px;"/><path id="ca" d="M155.37,433.67c3.83-.06,5.25,2.28,5.25,6.11.06,3.89-1.67,6.11-5.31,6.11s-5.12-2.41-5.19-6.11c0-4.07,1.73-6.11,5.25-6.11ZM155.31,444.41c2.72.06,3.27-1.91,3.27-4.63s-.49-4.63-3.15-4.63-3.27,1.98-3.27,4.63.62,4.57,3.15,4.63" style="fill:#3a414a; stroke-width:0px;"/><path id="cb" d="M166.73,445.9c-5.49.25-3.33-7.16-3.77-11.98h1.98v7.41c0,1.91.43,3.09,2.41,3.02,4.44-.12,2.78-6.23,3.09-10.43h1.91l.06,11.73h-1.85c-.06-.62.06-1.54-.12-2.04-.68,1.36-1.73,2.22-3.7,2.28" style="fill:#3a414a; stroke-width:0px;"/><path id="cc" d="M175.37,445.65v-16.11h1.98v16.11h-1.98" style="fill:#3a414a; stroke-width:0px;"/><path id="cd" d="M184.02,433.67c1.91,0,2.96.8,3.7,2.04l-.06-6.17h1.98l.06,16.11h-1.85c-.12-.62,0-1.42-.19-1.91-.62,1.42-1.73,2.16-3.64,2.16-3.27,0-4.26-2.41-4.32-6.05,0-4.07,1.42-6.17,4.32-6.17ZM184.57,435.16c-2.47,0-2.84,2.1-2.84,4.63s.37,4.57,2.78,4.57c2.59,0,3.15-1.98,3.15-4.69s-.56-4.57-3.09-4.51" style="fill:#3a414a; stroke-width:0px;"/></g><g id="ce"><path id="cf" d="M204.39,433.67c3.27,0,4.26,2.41,4.32,6.05,0,4.07-1.42,6.17-4.32,6.17-1.91-.06-3.02-.68-3.64-2.1l-.12,1.85h-1.91l.06-16.11h1.98v6.23c.62-1.42,1.73-2.1,3.64-2.1ZM203.89,444.41c2.47,0,2.78-2.1,2.78-4.63s-.31-4.63-2.78-4.57c-2.59,0-3.15,1.98-3.15,4.69s.62,4.51,3.15,4.51" style="fill:#3a414a; stroke-width:0px;"/><path id="cg" d="M215.81,433.67c3.89,0,5.31,2.59,5.19,6.54h-8.33c0,2.47.86,4.14,3.27,4.2,1.6.06,2.65-.74,3.02-1.79l1.73.49c-.68,1.73-2.28,2.78-4.75,2.78-3.58,0-5.43-2.28-5.37-6.17.06-3.77,1.6-6.05,5.25-6.05ZM219.02,438.67c.37-3.7-4.69-4.75-5.99-1.73-.19.43-.37,1.05-.37,1.73h6.36" style="fill:#3a414a; stroke-width:0px;"/></g><g id="ch"><path id="ci" d="M130.44,460.34c3.4.06,4.32,2.53,4.32,6.05s-.99,6.05-4.32,6.17c-1.91,0-3.02-.8-3.7-2.1l.06,6.48h-1.98l-.06-16.36h1.91l.12,1.85c.62-1.3,1.73-2.1,3.64-2.1ZM129.94,471.08c2.47,0,2.78-2.1,2.78-4.63s-.37-4.51-2.78-4.57c-2.59,0-3.15,1.98-3.15,4.69s.62,4.51,3.15,4.51" style="fill:#3a414a; stroke-width:0px;"/><path id="cj" d="M141.85,460.34c3.89,0,5.31,2.59,5.19,6.54h-8.33c0,2.47.86,4.14,3.27,4.2,1.6.06,2.65-.74,3.02-1.79l1.73.49c-.68,1.73-2.28,2.78-4.75,2.78-3.58,0-5.43-2.28-5.37-6.17.06-3.77,1.6-6.05,5.25-6.05ZM145.06,465.34c.37-3.7-4.69-4.75-5.99-1.73-.19.43-.37,1.05-.37,1.73h6.36" style="fill:#3a414a; stroke-width:0px;"/><path id="ck" d="M155.06,462.25c-4.81-.99-3.27,5.62-3.52,10.06h-1.98l-.06-11.73h1.85c.06.74-.06,1.79.12,2.41.37-1.67,1.42-3.02,3.58-2.53v1.79" style="fill:#3a414a; stroke-width:0px;"/><path id="cl" d="M161.61,457.87c-1.91-.56-2.59.62-2.35,2.72h2.35v1.42h-2.35v10.31h-1.91v-10.31h-1.67v-1.42h1.67c-.43-3.21,1.05-5.06,4.26-4.2v1.48" style="fill:#3a414a; stroke-width:0px;"/><path id="cm" d="M167.72,460.34c3.83-.06,5.25,2.28,5.25,6.11.06,3.89-1.67,6.11-5.31,6.11s-5.12-2.41-5.19-6.11c0-4.07,1.73-6.11,5.25-6.11ZM167.66,471.08c2.72.06,3.27-1.91,3.27-4.63s-.49-4.63-3.15-4.63-3.27,1.98-3.27,4.63.62,4.57,3.15,4.63" style="fill:#3a414a; stroke-width:0px;"/><path id="cn" d="M180.93,462.25c-4.81-.99-3.27,5.62-3.52,10.06h-1.98l-.06-11.73h1.85c.06.74-.06,1.79.12,2.41.37-1.67,1.42-3.02,3.58-2.53v1.79" style="fill:#3a414a; stroke-width:0px;"/><path id="co" d="M194.2,461.88c-4.14.19-2.35,6.48-2.72,10.43h-1.91v-7.47c0-1.79-.31-3.09-2.16-2.96-4.07.25-2.35,6.42-2.72,10.43h-1.91l-.06-11.73h1.85c.06.62-.06,1.48.12,1.98.62-2.72,6.11-3.09,6.6,0,.68-1.3,1.67-2.16,3.58-2.22,5.25-.12,2.9,7.35,3.4,11.98h-1.91v-7.47c0-1.79-.31-3.02-2.16-2.96" style="fill:#3a414a; stroke-width:0px;"/><path id="cp" d="M205.87,460.34c3.89,0,5.31,2.59,5.19,6.54h-8.33c0,2.47.86,4.14,3.27,4.2,1.6.06,2.65-.74,3.02-1.79l1.73.49c-.68,1.73-2.28,2.78-4.75,2.78-3.58,0-5.43-2.28-5.37-6.17.06-3.77,1.6-6.05,5.25-6.05ZM209.08,465.34c.37-3.7-4.69-4.75-5.99-1.73-.19.43-.37,1.05-.37,1.73h6.36" style="fill:#3a414a; stroke-width:0px;"/><path id="cq" d="M217.29,460.34c1.91,0,2.96.8,3.7,2.04l-.06-6.17h1.98l.06,16.11h-1.85c-.12-.62,0-1.42-.19-1.91-.62,1.42-1.73,2.16-3.64,2.16-3.27,0-4.26-2.41-4.32-6.05,0-4.07,1.42-6.17,4.32-6.17ZM217.84,461.82c-2.47,0-2.84,2.1-2.84,4.63s.37,4.57,2.78,4.57c2.59,0,3.15-1.98,3.15-4.69s-.56-4.57-3.09-4.51" style="fill:#3a414a; stroke-width:0px;"/></g><path d="M174.36,349.22h-1v-37.75h1v37.75ZM174.36,290.14h-1v-83.04h1v83.04Z" style="fill:#3a414a; stroke:#3a414a; stroke-width:.05px;"/><path d="M174.36,207.1h-1v-.5h1v.5Z" style="fill:#3a414a; stroke-width:0px;"/><path d="M174.39,207.14h-1.06v-.56h1.06v.56ZM173.39,206.62v.47h.94v-.48h-.94Z" style="fill:#3a414a; stroke:#3a414a; stroke-width:.05px;"/><path d="M173.86,363.98l-4.63-14.26h9.27l-4.64,14.26Z" style="fill:#3a414a; stroke-width:0px;"/><path d="M173.86,365.6l-5.32-16.38h10.64l-5.32,16.38ZM169.91,350.22l3.95,12.14,3.95-12.14h-7.9Z" style="fill:#3a414a; stroke:#3a414a; stroke-width:.05px;"/><g id="cr"><path id="cs" d="M115.89,304.36v-12.25h2.57v12.25h-2.57" style="fill:#333; stroke-width:0px;"/><path id="ct" d="M125.61,293.2c-1.33-.35-2.12.25-1.88,1.78h1.88v1.63h-1.88v7.75h-2.42v-7.75h-1.38v-1.63h1.38c-.44-2.91,1.58-4,4.3-3.36v1.58" style="fill:#333; stroke-width:0px;"/></g><g id="cu"><path id="cv" d="M141.32,296.61c-2.62.44-1.38,4.94-1.68,7.75h-2.42v-5.28c.05-1.33-.25-2.42-1.43-2.47-2.62.49-1.33,4.94-1.63,7.75h-2.47l-.05-9.38h2.32c.1.59-.05,1.38.15,1.88.49-2.62,4.99-2.77,5.33,0,.64-1.09,1.19-2.12,2.91-2.07,4.05.05,2.52,5.73,2.81,9.58h-2.42v-5.28c-.05-1.23-.25-2.37-1.43-2.47" style="fill:#333; stroke-width:0px;"/><path id="cw" d="M147.49,293.3v-1.83h2.47v1.83h-2.47ZM147.49,304.36v-9.38h2.47v9.38h-2.47" style="fill:#333; stroke-width:0px;"/><path id="cx" d="M157.96,297.55c.05-1.43-3.46-1.68-3.51-.2.74,2.27,5.83.35,5.88,4.25.05,4.1-8.1,3.75-8.49.44l2.12-.35c.2.94.99,1.23,2.17,1.23,1.63.4,2.81-1.48,1.19-2.02-2.12-.69-5.04-.54-5.14-3.26-.1-3.95,7.6-3.65,7.95-.35" style="fill:#333; stroke-width:0px;"/><path id="cy" d="M167.84,297.55c.05-1.43-3.46-1.68-3.51-.2.74,2.27,5.83.35,5.88,4.25.05,4.1-8.1,3.75-8.49.44l2.12-.35c.2.94.99,1.23,2.17,1.23,1.63.4,2.81-1.48,1.19-2.02-2.12-.69-5.04-.54-5.14-3.26-.1-3.95,7.6-3.65,7.95-.35" style="fill:#333; stroke-width:0px;"/><path id="cz" d="M177.52,302.68c-.79.94-1.48,1.93-3.16,1.88-1.83-.05-2.86-.99-2.86-2.86-.05-2.96,2.72-3.11,5.73-3.01.05-1.28-.15-2.32-1.38-2.32-.89.05-1.28.44-1.38,1.33l-2.57-.1c.35-1.88,1.78-2.86,4.05-2.81s3.65,1.09,3.7,3.36l.05,4.05c-.05.69.59.89,1.23.74v1.33c-1.48.4-3.51.25-3.41-1.58ZM175.14,302.83c1.43,0,2.12-1.19,2.07-2.81-1.58,0-3.26-.15-3.21,1.48,0,.84.4,1.33,1.14,1.33" style="fill:#333; stroke-width:0px;"/><path id="da" d="M182.06,304.36v-12.89h2.47v12.89h-2.47" style="fill:#333; stroke-width:0px;"/><path id="db" d="M187,293.3v-1.83h2.47v1.83h-2.47ZM187,304.36v-9.38h2.47v9.38h-2.47" style="fill:#333; stroke-width:0px;"/><path id="dc" d="M200.33,304.07c.54,4.35-5.93,5.23-8.1,2.57-.2-.3-.3-.64-.4-1.04l2.42-.3c.15.79.79,1.19,1.68,1.23,1.98,0,2.07-1.83,1.98-3.9-.54,1.09-1.48,1.73-3.01,1.73-2.62,0-3.46-2.12-3.46-4.79s.89-4.74,3.6-4.79c1.48,0,2.27.69,2.91,1.68l.1-1.48h2.32l-.05,9.09ZM195.89,302.63c1.58,0,2.02-1.33,2.02-3.11s-.44-3.06-1.98-3.06-1.93,1.43-1.98,3.11c0,1.78.44,3.06,1.93,3.06" style="fill:#333; stroke-width:0px;"/><path id="dd" d="M208.18,294.78c4.3-.05,2.86,5.58,3.11,9.58h-2.47c-.35-2.81,1.14-7.75-1.68-7.75s-1.68,4.79-1.93,7.75h-2.47l-.05-9.38h2.32c.1.59-.05,1.38.15,1.88.59-1.28,1.38-2.02,3.01-2.07" style="fill:#333; stroke-width:0px;"/><path id="de" d="M221.47,301.99c-.64,1.48-1.83,2.62-4.05,2.57-2.96-.1-4.4-1.83-4.4-4.94s1.48-4.84,4.44-4.84,4.1,2.22,4.15,5.33h-6.02c0,1.53.4,2.72,1.93,2.77.89,0,1.48-.35,1.68-1.09l2.27.2ZM219.24,298.58c.25-2.27-2.81-3.11-3.46-1.04-.1.3-.2.64-.2,1.04h3.65" style="fill:#333; stroke-width:0px;"/><path id="df" d="M226.55,294.78c1.53-.05,2.27.74,2.86,1.68l-.05-4.99h2.47l.05,12.89h-2.37c-.1-.49,0-1.14-.15-1.53-.54,1.14-1.43,1.73-3.01,1.73-2.57,0-3.36-2.22-3.41-4.89,0-2.77.94-4.79,3.6-4.89ZM227.39,302.88c1.63,0,1.98-1.48,2.02-3.26.05-1.83-.44-3.16-2.02-3.16s-1.88,1.48-1.93,3.21c0,2.12.64,3.21,1.93,3.21" style="fill:#333; stroke-width:0px;"/></g><path d="M253.86,372.1c0-3.31,2.69-6,6-6h228c3.31,0,6,2.69,6,6v108c0,3.31-2.69,6-6,6h-228c-3.31,0-6-2.69-6-6v-108Z" style="fill:none; stroke-width:0px;"/><g id="dg"><path id="dh" d="M280.99,390.54l-5.74-13.15-2.41,13.15h-1.85l2.96-15.31h2.28l5.8,13.21,2.47-13.21h1.85l-2.96,15.31h-2.41" style="fill:#3a414a; stroke-width:0px;"/><path id="di" d="M288.15,381.47c1.91-3.95,10.25-4.01,9.81,1.67-.37,4.38-1.91,7.47-6.36,7.65-4.75.25-5.25-5.68-3.46-9.32ZM291.73,389.31c3.27,0,4.2-2.96,4.2-6.17,0-1.91-.68-3.15-2.72-3.09-3.21.06-4.2,2.84-4.2,5.99,0,1.98.8,3.27,2.72,3.27" style="fill:#3a414a; stroke-width:0px;"/><path id="dj" d="M301.79,387.21c-.56,1.36.31,2.53,1.91,1.85l-.19,1.42c-2.22.93-4.26-.19-3.7-3.15l1.36-7.1h-1.36l.31-1.42h1.36l1.17-2.65h1.3l-.56,2.65h2.16l-.25,1.42h-2.16" style="fill:#3a414a; stroke-width:0px;"/><path id="dk" d="M311.67,378.57c3.83-.19,5.31,2.9,4.44,6.54h-8.52c-.43,2.35.37,4.26,2.78,4.2,1.67-.06,2.65-.86,3.27-1.98l1.48.68c-.93,1.6-2.35,2.78-4.94,2.78-3.02-.06-4.63-1.67-4.63-4.63,0-4.32,1.98-7.35,6.11-7.59ZM314.39,383.57c.86-4.07-4.38-4.44-5.86-1.73-.25.49-.49,1.05-.68,1.73h6.54" style="fill:#3a414a; stroke-width:0px;"/><path id="dl" d="M319.88,381.04l.43-2.22h2.16l-.49,2.22h-2.1ZM318.03,390.54l.43-2.22h2.16l-.43,2.22h-2.16" style="fill:#3a414a; stroke-width:0px;"/></g><g id="dm"><path id="dn" d="M344.82,381.96c-.06,7.72-6.42,9.14-14.63,8.58l2.96-15.31c6.48-.37,11.73.49,11.67,6.73ZM342.72,381.96c.06-4.32-3.21-5.37-7.78-5.06l-2.35,11.98c6.05.43,10.06-1.3,10.12-6.91" style="fill:#3a414a; stroke-width:0px;"/><path id="do" d="M347.35,381.47c1.91-3.95,10.25-4.01,9.81,1.67-.37,4.38-1.91,7.47-6.36,7.65-4.75.25-5.25-5.68-3.46-9.32ZM350.93,389.31c3.27,0,4.2-2.96,4.2-6.17,0-1.91-.68-3.15-2.72-3.09-3.21.06-4.2,2.84-4.2,5.99,0,1.98.8,3.27,2.72,3.27" style="fill:#3a414a; stroke-width:0px;"/></g><g id="dp"><path id="dq" d="M368.15,380.79c1.36-2.96,8.15-3.21,7.16,1.79l-1.54,7.96h-1.98l1.54-8.64c.19-2.35-3.27-1.98-4.32-.74-1.79,2.16-1.85,6.17-2.65,9.38h-1.98l2.22-11.73h1.85" style="fill:#3a414a; stroke-width:0px;"/><path id="dr" d="M378.21,381.47c1.91-3.95,10.25-4.01,9.81,1.67-.37,4.38-1.91,7.47-6.36,7.65-4.75.25-5.25-5.68-3.46-9.32ZM381.79,389.31c3.27,0,4.2-2.96,4.2-6.17,0-1.91-.68-3.15-2.72-3.09-3.21.06-4.2,2.84-4.2,5.99,0,1.98.8,3.27,2.72,3.27" style="fill:#3a414a; stroke-width:0px;"/><path id="ds" d="M391.85,387.21c-.56,1.36.31,2.53,1.91,1.85l-.19,1.42c-2.22.93-4.26-.19-3.7-3.15l1.36-7.1h-1.36l.31-1.42h1.36l1.17-2.65h1.3l-.56,2.65h2.16l-.25,1.42h-2.16" style="fill:#3a414a; stroke-width:0px;"/></g><g id="dt"><path id="du" d="M405.19,380.54c1.98-3.27,8.58-2.22,7.47,3.09-.8,3.77-1.54,7.04-5.62,7.16-1.79,0-2.78-.93-3.4-2.16-.25,2.28-.86,4.32-1.23,6.54h-1.91l3.09-16.36h1.79c-.06.62,0,1.23-.19,1.73ZM410.68,382.77c0-1.6-.62-2.65-2.16-2.65-3.33,0-4.14,3.09-4.26,6.36-.06,1.79.86,2.78,2.59,2.84,3.27,0,3.83-3.58,3.83-6.54" style="fill:#3a414a; stroke-width:0px;"/><path id="dv" d="M420.25,378.57c3.83-.19,5.31,2.9,4.44,6.54h-8.52c-.43,2.35.37,4.26,2.78,4.2,1.67-.06,2.65-.86,3.27-1.98l1.48.68c-.93,1.6-2.35,2.78-4.94,2.78-3.02-.06-4.63-1.67-4.63-4.63,0-4.32,1.98-7.35,6.11-7.59ZM422.97,383.57c.86-4.07-4.38-4.44-5.86-1.73-.25.49-.49,1.05-.68,1.73h6.54" style="fill:#3a414a; stroke-width:0px;"/><path id="dw" d="M429.82,381.22c.74-1.54,1.85-3.15,4.07-2.47l-.37,1.6c-5-.68-4.2,6.17-5.43,10.19h-1.98l2.22-11.73h1.85" style="fill:#3a414a; stroke-width:0px;"/><path id="dx" d="M437.78,380.24l-1.98,10.31h-1.98l2.04-10.31h-1.67l.25-1.42h1.67c.19-2.9,1.54-5,5.06-4.26l-.25,1.48c-2.16-.49-2.72.93-2.84,2.78h2.28l-.31,1.42h-2.28" style="fill:#3a414a; stroke-width:0px;"/><path id="dy" d="M441.11,381.47c1.91-3.95,10.25-4.01,9.81,1.67-.37,4.38-1.91,7.47-6.36,7.65-4.75.25-5.25-5.68-3.46-9.32ZM444.69,389.31c3.27,0,4.2-2.96,4.2-6.17,0-1.91-.68-3.15-2.72-3.09-3.21.06-4.2,2.84-4.2,5.99,0,1.98.8,3.27,2.72,3.27" style="fill:#3a414a; stroke-width:0px;"/><path id="dz" d="M455.68,381.22c.74-1.54,1.85-3.15,4.07-2.47l-.37,1.6c-5-.68-4.2,6.17-5.43,10.19h-1.98l2.22-11.73h1.85" style="fill:#3a414a; stroke-width:0px;"/><path id="ea" d="M474.26,383.69c.37-1.48.56-3.77-1.48-3.58-4.44.56-3.52,6.67-4.75,10.43h-1.91l1.6-8.77c.19-2.28-3.09-1.85-3.95-.62-1.6,2.28-1.73,6.23-2.53,9.38h-1.91l2.22-11.73h1.85c-.06.62-.37,1.48-.25,1.98.8-2.65,6.23-3.21,6.48.31.8-1.36,1.79-2.53,3.77-2.53,5.56,0,1.73,7.96,1.42,11.98h-1.91" style="fill:#3a414a; stroke-width:0px;"/></g><g id="eb"><path id="ec" d="M263.37,407.89c.74-1.54,1.85-3.15,4.07-2.47l-.37,1.6c-5-.68-4.2,6.17-5.43,10.19h-1.98l2.22-11.73h1.85" style="fill:#3a414a; stroke-width:0px;"/><path id="ed" d="M273.49,405.24c3.83-.19,5.31,2.9,4.44,6.54h-8.52c-.43,2.35.37,4.26,2.78,4.2,1.67-.06,2.65-.86,3.27-1.98l1.48.68c-.93,1.6-2.35,2.78-4.94,2.78-3.02-.06-4.63-1.67-4.63-4.63,0-4.32,1.98-7.35,6.11-7.59ZM276.21,410.24c.86-4.07-4.38-4.44-5.86-1.73-.25.49-.49,1.05-.68,1.73h6.54" style="fill:#3a414a; stroke-width:0px;"/><path id="ee" d="M289.17,414.25c-.25,1.11.06,2.1,1.42,1.67l-.19,1.23c-1.79.49-3.83,0-3.21-2.16h-.12c-.93,1.36-1.98,2.47-4.2,2.47-2.04,0-3.4-1.23-3.4-3.27,0-4.2,4.38-4.14,8.52-4.14.62-1.6,0-3.46-1.91-3.33-1.6.06-2.59.56-2.9,1.91l-1.98-.31c.49-4.14,9.88-4.38,8.89.93-.31,1.73-.56,3.33-.93,5ZM281.58,414.13c.19,3.21,4.94,1.48,5.49-.37.43-.74.43-1.48.68-2.35-2.9.06-6.36-.25-6.17,2.72" style="fill:#3a414a; stroke-width:0px;"/><path id="ef" d="M291.7,417.21l3.09-16.11h1.98l-3.15,16.11h-1.91" style="fill:#3a414a; stroke-width:0px;"/><path id="eg" d="M299.29,402.95l.37-1.85h1.98l-.37,1.85h-1.98ZM296.58,417.21l2.28-11.73h1.91l-2.28,11.73h-1.91" style="fill:#3a414a; stroke-width:0px;"/><path id="eh" d="M307.44,405.24c1.79,0,2.9.86,3.46,2.22.12-.68.31-1.42.49-1.98h1.85l-2.28,11.42c-.19,4.07-4.81,6.3-8.58,4.14-.74-.43-1.05-1.05-1.23-1.98l1.73-.43c.43,2.59,5.12,1.91,5.68-.19.25-.99.56-2.35.8-3.4-.8,1.23-1.79,2.22-3.83,2.22-2.47,0-3.7-1.54-3.7-3.95,0-4.38,1.42-8.09,5.62-8.09ZM307.69,406.72c-3.27,0-3.58,3.33-3.77,6.42-.12,1.67.62,2.72,2.22,2.72,3.02,0,4.01-3.09,4.14-6.3.06-1.79-.93-2.84-2.59-2.84" style="fill:#3a414a; stroke-width:0px;"/><path id="ei" d="M317.56,407.46c1.36-2.96,8.15-3.21,7.16,1.79l-1.54,7.96h-1.98l1.54-8.64c.19-2.35-3.27-1.98-4.32-.74-1.79,2.16-1.85,6.17-2.65,9.38h-1.98l2.22-11.73h1.85" style="fill:#3a414a; stroke-width:0px;"/><path id="ej" d="M341.08,410.36c.37-1.48.56-3.77-1.48-3.58-4.44.56-3.52,6.67-4.75,10.43h-1.91l1.6-8.77c.19-2.28-3.09-1.85-3.95-.62-1.6,2.28-1.73,6.23-2.53,9.38h-1.91l2.22-11.73h1.85c-.06.62-.37,1.48-.25,1.98.8-2.65,6.23-3.21,6.48.31.8-1.36,1.79-2.53,3.77-2.53,5.56,0,1.73,7.96,1.42,11.98h-1.91" style="fill:#3a414a; stroke-width:0px;"/><path id="ek" d="M351.08,405.24c3.83-.19,5.31,2.9,4.44,6.54h-8.52c-.43,2.35.37,4.26,2.78,4.2,1.67-.06,2.65-.86,3.27-1.98l1.48.68c-.93,1.6-2.35,2.78-4.94,2.78-3.02-.06-4.63-1.67-4.63-4.63,0-4.32,1.98-7.35,6.11-7.59ZM353.8,410.24c.86-4.07-4.38-4.44-5.86-1.73-.25.49-.49,1.05-.68,1.73h6.54" style="fill:#3a414a; stroke-width:0px;"/><path id="el" d="M360.71,407.46c1.36-2.96,8.15-3.21,7.16,1.79l-1.54,7.96h-1.98l1.54-8.64c.19-2.35-3.27-1.98-4.32-.74-1.79,2.16-1.85,6.17-2.65,9.38h-1.98l2.22-11.73h1.85" style="fill:#3a414a; stroke-width:0px;"/><path id="em" d="M372.07,413.88c-.56,1.36.31,2.53,1.91,1.85l-.19,1.42c-2.22.93-4.26-.19-3.7-3.15l1.36-7.1h-1.36l.31-1.42h1.36l1.17-2.65h1.3l-.56,2.65h2.16l-.25,1.42h-2.16" style="fill:#3a414a; stroke-width:0px;"/></g><g id="en"><path id="eo" d="M384.35,402.95l.37-1.85h1.98l-.37,1.85h-1.98ZM381.64,417.21l2.28-11.73h1.91l-2.28,11.73h-1.91" style="fill:#3a414a; stroke-width:0px;"/><path id="ep" d="M390.84,406.9l-1.98,10.31h-1.98l2.04-10.31h-1.67l.25-1.42h1.67c.19-2.9,1.54-5,5.06-4.26l-.25,1.48c-2.16-.49-2.72.93-2.84,2.78h2.28l-.31,1.42h-2.28" style="fill:#3a414a; stroke-width:0px;"/></g><g id="eq"><path id="er" d="M410.1,417.21h-2.28l-.49-10.12-4.44,10.12h-2.28l-.99-11.73h1.91l.49,10.12,4.63-10.12h2.1l.49,10.12,4.57-10.12h1.91" style="fill:#3a414a; stroke-width:0px;"/><path id="es" d="M421.33,405.24c3.83-.19,5.31,2.9,4.44,6.54h-8.52c-.43,2.35.37,4.26,2.78,4.2,1.67-.06,2.65-.86,3.27-1.98l1.48.68c-.93,1.6-2.35,2.78-4.94,2.78-3.02-.06-4.63-1.67-4.63-4.63,0-4.32,1.98-7.35,6.11-7.59ZM424.05,410.24c.86-4.07-4.38-4.44-5.86-1.73-.25.49-.49,1.05-.68,1.73h6.54" style="fill:#3a414a; stroke-width:0px;"/></g><g id="et"><path id="eu" d="M443.18,414.25c-.25,1.11.06,2.1,1.42,1.67l-.19,1.23c-1.79.49-3.83,0-3.21-2.16h-.12c-.93,1.36-1.98,2.47-4.2,2.47-2.04,0-3.4-1.23-3.4-3.27,0-4.2,4.38-4.14,8.52-4.14.62-1.6,0-3.46-1.91-3.33-1.6.06-2.59.56-2.9,1.91l-1.98-.31c.49-4.14,9.88-4.38,8.89.93-.31,1.73-.56,3.33-.93,5ZM435.59,414.13c.19,3.21,4.94,1.48,5.49-.37.43-.74.43-1.48.68-2.35-2.9.06-6.36-.25-6.17,2.72" style="fill:#3a414a; stroke-width:0px;"/><path id="ev" d="M449.42,407.89c.74-1.54,1.85-3.15,4.07-2.47l-.37,1.6c-5-.68-4.2,6.17-5.43,10.19h-1.98l2.22-11.73h1.85" style="fill:#3a414a; stroke-width:0px;"/><path id="ew" d="M459.54,405.24c3.83-.19,5.31,2.9,4.44,6.54h-8.52c-.43,2.35.37,4.26,2.78,4.2,1.67-.06,2.65-.86,3.27-1.98l1.48.68c-.93,1.6-2.35,2.78-4.94,2.78-3.02-.06-4.63-1.67-4.63-4.63,0-4.32,1.98-7.35,6.11-7.59ZM462.26,410.24c.86-4.07-4.38-4.44-5.86-1.73-.25.49-.49,1.05-.68,1.73h6.54" style="fill:#3a414a; stroke-width:0px;"/></g><g id="ex"><path id="ey" d="M474.29,402.95l.37-1.85h1.98l-.37,1.85h-1.98ZM471.58,417.21l2.28-11.73h1.91l-2.28,11.73h-1.91" style="fill:#3a414a; stroke-width:0px;"/><path id="ez" d="M480.22,407.46c1.36-2.96,8.15-3.21,7.16,1.79l-1.54,7.96h-1.98l1.54-8.64c.19-2.35-3.27-1.98-4.32-.74-1.79,2.16-1.85,6.17-2.65,9.38h-1.98l2.22-11.73h1.85" style="fill:#3a414a; stroke-width:0px;"/></g><g id="fa"><path id="fb" d="M270.99,440.54c-.56,1.36.31,2.53,1.91,1.85l-.19,1.42c-2.22.93-4.26-.19-3.7-3.15l1.36-7.1h-1.36l.31-1.42h1.36l1.17-2.65h1.3l-.56,2.65h2.16l-.25,1.42h-2.16" style="fill:#3a414a; stroke-width:0px;"/><path id="fc" d="M278.15,434.13c.93-1.23,1.91-2.22,3.95-2.22,5.8,0,2.04,7.84,1.67,11.98h-1.98l1.54-8.64c.19-2.35-3.27-1.98-4.32-.74-1.79,2.16-1.85,6.23-2.72,9.38h-1.91l3.15-16.11h1.91" style="fill:#3a414a; stroke-width:0px;"/><path id="fd" d="M293.21,431.9c3.83-.19,5.31,2.9,4.44,6.54h-8.52c-.43,2.35.37,4.26,2.78,4.2,1.67-.06,2.65-.86,3.27-1.98l1.48.68c-.93,1.6-2.35,2.78-4.94,2.78-3.02-.06-4.63-1.67-4.63-4.63,0-4.32,1.98-7.35,6.11-7.59ZM295.93,436.9c.86-4.07-4.38-4.44-5.86-1.73-.25.49-.49,1.05-.68,1.73h6.54" style="fill:#3a414a; stroke-width:0px;"/></g><g id="fe"><path id="ff" d="M320.19,437.03c.37-1.48.56-3.77-1.48-3.58-4.44.56-3.52,6.67-4.75,10.43h-1.91l1.6-8.77c.19-2.28-3.09-1.85-3.95-.62-1.6,2.28-1.73,6.23-2.53,9.38h-1.91l2.22-11.73h1.85c-.06.62-.37,1.48-.25,1.98.8-2.65,6.23-3.21,6.48.31.8-1.36,1.79-2.53,3.77-2.53,5.56,0,1.73,7.96,1.42,11.98h-1.91" style="fill:#3a414a; stroke-width:0px;"/><path id="fg" d="M326.42,429.62l.37-1.85h1.98l-.37,1.85h-1.98ZM323.71,443.88l2.28-11.73h1.91l-2.28,11.73h-1.91" style="fill:#3a414a; stroke-width:0px;"/><path id="fh" d="M336.42,442.15c-1.85,3.33-8.52,2.22-7.41-3.02.8-3.83,1.48-7.1,5.56-7.22,1.79-.06,2.84.93,3.46,2.16l1.17-6.3h1.98l-3.09,16.11h-1.85l.19-1.73ZM330.99,439.93c-.12,1.67.62,2.65,2.16,2.65,3.33-.06,4.26-3.09,4.26-6.36,0-1.79-.93-2.84-2.59-2.84-3.27-.06-3.58,3.58-3.83,6.54" style="fill:#3a414a; stroke-width:0px;"/><path id="fi" d="M348.77,442.15c-1.85,3.33-8.52,2.22-7.41-3.02.8-3.83,1.48-7.1,5.56-7.22,1.79-.06,2.84.93,3.46,2.16l1.17-6.3h1.98l-3.09,16.11h-1.85l.19-1.73ZM343.34,439.93c-.12,1.67.62,2.65,2.16,2.65,3.33-.06,4.26-3.09,4.26-6.36,0-1.79-.93-2.84-2.59-2.84-3.27-.06-3.58,3.58-3.83,6.54" style="fill:#3a414a; stroke-width:0px;"/><path id="fj" d="M353.27,443.88l3.09-16.11h1.98l-3.15,16.11h-1.91" style="fill:#3a414a; stroke-width:0px;"/><path id="fk" d="M364.63,431.9c3.83-.19,5.31,2.9,4.44,6.54h-8.52c-.43,2.35.37,4.26,2.78,4.2,1.67-.06,2.65-.86,3.27-1.98l1.48.68c-.93,1.6-2.35,2.78-4.94,2.78-3.02-.06-4.63-1.67-4.63-4.63,0-4.32,1.98-7.35,6.11-7.59ZM367.35,436.9c.86-4.07-4.38-4.44-5.86-1.73-.25.49-.49,1.05-.68,1.73h6.54" style="fill:#3a414a; stroke-width:0px;"/></g><g id="fl"><path id="fm" d="M378.15,434.8c1.91-3.95,10.25-4.01,9.81,1.67-.37,4.38-1.91,7.47-6.36,7.65-4.75.25-5.25-5.68-3.46-9.32ZM381.73,442.64c3.27,0,4.2-2.96,4.2-6.17,0-1.91-.68-3.15-2.72-3.09-3.21.06-4.2,2.84-4.2,5.99,0,1.98.8,3.27,2.72,3.27" style="fill:#3a414a; stroke-width:0px;"/><path id="fn" d="M393.34,433.57l-1.98,10.31h-1.98l2.04-10.31h-1.67l.25-1.42h1.67c.19-2.9,1.54-5,5.06-4.26l-.25,1.48c-2.16-.49-2.72.93-2.84,2.78h2.28l-.31,1.42h-2.28" style="fill:#3a414a; stroke-width:0px;"/></g><g id="fo"><path id="fp" d="M404.14,440.54c-.56,1.36.31,2.53,1.91,1.85l-.19,1.42c-2.22.93-4.26-.19-3.7-3.15l1.36-7.1h-1.36l.31-1.42h1.36l1.17-2.65h1.3l-.56,2.65h2.16l-.25,1.42h-2.16" style="fill:#3a414a; stroke-width:0px;"/><path id="fq" d="M411.24,434.56c.74-1.54,1.85-3.15,4.07-2.47l-.37,1.6c-5-.68-4.2,6.17-5.43,10.19h-1.98l2.22-11.73h1.85" style="fill:#3a414a; stroke-width:0px;"/><path id="fr" d="M426.73,432.15l-7.96,13.58c-.99,1.73-2.72,3.27-5.49,2.59.25-.68-.06-1.67,1.17-1.36,2.04-.06,2.65-1.79,3.64-3.21l-2.35-11.6h1.98l1.67,9.63,5.19-9.63h2.16" style="fill:#3a414a; stroke-width:0px;"/><path id="fs" d="M428.71,429.62l.37-1.85h1.98l-.37,1.85h-1.98ZM425.99,443.88l2.28-11.73h1.91l-2.28,11.73h-1.91" style="fill:#3a414a; stroke-width:0px;"/><path id="ft" d="M434.63,434.13c1.36-2.96,8.15-3.21,7.16,1.79l-1.54,7.96h-1.98l1.54-8.64c.19-2.35-3.27-1.98-4.32-.74-1.79,2.16-1.85,6.17-2.65,9.38h-1.98l2.22-11.73h1.85" style="fill:#3a414a; stroke-width:0px;"/><path id="fu" d="M449.2,431.9c1.79,0,2.9.86,3.46,2.22.12-.68.31-1.42.49-1.98h1.85l-2.28,11.42c-.19,4.07-4.81,6.3-8.58,4.14-.74-.43-1.05-1.05-1.23-1.98l1.73-.43c.43,2.59,5.12,1.91,5.68-.19.25-.99.56-2.35.8-3.4-.8,1.23-1.79,2.22-3.83,2.22-2.47,0-3.7-1.54-3.7-3.95,0-4.38,1.42-8.09,5.62-8.09ZM449.45,433.38c-3.27,0-3.58,3.33-3.77,6.42-.12,1.67.62,2.72,2.22,2.72,3.02,0,4.01-3.09,4.14-6.3.06-1.79-.93-2.84-2.59-2.84" style="fill:#3a414a; stroke-width:0px;"/></g><g id="fv"><path id="fw" d="M464.51,440.54c-.56,1.36.31,2.53,1.91,1.85l-.19,1.42c-2.22.93-4.26-.19-3.7-3.15l1.36-7.1h-1.36l.31-1.42h1.36l1.17-2.65h1.3l-.56,2.65h2.16l-.25,1.42h-2.16" style="fill:#3a414a; stroke-width:0px;"/><path id="fx" d="M469.39,434.8c1.91-3.95,10.25-4.01,9.81,1.67-.37,4.38-1.91,7.47-6.36,7.65-4.75.25-5.25-5.68-3.46-9.32ZM472.97,442.64c3.27,0,4.2-2.96,4.2-6.17,0-1.91-.68-3.15-2.72-3.09-3.21.06-4.2,2.84-4.2,5.99,0,1.98.8,3.27,2.72,3.27" style="fill:#3a414a; stroke-width:0px;"/></g><g id="fy"><path id="fz" d="M311.45,467.21c-.56,1.36.31,2.53,1.91,1.85l-.19,1.42c-2.22.93-4.26-.19-3.7-3.15l1.36-7.1h-1.36l.31-1.42h1.36l1.17-2.65h1.3l-.56,2.65h2.16l-.25,1.42h-2.16" style="fill:#3a414a; stroke-width:0px;"/><path id="ga" d="M318.61,470.73c-5.74-.12-1.91-7.84-1.6-11.91h1.98l-1.54,8.64c-.19,2.41,3.27,1.98,4.32.74,1.85-2.1,1.85-6.23,2.65-9.38h1.98l-2.22,11.73h-1.85c.06-.62.37-1.48.25-2.04-.86,1.23-1.79,2.28-3.95,2.22" style="fill:#3a414a; stroke-width:0px;"/><path id="gb" d="M330.9,461.22c.74-1.54,1.85-3.15,4.07-2.47l-.37,1.6c-5-.68-4.2,6.17-5.43,10.19h-1.98l2.22-11.73h1.85" style="fill:#3a414a; stroke-width:0px;"/><path id="gc" d="M338.31,460.79c1.36-2.96,8.15-3.21,7.16,1.79l-1.54,7.96h-1.98l1.54-8.64c.19-2.35-3.27-1.98-4.32-.74-1.79,2.16-1.85,6.17-2.65,9.38h-1.98l2.22-11.73h1.85" style="fill:#3a414a; stroke-width:0px;"/></g><g id="gd"><path id="ge" d="M362.87,467.58c-.25,1.11.06,2.1,1.42,1.67l-.19,1.23c-1.79.49-3.83,0-3.21-2.16h-.12c-.93,1.36-1.98,2.47-4.2,2.47-2.04,0-3.4-1.23-3.4-3.27,0-4.2,4.38-4.14,8.52-4.14.62-1.6,0-3.46-1.91-3.33-1.6.06-2.59.56-2.9,1.91l-1.98-.31c.49-4.14,9.88-4.38,8.89.93-.31,1.73-.56,3.33-.93,5ZM355.28,467.46c.19,3.21,4.94,1.48,5.49-.37.43-.74.43-1.48.68-2.35-2.9.06-6.36-.25-6.17,2.72" style="fill:#3a414a; stroke-width:0px;"/></g><g id="gf"><path id="gg" d="M373.92,466.35c0,1.79.68,2.9,2.35,2.9,1.85,0,2.59-1.17,3.15-2.53l1.73.56c-.8,1.98-2.16,3.52-4.88,3.52-3.15,0-4.44-2.04-4.32-5.49.19-4.75,4.57-8.64,9.01-5.74.74.49.93,1.42,1.11,2.47l-1.91.31c-.06-1.36-.8-2.22-2.22-2.22-3.21,0-4.01,3.02-4.01,6.23" style="fill:#3a414a; stroke-width:0px;"/><path id="gh" d="M384.17,461.47c1.91-3.95,10.25-4.01,9.81,1.67-.37,4.38-1.91,7.47-6.36,7.65-4.75.25-5.25-5.68-3.46-9.32ZM387.75,469.31c3.27,0,4.2-2.96,4.2-6.17,0-1.91-.68-3.15-2.72-3.09-3.21.06-4.2,2.84-4.2,5.99,0,1.98.8,3.27,2.72,3.27" style="fill:#3a414a; stroke-width:0px;"/><path id="gi" d="M398.74,461.22c.74-1.54,1.85-3.15,4.07-2.47l-.37,1.6c-5-.68-4.2,6.17-5.43,10.19h-1.98l2.22-11.73h1.85" style="fill:#3a414a; stroke-width:0px;"/><path id="gj" d="M406.14,460.79c1.36-2.96,8.15-3.21,7.16,1.79l-1.54,7.96h-1.98l1.54-8.64c.19-2.35-3.27-1.98-4.32-.74-1.79,2.16-1.85,6.17-2.65,9.38h-1.98l2.22-11.73h1.85" style="fill:#3a414a; stroke-width:0px;"/><path id="gk" d="M421.21,458.57c3.83-.19,5.31,2.9,4.44,6.54h-8.52c-.43,2.35.37,4.26,2.78,4.2,1.67-.06,2.65-.86,3.27-1.98l1.48.68c-.93,1.6-2.35,2.78-4.94,2.78-3.02-.06-4.63-1.67-4.63-4.63,0-4.32,1.98-7.35,6.11-7.59ZM423.92,463.57c.86-4.07-4.38-4.44-5.86-1.73-.25.49-.49,1.05-.68,1.73h6.54" style="fill:#3a414a; stroke-width:0px;"/><path id="gl" d="M430.77,461.22c.74-1.54,1.85-3.15,4.07-2.47l-.37,1.6c-5-.68-4.2,6.17-5.43,10.19h-1.98l2.22-11.73h1.85" style="fill:#3a414a; stroke-width:0px;"/><path id="gm" d="M434.11,470.54l.49-2.35h2.1l-.49,2.35h-2.1" style="fill:#3a414a; stroke-width:0px;"/></g><path d="M173.86,487.1v62.12" style="fill:none; stroke:#3a414a;"/><path d="M174.36,487.1h-1v-.5h1v.5Z" style="fill:#3a414a; stroke:#3a414a; stroke-width:.05px;"/><path d="M173.86,563.98l-4.63-14.26h9.27l-4.64,14.26Z" style="fill:#3a414a; stroke:#3a414a;"/><path d="M93.86,572.1c0-3.31,2.69-6,6-6h148c3.31,0,6,2.69,6,6v108c0,3.31-2.69,6-6,6H99.86c-3.31,0-6-2.69-6-6v-108Z" style="fill:#fff; stroke:#3a414a;"/><g id="gn"><path id="go" d="M136.3,587.32c5.37.06,11.79-.93,11.79,4.63,0,4.81-4.75,4.94-9.75,4.69v5.99h-2.04v-15.31ZM138.34,595.04c3.52,0,7.65.68,7.65-3.09s-4.2-2.9-7.65-2.96v6.05" style="fill:#3a414a; stroke-width:0px;"/><path id="gp" d="M155.44,590.65c3.89,0,5.31,2.59,5.19,6.54h-8.33c0,2.47.86,4.14,3.27,4.2,1.6.06,2.65-.74,3.02-1.79l1.73.49c-.68,1.73-2.28,2.78-4.75,2.78-3.58,0-5.43-2.28-5.37-6.17.06-3.77,1.6-6.05,5.25-6.05ZM158.64,595.65c.37-3.7-4.69-4.75-5.99-1.73-.19.43-.37,1.05-.37,1.73h6.36" style="fill:#3a414a; stroke-width:0px;"/><path id="gq" d="M168.64,592.57c-4.81-.99-3.27,5.62-3.52,10.06h-1.98l-.06-11.73h1.85c.06.74-.06,1.79.12,2.41.37-1.67,1.42-3.02,3.58-2.53v1.79" style="fill:#3a414a; stroke-width:0px;"/><path id="gr" d="M175.19,588.18c-1.91-.56-2.59.62-2.35,2.72h2.35v1.42h-2.35v10.31h-1.91v-10.31h-1.67v-1.42h1.67c-.43-3.21,1.05-5.06,4.26-4.2v1.48" style="fill:#3a414a; stroke-width:0px;"/><path id="gs" d="M181.3,590.65c3.83-.06,5.25,2.28,5.25,6.11.06,3.89-1.67,6.11-5.31,6.11s-5.12-2.41-5.19-6.11c0-4.07,1.73-6.11,5.25-6.11ZM181.24,601.39c2.72.06,3.27-1.91,3.27-4.63s-.49-4.63-3.15-4.63-3.27,1.98-3.27,4.63.62,4.57,3.15,4.63" style="fill:#3a414a; stroke-width:0px;"/><path id="gt" d="M194.51,592.57c-4.81-.99-3.27,5.62-3.52,10.06h-1.98l-.06-11.73h1.85c.06.74-.06,1.79.12,2.41.37-1.67,1.42-3.02,3.58-2.53v1.79" style="fill:#3a414a; stroke-width:0px;"/><path id="gu" d="M207.78,592.2c-4.14.19-2.35,6.48-2.72,10.43h-1.91v-7.47c0-1.79-.31-3.09-2.16-2.96-4.07.25-2.35,6.42-2.72,10.43h-1.91l-.06-11.73h1.85c.06.62-.06,1.48.12,1.98.62-2.72,6.11-3.09,6.6,0,.68-1.3,1.67-2.16,3.58-2.22,5.25-.12,2.9,7.35,3.4,11.98h-1.91v-7.47c0-1.79-.31-3.02-2.16-2.96" style="fill:#3a414a; stroke-width:0px;"/></g><g id="gv"><path id="gw" d="M130.5,617.32c5.49-.25,3.27,7.16,3.7,11.98h-1.98v-7.47c0-1.91-.49-3.02-2.41-2.96-4.44.12-2.72,6.3-3.02,10.43h-1.98l-.06-11.73h1.85c.06.62-.06,1.48.12,1.98.68-1.36,1.79-2.16,3.77-2.22" style="fill:#3a414a; stroke-width:0px;"/><path id="gx" d="M141.79,617.32c3.89,0,5.31,2.59,5.19,6.54h-8.33c0,2.47.86,4.14,3.27,4.2,1.6.06,2.65-.74,3.02-1.79l1.73.49c-.68,1.73-2.28,2.78-4.75,2.78-3.58,0-5.43-2.28-5.37-6.17.06-3.77,1.6-6.05,5.25-6.05ZM145,622.32c.37-3.7-4.69-4.75-5.99-1.73-.19.43-.37,1.05-.37,1.73h6.36" style="fill:#3a414a; stroke-width:0px;"/><path id="gy" d="M153.89,618.86c-2.47,0-2.96,2.04-2.96,4.51s.56,4.63,2.96,4.63c1.48,0,2.53-.86,2.65-2.35l1.98.12c-.37,2.28-1.91,3.77-4.57,3.77-3.64,0-4.69-2.53-5.06-6.11-.62-5.74,6.23-8.09,9.07-3.95.25.43.31.86.43,1.36l-1.98.19c-.25-1.3-.99-2.16-2.53-2.16" style="fill:#3a414a; stroke-width:0px;"/><path id="gz" d="M165.25,617.32c3.89,0,5.31,2.59,5.19,6.54h-8.33c0,2.47.86,4.14,3.27,4.2,1.6.06,2.65-.74,3.02-1.79l1.73.49c-.68,1.73-2.28,2.78-4.75,2.78-3.58,0-5.43-2.28-5.37-6.17.06-3.77,1.6-6.05,5.25-6.05ZM168.46,622.32c.37-3.7-4.69-4.75-5.99-1.73-.19.43-.37,1.05-.37,1.73h6.36" style="fill:#3a414a; stroke-width:0px;"/><path id="ha" d="M179.76,620.47c-.19-2.1-5.31-2.35-5.37,0,.93,3.27,7.1.74,7.35,5.56s-9.26,4.57-9.69.49l1.73-.31c.25,2.22,5.99,2.78,6.05,0-.62-3.46-6.98-.93-7.28-5.56-.25-3.52,5.06-3.89,7.53-2.59.74.43,1.3,1.17,1.48,2.16" style="fill:#3a414a; stroke-width:0px;"/><path id="hb" d="M190.87,620.47c-.19-2.1-5.31-2.35-5.37,0,.93,3.27,7.1.74,7.35,5.56s-9.26,4.57-9.69.49l1.73-.31c.25,2.22,5.99,2.78,6.05,0-.62-3.46-6.98-.93-7.28-5.56-.25-3.52,5.06-3.89,7.53-2.59.74.43,1.3,1.17,1.48,2.16" style="fill:#3a414a; stroke-width:0px;"/><path id="hc" d="M202.35,627.07c-.93,1.3-1.91,2.53-4.2,2.47-2.22-.06-3.58-1.3-3.58-3.52-.06-3.95,3.89-3.89,7.72-3.89.19-2.16-.56-3.33-2.53-3.33-1.48.06-2.53.43-2.59,1.91l-2.04-.19c.31-2.28,2.04-3.21,4.69-3.21s4.44,1.23,4.44,3.95v5.06c-.06,1.23.43,1.98,1.73,1.67v1.23c-1.91.56-3.77-.12-3.64-2.16ZM196.61,626.02c0,1.23.74,2.04,1.98,2.04,2.53-.19,3.89-1.79,3.7-4.57-2.65.12-5.68-.31-5.68,2.53" style="fill:#3a414a; stroke-width:0px;"/><path id="hd" d="M213.03,619.23c-4.81-.99-3.27,5.62-3.52,10.06h-1.98l-.06-11.73h1.85c.06.74-.06,1.79.12,2.41.37-1.67,1.42-3.02,3.58-2.53v1.79" style="fill:#3a414a; stroke-width:0px;"/><path id="he" d="M224.39,617.57l-5.31,13.64c-.86,1.73-2.28,3.15-5,2.59v-1.48c2.41.37,3.27-1.23,3.95-3.09l-4.63-11.67h2.1l3.52,9.63,3.33-9.63h2.04" style="fill:#3a414a; stroke-width:0px;"/></g><g id="hf"><path id="hg" d="M123,645.9c-4.81-.99-3.27,5.62-3.52,10.06h-1.98l-.06-11.73h1.85c.06.74-.06,1.79.12,2.41.37-1.67,1.42-3.02,3.58-2.53v1.79" style="fill:#3a414a; stroke-width:0px;"/><path id="hh" d="M129.48,643.99c3.89,0,5.31,2.59,5.19,6.54h-8.33c0,2.47.86,4.14,3.27,4.2,1.6.06,2.65-.74,3.02-1.79l1.73.49c-.68,1.73-2.28,2.78-4.75,2.78-3.58,0-5.43-2.28-5.37-6.17.06-3.77,1.6-6.05,5.25-6.05ZM132.69,648.99c.37-3.7-4.69-4.75-5.99-1.73-.19.43-.37,1.05-.37,1.73h6.36" style="fill:#3a414a; stroke-width:0px;"/><path id="hi" d="M144.35,653.74c-.93,1.3-1.91,2.53-4.2,2.47-2.22-.06-3.58-1.3-3.58-3.52-.06-3.95,3.89-3.89,7.72-3.89.19-2.16-.56-3.33-2.53-3.33-1.48.06-2.53.43-2.59,1.91l-2.04-.19c.31-2.28,2.04-3.21,4.69-3.21s4.44,1.23,4.44,3.95v5.06c-.06,1.23.43,1.98,1.73,1.67v1.23c-1.91.56-3.77-.12-3.64-2.16ZM138.61,652.69c0,1.23.74,2.04,1.98,2.04,2.53-.19,3.89-1.79,3.7-4.57-2.65.12-5.68-.31-5.68,2.53" style="fill:#3a414a; stroke-width:0px;"/><path id="hj" d="M149.48,655.96v-16.11h1.98v16.11h-1.98" style="fill:#3a414a; stroke-width:0px;"/><path id="hk" d="M154.35,641.7v-1.85h1.98v1.85h-1.98ZM154.35,655.96v-11.73h1.98v11.73h-1.98" style="fill:#3a414a; stroke-width:0px;"/><path id="hl" d="M168.68,644.23c-.62,7.72,2.53,18.09-6.79,16.11-1.42-.37-2.35-1.23-2.72-2.65l1.98-.31c.93,2.9,6.17,1.98,5.49-1.73v-1.85c-.68,1.3-1.79,2.22-3.77,2.22-3.33,0-4.2-2.53-4.2-5.93s.99-5.99,4.38-6.05c1.79-.06,2.96.99,3.64,2.16.06-.62,0-1.42.12-1.98h1.85ZM163.55,654.6c2.22,0,3.09-1.98,3.09-4.51s-.86-4.63-3.09-4.63c-2.41,0-2.84,2.1-2.84,4.63s.37,4.51,2.84,4.51" style="fill:#3a414a; stroke-width:0px;"/><path id="hm" d="M177.32,643.99c5.49-.25,3.27,7.16,3.7,11.98h-1.98v-7.47c0-1.91-.49-3.02-2.41-2.96-4.44.12-2.72,6.3-3.02,10.43h-1.98l-.06-11.73h1.85c.06.62-.06,1.48.12,1.98.68-1.36,1.79-2.16,3.77-2.22" style="fill:#3a414a; stroke-width:0px;"/><path id="hn" d="M195.4,645.53c-4.14.19-2.35,6.48-2.72,10.43h-1.91v-7.47c0-1.79-.31-3.09-2.16-2.96-4.07.25-2.35,6.42-2.72,10.43h-1.91l-.06-11.73h1.85c.06.62-.06,1.48.12,1.98.62-2.72,6.11-3.09,6.6,0,.68-1.3,1.67-2.16,3.58-2.22,5.25-.12,2.9,7.35,3.4,11.98h-1.91v-7.47c0-1.79-.31-3.02-2.16-2.96" style="fill:#3a414a; stroke-width:0px;"/><path id="ho" d="M207.07,643.99c3.89,0,5.31,2.59,5.19,6.54h-8.33c0,2.47.86,4.14,3.27,4.2,1.6.06,2.65-.74,3.02-1.79l1.73.49c-.68,1.73-2.28,2.78-4.75,2.78-3.58,0-5.43-2.28-5.37-6.17.06-3.77,1.6-6.05,5.25-6.05ZM210.28,648.99c.37-3.7-4.69-4.75-5.99-1.73-.19.43-.37,1.05-.37,1.73h6.36" style="fill:#3a414a; stroke-width:0px;"/><path id="hp" d="M220.47,643.99c5.49-.25,3.27,7.16,3.7,11.98h-1.98v-7.47c0-1.91-.49-3.02-2.41-2.96-4.44.12-2.72,6.3-3.02,10.43h-1.98l-.06-11.73h1.85c.06.62-.06,1.48.12,1.98.68-1.36,1.79-2.16,3.77-2.22" style="fill:#3a414a; stroke-width:0px;"/><path id="hq" d="M229.23,653.06c-.12,1.48,1.11,1.79,2.35,1.36v1.48c-2.04.62-4.32.31-4.32-2.41v-7.84h-1.36v-1.42h1.48l.56-2.65h1.3v2.65h2.16v1.42h-2.16v7.41" style="fill:#3a414a; stroke-width:0px;"/></g><path d="M53.86,620.08l.07.88.2.84.33.8.45.73.56.66.67.55.73.45.8.33.84.2.88.07h33.47v1h-33.52l-1-.08-1-.24-.93-.4-.87-.52-.78-.66-.66-.78-.53-.87-.38-.94-.24-.98-.08-1v-78.5h1v78.46ZM76.98,146.6h-17.6l-.88.07-.84.2-.8.33-.73.45-.66.56-.55.67-.45.73-.33.8-.2.84-.07.88v368.17h-1V152.08l.08-1,.24-1,.4-.93.52-.87.66-.78.78-.66.87-.53.94-.38.98-.24,1-.08h17.64v.99Z" style="fill:#3a414a; stroke:#3a414a; stroke-width:.05px;"/><path d="M93.36,626.6h-.5v-1h.5v1Z" style="fill:#3a414a; stroke-width:0px;"/><path d="M93.39,626.62h-.57v-1.04h.57v1.04ZM92.87,625.62v.96h.47v-.96h-.47Z" style="fill:#3a414a; stroke:#3a414a; stroke-width:.05px;"/><path d="M91.74,146.1l-14.26,4.64v-9.28l14.26,4.64Z" style="fill:#3a414a; stroke-width:0px;"/><path d="M93.36,146.1l-16.38,5.32v-10.64l16.38,5.32ZM77.98,150.05l12.14-3.95-12.14-3.95v7.9Z" style="fill:#3a414a; stroke:#3a414a; stroke-width:.05px;"/><g id="hr"><path id="hs" d="M14.45,522.13c3.95,0,6.17,2.22,6.17,6.22s-2.27,6.37-6.22,6.37-6.12-2.37-6.12-6.37,2.17-6.22,6.17-6.22ZM14.4,532.69c2.57,0,3.6-1.73,3.6-4.35,0-2.47-1.04-4.25-3.56-4.25s-3.6,1.73-3.6,4.25,1.09,4.35,3.56,4.35" style="fill:#333; stroke-width:0px;"/><path id="ht" d="M28.03,524.94c4.3-.05,2.86,5.58,3.11,9.58h-2.47c-.35-2.81,1.14-7.75-1.68-7.75s-1.68,4.79-1.93,7.75h-2.47l-.05-9.38h2.32c.1.59-.05,1.38.15,1.88.59-1.28,1.38-2.02,3.01-2.07" style="fill:#333; stroke-width:0px;"/><path id="hu" d="M41.56,531.41c-.35,2.07-1.88,3.31-4.25,3.31-2.91,0-4.15-1.88-4.44-4.84-.59-5.43,7.6-6.77,8.59-1.78l-2.42.1c-.1-.94-.74-1.58-1.73-1.58-1.48,0-1.73,1.38-1.88,3.16-.3,3.65,3.21,4.3,3.65,1.48" style="fill:#333; stroke-width:0px;"/><path id="hv" d="M51.19,532.15c-.64,1.48-1.83,2.62-4.05,2.57-2.96-.1-4.4-1.83-4.4-4.94s1.48-4.84,4.44-4.84,4.1,2.22,4.15,5.33h-6.02c0,1.53.4,2.72,1.93,2.77.89,0,1.48-.35,1.68-1.09l2.27.2ZM48.97,528.74c.25-2.27-2.81-3.11-3.46-1.04-.1.3-.2.64-.2,1.04h3.65" style="fill:#333; stroke-width:0px;"/></g><g id="hw"><path id="hx" d="M61.21,524.94c1.53-.05,2.27.74,2.86,1.68l-.05-4.99h2.47l.05,12.89h-2.37c-.1-.49,0-1.14-.15-1.53-.54,1.14-1.43,1.73-3.01,1.73-2.57,0-3.36-2.22-3.41-4.89,0-2.77.94-4.79,3.6-4.89ZM62.05,533.04c1.63,0,1.98-1.48,2.02-3.26.05-1.83-.44-3.16-2.02-3.16s-1.88,1.48-1.93,3.21c0,2.12.64,3.21,1.93,3.21" style="fill:#333; stroke-width:0px;"/><path id="hy" d="M73.11,524.94c3.16,0,4.74,1.78,4.74,4.89s-1.73,4.89-4.79,4.89-4.69-1.78-4.69-4.89,1.68-4.89,4.74-4.89ZM73.06,533.04c1.73,0,2.22-1.38,2.22-3.21,0-1.98-.49-3.21-2.12-3.21s-2.22,1.28-2.22,3.21c0,1.78.49,3.21,2.12,3.21" style="fill:#333; stroke-width:0px;"/><path id="hz" d="M85.16,524.94c4.3-.05,2.86,5.58,3.11,9.58h-2.47c-.35-2.81,1.14-7.75-1.68-7.75s-1.68,4.79-1.93,7.75h-2.47l-.05-9.38h2.32c.1.59-.05,1.38.15,1.88.59-1.28,1.38-2.02,3.01-2.07" style="fill:#333; stroke-width:0px;"/><path id="ia" d="M98.45,532.15c-.64,1.48-1.83,2.62-4.05,2.57-2.96-.1-4.4-1.83-4.4-4.94s1.48-4.84,4.44-4.84,4.1,2.22,4.15,5.33h-6.02c0,1.53.4,2.72,1.93,2.77.89,0,1.48-.35,1.68-1.09l2.27.2ZM96.23,528.74c.25-2.27-2.81-3.11-3.46-1.04-.1.3-.2.64-.2,1.04h3.65" style="fill:#333; stroke-width:0px;"/></g></svg>