<?xml version="1.0" encoding="UTF-8"?><svg id="a" xmlns="http://www.w3.org/2000/svg" viewBox="0 0 733 495"><path d="M246.5,13.5c0-3.31,2.69-6,6-6h228c3.31,0,6,2.69,6,6v148c0,3.31-2.69,6-6,6h-228c-3.31,0-6-2.69-6-6V13.5Z" style="fill:#fff; stroke:#3a414a;"/><g id="b"><path id="c" d="M292.61,61.84c7.28-.43,13.33.49,13.15,7.53-.19,4.81-2.65,7.78-7.47,7.78h-5.68v-15.31ZM294.65,75.49c5.49.49,9.01-.99,9.01-6.11s-3.7-6.23-9.01-5.86v11.98" style="fill:#3a414a; stroke-width:0px;"/><path id="d" d="M313.78,67.09c-4.81-.99-3.27,5.62-3.52,10.06h-1.98l-.06-11.73h1.85c.06.74-.06,1.79.12,2.41.37-1.67,1.42-3.02,3.58-2.53v1.79" style="fill:#3a414a; stroke-width:0px;"/><path id="e" d="M315.57,62.89v-1.85h1.98v1.85h-1.98ZM315.57,77.15v-11.73h1.98v11.73h-1.98" style="fill:#3a414a; stroke-width:0px;"/><path id="f" d="M325.64,77.15h-2.35l-4.26-11.73h2.1l3.33,10.19,3.46-10.19h2.1" style="fill:#3a414a; stroke-width:0px;"/><path id="g" d="M331.56,62.89v-1.85h1.98v1.85h-1.98ZM331.56,77.15v-11.73h1.98v11.73h-1.98" style="fill:#3a414a; stroke-width:0px;"/><path id="h" d="M342.18,65.18c5.49-.25,3.27,7.16,3.7,11.98h-1.98v-7.47c0-1.91-.49-3.02-2.41-2.96-4.44.12-2.72,6.3-3.02,10.43h-1.98l-.06-11.73h1.85c.06.62-.06,1.48.12,1.98.68-1.36,1.79-2.16,3.77-2.22" style="fill:#3a414a; stroke-width:0px;"/><path id="i" d="M358.23,65.42c-.62,7.72,2.53,18.09-6.79,16.11-1.42-.37-2.35-1.23-2.72-2.65l1.98-.31c.93,2.9,6.17,1.98,5.49-1.73v-1.85c-.68,1.3-1.79,2.22-3.77,2.22-3.33,0-4.2-2.53-4.2-5.93s.99-5.99,4.38-6.05c1.79-.06,2.96.99,3.64,2.16.06-.62,0-1.42.12-1.98h1.85ZM353.1,75.79c2.22,0,3.09-1.98,3.09-4.51s-.86-4.63-3.09-4.63c-2.41,0-2.84,2.1-2.84,4.63s.37,4.51,2.84,4.51" style="fill:#3a414a; stroke-width:0px;"/></g><g id="j"><path id="k" d="M377.24,65.49c-.31-2.96-7.59-3.33-7.65.12.86,4.63,9.75.86,10.06,7.35.19,4.81-7.47,5.37-10.8,3.4-1.05-.62-1.73-1.6-2.04-2.84l2.04-.43c.31,3.46,8.7,3.89,8.7-.06,0-4.81-9.57-.86-10-7.28-.31-5.06,8.95-5.19,11.05-2.1.31.43.49.99.68,1.54" style="fill:#3a414a; stroke-width:0px;"/><path id="l" d="M384.28,74.25c-.12,1.48,1.11,1.79,2.35,1.36v1.48c-2.04.62-4.32.31-4.32-2.41v-7.84h-1.36v-1.42h1.48l.56-2.65h1.3v2.65h2.16v1.42h-2.16v7.41" style="fill:#3a414a; stroke-width:0px;"/><path id="m" d="M393.85,67.09c-4.81-.99-3.27,5.62-3.52,10.06h-1.98l-.06-11.73h1.85c.06.74-.06,1.79.12,2.41.37-1.67,1.42-3.02,3.58-2.53v1.79" style="fill:#3a414a; stroke-width:0px;"/><path id="n" d="M402.86,74.93c-.93,1.3-1.91,2.53-4.2,2.47-2.22-.06-3.58-1.3-3.58-3.52-.06-3.95,3.89-3.89,7.72-3.89.19-2.16-.56-3.33-2.53-3.33-1.48.06-2.53.43-2.59,1.91l-2.04-.19c.31-2.28,2.04-3.21,4.69-3.21s4.44,1.23,4.44,3.95v5.06c-.06,1.23.43,1.98,1.73,1.67v1.23c-1.91.56-3.77-.12-3.64-2.16ZM397.12,73.88c0,1.23.74,2.04,1.98,2.04,2.53-.19,3.89-1.79,3.7-4.57-2.65.12-5.68-.31-5.68,2.53" style="fill:#3a414a; stroke-width:0px;"/><path id="o" d="M407.98,62.89v-1.85h1.98v1.85h-1.98ZM407.98,77.15v-11.73h1.98v11.73h-1.98" style="fill:#3a414a; stroke-width:0px;"/><path id="p" d="M422.3,65.42c-.62,7.72,2.53,18.09-6.79,16.11-1.42-.37-2.35-1.23-2.72-2.65l1.98-.31c.93,2.9,6.17,1.98,5.49-1.73v-1.85c-.68,1.3-1.79,2.22-3.77,2.22-3.33,0-4.2-2.53-4.2-5.93s.99-5.99,4.38-6.05c1.79-.06,2.96.99,3.64,2.16.06-.62,0-1.42.12-1.98h1.85ZM417.18,75.79c2.22,0,3.09-1.98,3.09-4.51s-.86-4.63-3.09-4.63c-2.41,0-2.84,2.1-2.84,4.63s.37,4.51,2.84,4.51" style="fill:#3a414a; stroke-width:0px;"/><path id="q" d="M430.27,66.72c-4.44,0-2.72,6.3-3.02,10.43h-1.98v-16.11h1.98l-.06,6.36c.74-1.3,1.73-2.22,3.77-2.22,5.49,0,3.27,7.16,3.7,11.98h-1.98v-7.47c.12-1.98-.49-3.02-2.41-2.96" style="fill:#3a414a; stroke-width:0px;"/><path id="r" d="M439.71,74.25c-.12,1.48,1.11,1.79,2.35,1.36v1.48c-2.04.62-4.32.31-4.32-2.41v-7.84h-1.36v-1.42h1.48l.56-2.65h1.3v2.65h2.16v1.42h-2.16v7.41" style="fill:#3a414a; stroke-width:0px;"/></g><g id="s"><path id="t" d="M259.25,108.45c-2.35-2.59-4.01-5.68-4.01-10.43s1.73-7.78,4.01-10.31h1.91c-2.35,2.53-3.95,5.68-3.95,10.37s1.6,7.84,3.95,10.37h-1.91" style="fill:#3a414a; stroke-width:0px;"/><path id="u" d="M265.11,90.24v5.68h8.52v1.73h-8.52v6.17h-2.04v-15.31h10.8v1.73h-8.77" style="fill:#3a414a; stroke-width:0px;"/><path id="v" d="M280.91,91.84c3.83-.06,5.25,2.28,5.25,6.11.06,3.89-1.67,6.11-5.31,6.11s-5.12-2.41-5.19-6.11c0-4.07,1.73-6.11,5.25-6.11ZM280.85,102.58c2.72.06,3.27-1.91,3.27-4.63s-.49-4.63-3.15-4.63-3.27,1.98-3.27,4.63.62,4.57,3.15,4.63" style="fill:#3a414a; stroke-width:0px;"/><path id="w" d="M288.57,103.82v-16.11h1.98v16.11h-1.98" style="fill:#3a414a; stroke-width:0px;"/><path id="x" d="M293.44,103.82v-16.11h1.98v16.11h-1.98" style="fill:#3a414a; stroke-width:0px;"/><path id="y" d="M303.01,91.84c3.83-.06,5.25,2.28,5.25,6.11.06,3.89-1.67,6.11-5.31,6.11s-5.12-2.41-5.19-6.11c0-4.07,1.73-6.11,5.25-6.11ZM302.95,102.58c2.72.06,3.27-1.91,3.27-4.63s-.49-4.63-3.15-4.63-3.27,1.98-3.27,4.63.62,4.57,3.15,4.63" style="fill:#3a414a; stroke-width:0px;"/><path id="z" d="M321.9,103.82h-2.22l-2.47-10.12-2.53,10.12h-2.22l-3.33-11.73h1.98l2.41,10.12,2.65-10.12h2.1l2.53,10.12,2.59-10.12h1.91" style="fill:#3a414a; stroke-width:0px;"/><path id="aa" d="M326.65,89.56v-1.85h1.98v1.85h-1.98ZM326.65,103.82v-11.73h1.98v11.73h-1.98" style="fill:#3a414a; stroke-width:0px;"/><path id="ab" d="M337.27,91.84c5.49-.25,3.27,7.16,3.7,11.98h-1.98v-7.47c0-1.91-.49-3.02-2.41-2.96-4.44.12-2.72,6.3-3.02,10.43h-1.98l-.06-11.73h1.85c.06.62-.06,1.48.12,1.98.68-1.36,1.79-2.16,3.77-2.22" style="fill:#3a414a; stroke-width:0px;"/><path id="ac" d="M353.32,92.09c-.62,7.72,2.53,18.09-6.79,16.11-1.42-.37-2.35-1.23-2.72-2.65l1.98-.31c.93,2.9,6.17,1.98,5.49-1.73v-1.85c-.68,1.3-1.79,2.22-3.77,2.22-3.33,0-4.2-2.53-4.2-5.93s.99-5.99,4.38-6.05c1.79-.06,2.96.99,3.64,2.16.06-.62,0-1.42.12-1.98h1.85ZM348.2,102.46c2.22,0,3.09-1.98,3.09-4.51s-.86-4.63-3.09-4.63c-2.41,0-2.84,2.1-2.84,4.63s.37,4.51,2.84,4.51" style="fill:#3a414a; stroke-width:0px;"/></g><g id="ad"><path id="ae" d="M364.56,100.92c-.12,1.48,1.11,1.79,2.35,1.36v1.48c-2.04.62-4.32.31-4.32-2.41v-7.84h-1.36v-1.42h1.48l.56-2.65h1.3v2.65h2.16v1.42h-2.16v7.41" style="fill:#3a414a; stroke-width:0px;"/><path id="af" d="M373.63,93.39c-4.44,0-2.72,6.3-3.02,10.43h-1.98v-16.11h1.98l-.06,6.36c.74-1.3,1.73-2.22,3.77-2.22,5.49,0,3.27,7.16,3.7,11.98h-1.98v-7.47c.12-1.98-.49-3.02-2.41-2.96" style="fill:#3a414a; stroke-width:0px;"/><path id="ag" d="M385.6,91.84c3.89,0,5.31,2.59,5.19,6.54h-8.33c0,2.47.86,4.14,3.27,4.2,1.6.06,2.65-.74,3.02-1.79l1.73.49c-.68,1.73-2.28,2.78-4.75,2.78-3.58,0-5.43-2.28-5.37-6.17.06-3.77,1.6-6.05,5.25-6.05ZM388.81,96.84c.37-3.7-4.69-4.75-5.99-1.73-.19.43-.37,1.05-.37,1.73h6.36" style="fill:#3a414a; stroke-width:0px;"/></g><g id="ah"><path id="ai" d="M399.43,103.82v-16.11h1.98v16.11h-1.98" style="fill:#3a414a; stroke-width:0px;"/><path id="aj" d="M409,91.84c3.89,0,5.31,2.59,5.19,6.54h-8.33c0,2.47.86,4.14,3.27,4.2,1.6.06,2.65-.74,3.02-1.79l1.73.49c-.68,1.73-2.28,2.78-4.75,2.78-3.58,0-5.43-2.28-5.37-6.17.06-3.77,1.6-6.05,5.25-6.05ZM412.21,96.84c.37-3.7-4.69-4.75-5.99-1.73-.19.43-.37,1.05-.37,1.73h6.36" style="fill:#3a414a; stroke-width:0px;"/><path id="ak" d="M421.41,89.37c-1.91-.56-2.59.62-2.35,2.72h2.35v1.42h-2.35v10.31h-1.91v-10.31h-1.67v-1.42h1.67c-.43-3.21,1.05-5.06,4.26-4.2v1.48" style="fill:#3a414a; stroke-width:0px;"/><path id="al" d="M424.99,100.92c-.12,1.48,1.11,1.79,2.35,1.36v1.48c-2.04.62-4.32.31-4.32-2.41v-7.84h-1.36v-1.42h1.48l.56-2.65h1.3v2.65h2.16v1.42h-2.16v7.41" style="fill:#3a414a; stroke-width:0px;"/></g><g id="am"><path id="an" d="M446.41,103.82h-2.22l-2.47-10.12-2.53,10.12h-2.22l-3.33-11.73h1.98l2.41,10.12,2.65-10.12h2.1l2.53,10.12,2.59-10.12h1.91" style="fill:#3a414a; stroke-width:0px;"/><path id="ao" d="M458.38,101.6c-.93,1.3-1.91,2.53-4.2,2.47-2.22-.06-3.58-1.3-3.58-3.52-.06-3.95,3.89-3.89,7.72-3.89.19-2.16-.56-3.33-2.53-3.33-1.48.06-2.53.43-2.59,1.91l-2.04-.19c.31-2.28,2.04-3.21,4.69-3.21s4.44,1.23,4.44,3.95v5.06c-.06,1.23.43,1.98,1.73,1.67v1.23c-1.91.56-3.77-.12-3.64-2.16ZM452.64,100.55c0,1.23.74,2.04,1.98,2.04,2.53-.19,3.89-1.79,3.7-4.57-2.65.12-5.68-.31-5.68,2.53" style="fill:#3a414a; stroke-width:0px;"/><path id="ap" d="M463.51,103.82v-16.11h1.98v16.11h-1.98" style="fill:#3a414a; stroke-width:0px;"/><path id="aq" d="M468.38,103.82v-16.11h1.98v16.11h-1.98" style="fill:#3a414a; stroke-width:0px;"/><path id="ar" d="M473.81,87.71c2.35,2.53,4.01,5.68,4.01,10.37s-1.67,7.84-4.01,10.37h-1.91c2.28-2.53,3.95-5.68,3.95-10.37s-1.67-7.84-3.95-10.37h1.91" style="fill:#3a414a; stroke-width:0px;"/></g><path d="M486.5,333.5c0-3.31,2.69-6,6-6h228c3.31,0,6,2.69,6,6v148c0,3.31-2.69,6-6,6h-228c-3.31,0-6-2.69-6-6v-148Z" style="fill:#fff; stroke:#3a414a;"/><g id="as"><path id="at" d="M555.57,397.64v13.58h-2.1v-13.58h-5.25v-1.73h12.59v1.73h-5.25" style="fill:#3a414a; stroke-width:0px;"/><path id="au" d="M565.64,411.46c-5.49.25-3.33-7.16-3.77-11.98h1.98v7.41c0,1.91.43,3.09,2.41,3.02,4.44-.12,2.78-6.23,3.09-10.43h1.91l.06,11.73h-1.85c-.06-.62.06-1.54-.12-2.04-.68,1.36-1.73,2.22-3.7,2.28" style="fill:#3a414a; stroke-width:0px;"/><path id="av" d="M579.83,401.15c-4.81-.99-3.27,5.62-3.52,10.06h-1.98l-.06-11.73h1.85c.06.74-.06,1.79.12,2.41.37-1.67,1.42-3.02,3.58-2.53v1.79" style="fill:#3a414a; stroke-width:0px;"/><path id="aw" d="M587.36,399.24c5.49-.25,3.27,7.16,3.7,11.98h-1.98v-7.47c0-1.91-.49-3.02-2.41-2.96-4.44.12-2.72,6.3-3.02,10.43h-1.98l-.06-11.73h1.85c.06.62-.06,1.48.12,1.98.68-1.36,1.79-2.16,3.77-2.22" style="fill:#3a414a; stroke-width:0px;"/><path id="ax" d="M593.97,396.96v-1.85h1.98v1.85h-1.98ZM593.97,411.22v-11.73h1.98v11.73h-1.98" style="fill:#3a414a; stroke-width:0px;"/><path id="ay" d="M604.59,399.24c5.49-.25,3.27,7.16,3.7,11.98h-1.98v-7.47c0-1.91-.49-3.02-2.41-2.96-4.44.12-2.72,6.3-3.02,10.43h-1.98l-.06-11.73h1.85c.06.62-.06,1.48.12,1.98.68-1.36,1.79-2.16,3.77-2.22" style="fill:#3a414a; stroke-width:0px;"/><path id="az" d="M620.64,399.49c-.62,7.72,2.53,18.09-6.79,16.11-1.42-.37-2.35-1.23-2.72-2.65l1.98-.31c.93,2.9,6.17,1.98,5.49-1.73v-1.85c-.68,1.3-1.79,2.22-3.77,2.22-3.33,0-4.2-2.53-4.2-5.93s.99-5.99,4.38-6.05c1.79-.06,2.96.99,3.64,2.16.06-.62,0-1.42.12-1.98h1.85ZM615.51,409.86c2.22,0,3.09-1.98,3.09-4.51s-.86-4.63-3.09-4.63c-2.41,0-2.84,2.1-2.84,4.63s.37,4.51,2.84,4.51" style="fill:#3a414a; stroke-width:0px;"/></g><g id="ba"><path id="bb" d="M630.08,411.22v-15.31h2.04v13.64h7.72v1.67h-9.75" style="fill:#3a414a; stroke-width:0px;"/><path id="bc" d="M646.75,399.24c3.89,0,5.31,2.59,5.19,6.54h-8.33c0,2.47.86,4.14,3.27,4.2,1.6.06,2.65-.74,3.02-1.79l1.73.49c-.68,1.73-2.28,2.78-4.75,2.78-3.58,0-5.43-2.28-5.37-6.17.06-3.77,1.6-6.05,5.25-6.05ZM649.96,404.24c.37-3.7-4.69-4.75-5.99-1.73-.19.43-.37,1.05-.37,1.73h6.36" style="fill:#3a414a; stroke-width:0px;"/><path id="bd" d="M659.15,396.77c-1.91-.56-2.59.62-2.35,2.72h2.35v1.42h-2.35v10.31h-1.91v-10.31h-1.67v-1.42h1.67c-.43-3.21,1.05-5.06,4.26-4.2v1.48" style="fill:#3a414a; stroke-width:0px;"/><path id="be" d="M662.73,408.31c-.12,1.48,1.11,1.79,2.35,1.36v1.48c-2.04.62-4.32.31-4.32-2.41v-7.84h-1.36v-1.42h1.48l.56-2.65h1.3v2.65h2.16v1.42h-2.16v7.41" style="fill:#3a414a; stroke-width:0px;"/></g><path d="M6.5,333.5c0-3.31,2.69-6,6-6h228c3.31,0,6,2.69,6,6v148c0,3.31-2.69,6-6,6H12.5c-3.31,0-6-2.69-6-6v-148Z" style="fill:#fff; stroke:#3a414a;"/><g id="bf"><path id="bg" d="M68.23,397.64v13.58h-2.1v-13.58h-5.25v-1.73h12.59v1.73h-5.25" style="fill:#3a414a; stroke-width:0px;"/><path id="bh" d="M78.29,411.46c-5.49.25-3.33-7.16-3.77-11.98h1.98v7.41c0,1.91.43,3.09,2.41,3.02,4.44-.12,2.78-6.23,3.09-10.43h1.91l.06,11.73h-1.85c-.06-.62.06-1.54-.12-2.04-.68,1.36-1.73,2.22-3.7,2.28" style="fill:#3a414a; stroke-width:0px;"/><path id="bi" d="M92.49,401.15c-4.81-.99-3.27,5.62-3.52,10.06h-1.98l-.06-11.73h1.85c.06.74-.06,1.79.12,2.41.37-1.67,1.42-3.02,3.58-2.53v1.79" style="fill:#3a414a; stroke-width:0px;"/><path id="bj" d="M100.02,399.24c5.49-.25,3.27,7.16,3.7,11.98h-1.98v-7.47c0-1.91-.49-3.02-2.41-2.96-4.44.12-2.72,6.3-3.02,10.43h-1.98l-.06-11.73h1.85c.06.62-.06,1.48.12,1.98.68-1.36,1.79-2.16,3.77-2.22" style="fill:#3a414a; stroke-width:0px;"/><path id="bk" d="M106.62,396.96v-1.85h1.98v1.85h-1.98ZM106.62,411.22v-11.73h1.98v11.73h-1.98" style="fill:#3a414a; stroke-width:0px;"/><path id="bl" d="M117.24,399.24c5.49-.25,3.27,7.16,3.7,11.98h-1.98v-7.47c0-1.91-.49-3.02-2.41-2.96-4.44.12-2.72,6.3-3.02,10.43h-1.98l-.06-11.73h1.85c.06.62-.06,1.48.12,1.98.68-1.36,1.79-2.16,3.77-2.22" style="fill:#3a414a; stroke-width:0px;"/><path id="bm" d="M133.29,399.49c-.62,7.72,2.53,18.09-6.79,16.11-1.42-.37-2.35-1.23-2.72-2.65l1.98-.31c.93,2.9,6.17,1.98,5.49-1.73v-1.85c-.68,1.3-1.79,2.22-3.77,2.22-3.33,0-4.2-2.53-4.2-5.93s.99-5.99,4.38-6.05c1.79-.06,2.96.99,3.64,2.16.06-.62,0-1.42.12-1.98h1.85ZM128.17,409.86c2.22,0,3.09-1.98,3.09-4.51s-.86-4.63-3.09-4.63c-2.41,0-2.84,2.1-2.84,4.63s.37,4.51,2.84,4.51" style="fill:#3a414a; stroke-width:0px;"/></g><g id="bn"><path id="bo" d="M155.27,400.29c-.06,2.53-1.42,3.95-3.7,4.32l4.32,6.6h-2.35l-4.01-6.36h-4.75v6.36h-2.04v-15.31c5.43.19,12.65-1.3,12.53,4.38ZM144.77,403.25c3.7-.12,8.46.8,8.46-2.9s-4.94-2.59-8.46-2.78v5.68" style="fill:#3a414a; stroke-width:0px;"/><path id="bp" d="M158.35,396.96v-1.85h1.98v1.85h-1.98ZM158.35,411.22v-11.73h1.98v11.73h-1.98" style="fill:#3a414a; stroke-width:0px;"/><path id="bq" d="M172.67,399.49c-.62,7.72,2.53,18.09-6.79,16.11-1.42-.37-2.35-1.23-2.72-2.65l1.98-.31c.93,2.9,6.17,1.98,5.49-1.73v-1.85c-.68,1.3-1.79,2.22-3.77,2.22-3.33,0-4.2-2.53-4.2-5.93s.99-5.99,4.38-6.05c1.79-.06,2.96.99,3.64,2.16.06-.62,0-1.42.12-1.98h1.85ZM167.55,409.86c2.22,0,3.09-1.98,3.09-4.51s-.86-4.63-3.09-4.63c-2.41,0-2.84,2.1-2.84,4.63s.37,4.51,2.84,4.51" style="fill:#3a414a; stroke-width:0px;"/><path id="br" d="M180.64,400.78c-4.44,0-2.72,6.3-3.02,10.43h-1.98v-16.11h1.98l-.06,6.36c.74-1.3,1.73-2.22,3.77-2.22,5.49,0,3.27,7.16,3.7,11.98h-1.98v-7.47c.12-1.98-.49-3.02-2.41-2.96" style="fill:#3a414a; stroke-width:0px;"/><path id="bs" d="M190.08,408.31c-.12,1.48,1.11,1.79,2.35,1.36v1.48c-2.04.62-4.32.31-4.32-2.41v-7.84h-1.36v-1.42h1.48l.56-2.65h1.3v2.65h2.16v1.42h-2.16v7.41" style="fill:#3a414a; stroke-width:0px;"/></g><path d="M302.2,401.52l-.08,1-.23,1-.4.93-.54.87-.66.78-.77.66-.88.53-.94.38-.98.24-1,.08h-48.22v-1h48.18l.88-.07.84-.2.8-.33.73-.45.66-.56.55-.67.45-.73.33-.8.2-.84.07-.88v-31.06h1v31.12ZM302.2,327.74h-1v-143.36h1v143.36Z" style="fill:#3a414a; stroke:#3a414a; stroke-width:.05px;"/><path d="M247.5,408h-.5v-1h.5v1Z" style="fill:#3a414a; stroke-width:0px;"/><path d="M247.54,408.03h-.56v-1.06h.56v1.06ZM247.04,407.03v.94h.45v-.94h-.45Z" style="fill:#3a414a; stroke:#3a414a; stroke-width:.05px;"/><path d="M306.34,183.88h-9.27l4.63-14.26,4.64,14.26Z" style="fill:#3a414a; stroke-width:0px;"/><path d="M307.03,184.38h-10.65l5.32-16.38,5.33,16.38ZM297.76,183.38h7.9l-3.96-12.14-3.94,12.14Z" style="fill:#3a414a; stroke:#3a414a; stroke-width:.05px;"/><g id="bt"><path id="bu" d="M272.15,341.96l-1.09-3.11h-4.64l-1.09,3.11h-2.57l4.44-12.25h3.01l4.44,12.25h-2.52ZM270.52,336.92l-1.78-5.33c-.49,1.88-1.19,3.56-1.78,5.33h3.56" style="fill:#333; stroke-width:0px;"/><path id="bv" d="M281.09,330.8c-1.33-.35-2.12.25-1.88,1.78h1.88v1.63h-1.88v7.75h-2.42v-7.75h-1.38v-1.63h1.38c-.44-2.91,1.58-4,4.3-3.36v1.58" style="fill:#333; stroke-width:0px;"/><path id="bw" d="M286.67,341.81c-1.78.69-4.3.35-4.3-2.07v-5.53h-1.19v-1.63h1.33l.74-2.22h1.53v2.22h1.78v1.63h-1.78v4.89c-.05,1.14.79,1.53,1.88,1.23v1.48" style="fill:#333; stroke-width:0px;"/><path id="bx" d="M296,339.59c-.64,1.48-1.83,2.62-4.05,2.57-2.96-.1-4.4-1.83-4.4-4.94s1.48-4.84,4.44-4.84,4.1,2.22,4.15,5.33h-6.02c0,1.53.4,2.72,1.93,2.77.89,0,1.48-.35,1.68-1.09l2.27.2ZM293.78,336.18c.25-2.27-2.81-3.11-3.46-1.04-.1.3-.2.64-.2,1.04h3.65" style="fill:#333; stroke-width:0px;"/><path id="by" d="M303.41,334.55c-1.93-.59-2.96.64-2.96,2.81v4.59h-2.47l-.05-9.38h2.32c.1.64-.05,1.43.15,1.98.3-1.38,1.33-2.62,3.01-2.02v2.02" style="fill:#333; stroke-width:0px;"/></g><g id="bz"><path id="ca" d="M266.07,353.02v3.8h6.27v1.98h-6.27v4.49h-2.57v-12.25h9.04v1.98h-6.47" style="fill:#333; stroke-width:0px;"/><path id="cb" d="M274.37,352.23v-1.83h2.47v1.83h-2.47ZM274.37,363.29v-9.38h2.47v9.38h-2.47" style="fill:#333; stroke-width:0px;"/><path id="cc" d="M284.74,353.71c4.3-.05,2.86,5.58,3.11,9.58h-2.47c-.35-2.81,1.14-7.75-1.68-7.75s-1.68,4.79-1.93,7.75h-2.47l-.05-9.38h2.32c.1.59-.05,1.38.15,1.88.59-1.28,1.38-2.02,3.01-2.07" style="fill:#333; stroke-width:0px;"/><path id="cd" d="M290.12,352.23v-1.83h2.47v1.83h-2.47ZM290.12,363.29v-9.38h2.47v9.38h-2.47" style="fill:#333; stroke-width:0px;"/><path id="ce" d="M300.59,356.48c.05-1.43-3.46-1.68-3.51-.2.74,2.27,5.83.35,5.88,4.25.05,4.1-8.1,3.75-8.49.44l2.12-.35c.2.94.99,1.23,2.17,1.23,1.63.4,2.81-1.48,1.19-2.02-2.12-.69-5.04-.54-5.14-3.26-.1-3.95,7.6-3.65,7.95-.35" style="fill:#333; stroke-width:0px;"/><path id="cf" d="M309.33,355.54c-2.91,0-1.68,4.79-1.93,7.75h-2.47v-12.89h2.47l-.05,5.38c.59-1.28,1.38-2.02,3.01-2.07,4.25-.05,2.86,5.58,3.11,9.58h-2.47c-.35-2.81,1.14-7.75-1.68-7.75" style="fill:#333; stroke-width:0px;"/><path id="cg" d="M315.75,352.23v-1.83h2.47v1.83h-2.47ZM315.75,363.29v-9.38h2.47v9.38h-2.47" style="fill:#333; stroke-width:0px;"/><path id="ch" d="M326.12,353.71c4.3-.05,2.86,5.58,3.11,9.58h-2.47c-.35-2.81,1.14-7.75-1.68-7.75s-1.68,4.79-1.93,7.75h-2.47l-.05-9.38h2.32c.1.59-.05,1.38.15,1.88.59-1.28,1.38-2.02,3.01-2.07" style="fill:#333; stroke-width:0px;"/><path id="ci" d="M339.9,363c.54,4.35-5.93,5.23-8.1,2.57-.2-.3-.3-.64-.4-1.04l2.42-.3c.15.79.79,1.19,1.68,1.23,1.98,0,2.07-1.83,1.98-3.9-.54,1.09-1.48,1.73-3.01,1.73-2.62,0-3.46-2.12-3.46-4.79s.89-4.74,3.6-4.79c1.48,0,2.27.69,2.91,1.68l.1-1.48h2.32l-.05,9.09ZM335.46,361.57c1.58,0,2.02-1.33,2.02-3.11s-.44-3.06-1.98-3.06-1.93,1.43-1.98,3.11c0,1.78.44,3.06,1.93,3.06" style="fill:#333; stroke-width:0px;"/></g><path d="M444.85,401.48l.07.88.2.84.33.8.45.73.56.66.66.55.73.45.8.33.84.2.87.07h35.14v1h-35.17l-1-.08-1-.24-.93-.4-.87-.52-.78-.66-.66-.78-.54-.87-.4-.94-.23-.98-.08-1v-31.12h1v31.08ZM444.85,327.74h-1v-143.36h1v143.36Z" style="fill:#3a414a; stroke:#3a414a; stroke-width:.05px;"/><path d="M486,408h-.5v-1h.5v1Z" style="fill:#3a414a; stroke-width:0px;"/><path d="M486.02,408.03h-.56v-1.06h.56v1.06ZM485.52,407.03v.94h.46v-.94h-.46Z" style="fill:#3a414a; stroke:#3a414a; stroke-width:.05px;"/><path d="M449,183.88h-9.28l4.63-14.26,4.65,14.26Z" style="fill:#3a414a; stroke-width:0px;"/><path d="M449.67,184.38h-10.64l5.32-16.38,5.32,16.38ZM440.4,183.38h7.9l-3.95-12.14-3.95,12.14Z" style="fill:#3a414a; stroke:#3a414a; stroke-width:.05px;"/><g id="cj"><path id="ck" d="M414.79,341.96l-1.09-3.11h-4.64l-1.09,3.11h-2.57l4.44-12.25h3.01l4.44,12.25h-2.52ZM413.16,336.92l-1.78-5.33c-.49,1.88-1.19,3.56-1.78,5.33h3.56" style="fill:#333; stroke-width:0px;"/><path id="cl" d="M423.73,330.8c-1.33-.35-2.12.25-1.88,1.78h1.88v1.63h-1.88v7.75h-2.42v-7.75h-1.38v-1.63h1.38c-.44-2.91,1.58-4,4.3-3.36v1.58" style="fill:#333; stroke-width:0px;"/><path id="cm" d="M429.31,341.81c-1.78.69-4.3.35-4.3-2.07v-5.53h-1.19v-1.63h1.33l.74-2.22h1.53v2.22h1.78v1.63h-1.78v4.89c-.05,1.14.79,1.53,1.88,1.23v1.48" style="fill:#333; stroke-width:0px;"/><path id="cn" d="M438.65,339.59c-.64,1.48-1.83,2.62-4.05,2.57-2.96-.1-4.4-1.83-4.4-4.94s1.48-4.84,4.44-4.84,4.1,2.22,4.15,5.33h-6.02c0,1.53.4,2.72,1.93,2.77.89,0,1.48-.35,1.68-1.09l2.27.2ZM436.42,336.18c.25-2.27-2.81-3.11-3.46-1.04-.1.3-.2.64-.2,1.04h3.65" style="fill:#333; stroke-width:0px;"/><path id="co" d="M446.05,334.55c-1.93-.59-2.96.64-2.96,2.81v4.59h-2.47l-.05-9.38h2.32c.1.64-.05,1.43.15,1.98.3-1.38,1.33-2.62,3.01-2.02v2.02" style="fill:#333; stroke-width:0px;"/></g><g id="cp"><path id="cq" d="M408.72,353.02v3.8h6.27v1.98h-6.27v4.49h-2.57v-12.25h9.04v1.98h-6.47" style="fill:#333; stroke-width:0px;"/><path id="cr" d="M417.02,352.23v-1.83h2.47v1.83h-2.47ZM417.02,363.29v-9.38h2.47v9.38h-2.47" style="fill:#333; stroke-width:0px;"/><path id="cs" d="M427.39,353.71c4.3-.05,2.86,5.58,3.11,9.58h-2.47c-.35-2.81,1.14-7.75-1.68-7.75s-1.68,4.79-1.93,7.75h-2.47l-.05-9.38h2.32c.1.59-.05,1.38.15,1.88.59-1.28,1.38-2.02,3.01-2.07" style="fill:#333; stroke-width:0px;"/><path id="ct" d="M432.77,352.23v-1.83h2.47v1.83h-2.47ZM432.77,363.29v-9.38h2.47v9.38h-2.47" style="fill:#333; stroke-width:0px;"/><path id="cu" d="M443.24,356.48c.05-1.43-3.46-1.68-3.51-.2.74,2.27,5.83.35,5.88,4.25.05,4.1-8.1,3.75-8.49.44l2.12-.35c.2.94.99,1.23,2.17,1.23,1.63.4,2.81-1.48,1.19-2.02-2.12-.69-5.04-.54-5.14-3.26-.1-3.95,7.6-3.65,7.95-.35" style="fill:#333; stroke-width:0px;"/><path id="cv" d="M451.98,355.54c-2.91,0-1.68,4.79-1.93,7.75h-2.47v-12.89h2.47l-.05,5.38c.59-1.28,1.38-2.02,3.01-2.07,4.25-.05,2.86,5.58,3.11,9.58h-2.47c-.35-2.81,1.14-7.75-1.68-7.75" style="fill:#333; stroke-width:0px;"/><path id="cw" d="M458.4,352.23v-1.83h2.47v1.83h-2.47ZM458.4,363.29v-9.38h2.47v9.38h-2.47" style="fill:#333; stroke-width:0px;"/><path id="cx" d="M468.77,353.71c4.3-.05,2.86,5.58,3.11,9.58h-2.47c-.35-2.81,1.14-7.75-1.68-7.75s-1.68,4.79-1.93,7.75h-2.47l-.05-9.38h2.32c.1.59-.05,1.38.15,1.88.59-1.28,1.38-2.02,3.01-2.07" style="fill:#333; stroke-width:0px;"/><path id="cy" d="M482.55,363c.54,4.35-5.93,5.23-8.1,2.57-.2-.3-.3-.64-.4-1.04l2.42-.3c.15.79.79,1.19,1.68,1.23,1.98,0,2.07-1.83,1.98-3.9-.54,1.09-1.48,1.73-3.01,1.73-2.62,0-3.46-2.12-3.46-4.79s.89-4.74,3.6-4.79c1.48,0,2.27.69,2.91,1.68l.1-1.48h2.32l-.05,9.09ZM478.1,361.57c1.58,0,2.02-1.33,2.02-3.11s-.44-3.06-1.98-3.06-1.93,1.43-1.98,3.11c0,1.78.44,3.06,1.93,3.06" style="fill:#333; stroke-width:0px;"/></g><path d="M607,310.62h-1v-54.5h1v54.5ZM601.52,87.08l1,.24.93.4.87.52.78.66.66.78.53.87.38.94.24.98.08,1v77.3h-1v-77.27l-.07-.88-.2-.84-.33-.8-.45-.73-.56-.66-.67-.55-.73-.45-.8-.33-.84-.2-.88-.07h-112.96v-1h113.02l1,.09Z" style="fill:#3a414a; stroke:#3a414a; stroke-width:.05px;"/><path d="M487.5,88h-.5v-1h.5v1Z" style="fill:#3a414a; stroke-width:0px;"/><path d="M487.54,88.03h-.56v-1.06h.56v1.06ZM487.04,87.03v.94h.45v-.94h-.45Z" style="fill:#3a414a; stroke:#3a414a; stroke-width:.05px;"/><path d="M606.5,325.38l-4.63-14.26h9.27l-4.64,14.26Z" style="fill:#3a414a; stroke-width:0px;"/><path d="M606.5,327l-5.32-16.38h10.64l-5.32,16.38ZM602.55,311.62l3.95,12.14,3.95-12.14h-7.9Z" style="fill:#3a414a; stroke:#3a414a; stroke-width:.05px;"/><g id="cz"><path id="da" d="M535.91,178.82c0,2.67,1.14,4.35,3.7,4.35,1.38,0,2.62-.35,3.36-1.04v-1.68h-2.96v-1.93h5.33v4.49c-1.28,1.28-3.26,2.17-5.83,2.17-4.05,0-5.93-2.27-6.17-6.37-.35-5.48,5.48-7.65,9.88-5.38.94.49,1.43,1.28,1.83,2.32l-2.32.74c-.54-1.14-1.43-1.93-3.11-1.93-2.62.05-3.7,1.63-3.7,4.25" style="fill:#333; stroke-width:0px;"/><path id="db" d="M552.99,183.32c-.79.94-1.48,1.93-3.16,1.88-1.83-.05-2.86-.99-2.86-2.86-.05-2.96,2.72-3.11,5.73-3.01.05-1.28-.15-2.32-1.38-2.32-.89.05-1.28.44-1.38,1.33l-2.57-.1c.35-1.88,1.78-2.86,4.05-2.81s3.65,1.09,3.7,3.36l.05,4.05c-.05.69.59.89,1.23.74v1.33c-1.48.4-3.51.25-3.41-1.58ZM550.62,183.47c1.43,0,2.12-1.19,2.07-2.81-1.58,0-3.26-.15-3.21,1.48,0,.84.4,1.33,1.14,1.33" style="fill:#333; stroke-width:0px;"/><path id="dc" d="M562.97,175.42c2.62,0,3.46,2.17,3.46,4.84s-.94,4.84-3.6,4.94c-1.53.05-2.22-.84-2.91-1.68.15,1.63.1,3.41.1,5.19h-2.47l-.05-13.09h2.37c.1.49,0,1.14.15,1.53.54-1.19,1.43-1.73,2.96-1.73ZM561.93,183.51c1.63,0,1.93-1.53,1.98-3.26,0-1.88-.44-3.16-1.98-3.16-2.77,0-2.72,6.42,0,6.42" style="fill:#333; stroke-width:0px;"/></g><g id="dd"><path id="de" d="M573.29,173.93v-1.83h2.47v1.83h-2.47ZM573.29,185v-9.38h2.47v9.38h-2.47" style="fill:#333; stroke-width:0px;"/><path id="df" d="M583.66,175.42c4.3-.05,2.86,5.58,3.11,9.58h-2.47c-.35-2.81,1.14-7.75-1.68-7.75s-1.68,4.79-1.93,7.75h-2.47l-.05-9.38h2.32c.1.59-.05,1.38.15,1.88.59-1.28,1.38-2.02,3.01-2.07" style="fill:#333; stroke-width:0px;"/></g><g id="dg"><path id="dh" d="M604.15,185h-2.57l-1.93-7.65-1.98,7.65h-2.57l-2.42-9.38h2.27l1.58,7.16c.44-2.57,1.19-4.79,1.78-7.16h2.62l1.83,7.16,1.58-7.16h2.27" style="fill:#333; stroke-width:0px;"/><path id="di" d="M613.14,183.32c-.79.94-1.48,1.93-3.16,1.88-1.83-.05-2.86-.99-2.86-2.86-.05-2.96,2.72-3.11,5.73-3.01.05-1.28-.15-2.32-1.38-2.32-.89.05-1.28.44-1.38,1.33l-2.57-.1c.35-1.88,1.78-2.86,4.05-2.81s3.65,1.09,3.7,3.36l.05,4.05c-.05.69.59.89,1.23.74v1.33c-1.48.4-3.51.25-3.41-1.58ZM610.77,183.47c1.43,0,2.12-1.19,2.07-2.81-1.58,0-3.26-.15-3.21,1.48,0,.84.4,1.33,1.14,1.33" style="fill:#333; stroke-width:0px;"/><path id="dj" d="M617.69,185v-12.89h2.47v12.89h-2.47" style="fill:#333; stroke-width:0px;"/><path id="dk" d="M622.62,185v-12.89h2.47v12.89h-2.47" style="fill:#333; stroke-width:0px;"/></g><g id="dl"><path id="dm" d="M637.24,173.84c-1.33-.35-2.12.25-1.88,1.78h1.88v1.63h-1.88v7.75h-2.42v-7.75h-1.38v-1.63h1.38c-.44-2.91,1.58-4,4.3-3.36v1.58" style="fill:#333; stroke-width:0px;"/><path id="dn" d="M642.57,175.42c3.16,0,4.74,1.78,4.74,4.89s-1.73,4.89-4.79,4.89-4.69-1.78-4.69-4.89,1.68-4.89,4.74-4.89ZM642.52,183.51c1.73,0,2.22-1.38,2.22-3.21,0-1.98-.49-3.21-2.12-3.21s-2.22,1.28-2.22,3.21c0,1.78.49,3.21,2.12,3.21" style="fill:#333; stroke-width:0px;"/><path id="do" d="M652.15,185.19c-4.3.05-2.86-5.58-3.11-9.58h2.47c.35,2.81-1.14,7.41,1.63,7.75,2.96-.25,1.73-4.79,1.98-7.75h2.47l.05,9.38h-2.32c-.1-.59.05-1.38-.15-1.88-.59,1.23-1.38,2.07-3.01,2.07" style="fill:#333; stroke-width:0px;"/><path id="dp" d="M665.44,175.42c4.3-.05,2.86,5.58,3.11,9.58h-2.47c-.35-2.81,1.14-7.75-1.68-7.75s-1.68,4.79-1.93,7.75h-2.47l-.05-9.38h2.32c.1.59-.05,1.38.15,1.88.59-1.28,1.38-2.02,3.01-2.07" style="fill:#333; stroke-width:0px;"/><path id="dq" d="M673.93,175.42c1.53-.05,2.27.74,2.86,1.68l-.05-4.99h2.47l.05,12.89h-2.37c-.1-.49,0-1.14-.15-1.53-.54,1.14-1.43,1.73-3.01,1.73-2.57,0-3.36-2.22-3.41-4.89,0-2.77.94-4.79,3.6-4.89ZM674.77,183.51c1.63,0,1.98-1.48,2.02-3.26.05-1.83-.44-3.16-2.02-3.16s-1.88,1.48-1.93,3.21c0,2.12.64,3.21,1.93,3.21" style="fill:#333; stroke-width:0px;"/></g><g id="dr"><path id="ds" d="M535.91,201.74c0,3.65,1.09,6.07,2.62,8.3h-2.47c-1.48-2.22-2.57-4.59-2.57-8.3s1.09-6.07,2.57-8.3h2.47c-1.58,2.17-2.62,4.64-2.62,8.3" style="fill:#333; stroke-width:0px;"/><path id="dt" d="M539.66,194.08c5.93-.35,11.01.25,10.91,6.02-.05,3.95-2.17,6.22-5.98,6.22h-4.94v-12.25ZM542.23,204.35c3.65.35,5.78-.89,5.78-4.25s-2.22-4.35-5.78-4.05v8.3" style="fill:#333; stroke-width:0px;"/><path id="du" d="M552.5,195.27v-1.83h2.47v1.83h-2.47ZM552.5,206.33v-9.38h2.47v9.38h-2.47" style="fill:#333; stroke-width:0px;"/><path id="dv" d="M562.97,199.51c.05-1.43-3.46-1.68-3.51-.2.74,2.27,5.83.35,5.88,4.25.05,4.1-8.1,3.75-8.49.44l2.12-.35c.2.94.99,1.23,2.17,1.23,1.63.4,2.81-1.48,1.19-2.02-2.12-.69-5.04-.54-5.14-3.26-.1-3.95,7.6-3.65,7.95-.35" style="fill:#333; stroke-width:0px;"/><path id="dw" d="M571.76,206.18c-1.78.69-4.3.35-4.3-2.07v-5.53h-1.19v-1.63h1.33l.74-2.22h1.53v2.22h1.78v1.63h-1.78v4.89c-.05,1.14.79,1.53,1.88,1.23v1.48" style="fill:#333; stroke-width:0px;"/><path id="dx" d="M578.52,204.65c-.79.94-1.48,1.93-3.16,1.88-1.83-.05-2.86-.99-2.86-2.86-.05-2.96,2.72-3.11,5.73-3.01.05-1.28-.15-2.32-1.38-2.32-.89.05-1.28.44-1.38,1.33l-2.57-.1c.35-1.88,1.78-2.86,4.05-2.81s3.65,1.09,3.7,3.36l.05,4.05c-.05.69.59.89,1.23.74v1.33c-1.48.4-3.51.25-3.41-1.58ZM576.15,204.8c1.43,0,2.12-1.19,2.07-2.81-1.58,0-3.26-.15-3.21,1.48,0,.84.4,1.33,1.14,1.33" style="fill:#333; stroke-width:0px;"/><path id="dy" d="M588.5,196.75c4.3-.05,2.86,5.58,3.11,9.58h-2.47c-.35-2.81,1.14-7.75-1.68-7.75s-1.68,4.79-1.93,7.75h-2.47l-.05-9.38h2.32c.1.59-.05,1.38.15,1.88.59-1.28,1.38-2.02,3.01-2.07" style="fill:#333; stroke-width:0px;"/><path id="dz" d="M602.03,203.22c-.35,2.07-1.88,3.31-4.25,3.31-2.91,0-4.15-1.88-4.44-4.84-.59-5.43,7.6-6.77,8.59-1.78l-2.42.1c-.1-.94-.74-1.58-1.73-1.58-1.48,0-1.73,1.38-1.88,3.16-.3,3.65,3.21,4.3,3.65,1.48" style="fill:#333; stroke-width:0px;"/><path id="ea" d="M611.66,203.96c-.64,1.48-1.83,2.62-4.05,2.57-2.96-.1-4.4-1.83-4.4-4.94s1.48-4.84,4.44-4.84,4.1,2.22,4.15,5.33h-6.02c0,1.53.4,2.72,1.93,2.77.89,0,1.48-.35,1.68-1.09l2.27.2ZM609.44,200.55c.25-2.27-2.81-3.11-3.46-1.04-.1.3-.2.64-.2,1.04h3.65" style="fill:#333; stroke-width:0px;"/></g><g id="eb"><path id="ec" d="M624.1,199.51c.05-1.43-3.46-1.68-3.51-.2.74,2.27,5.83.35,5.88,4.25.05,4.1-8.1,3.75-8.49.44l2.12-.35c.2.94.99,1.23,2.17,1.23,1.63.4,2.81-1.48,1.19-2.02-2.12-.69-5.04-.54-5.14-3.26-.1-3.95,7.6-3.65,7.95-.35" style="fill:#333; stroke-width:0px;"/><path id="ed" d="M636.35,203.96c-.64,1.48-1.83,2.62-4.05,2.57-2.96-.1-4.4-1.83-4.4-4.94s1.48-4.84,4.44-4.84,4.1,2.22,4.15,5.33h-6.02c0,1.53.4,2.72,1.93,2.77.89,0,1.48-.35,1.68-1.09l2.27.2ZM634.13,200.55c.25-2.27-2.81-3.11-3.46-1.04-.1.3-.2.64-.2,1.04h3.65" style="fill:#333; stroke-width:0px;"/><path id="ee" d="M643.76,196.75c4.3-.05,2.86,5.58,3.11,9.58h-2.47c-.35-2.81,1.14-7.75-1.68-7.75s-1.68,4.79-1.93,7.75h-2.47l-.05-9.38h2.32c.1.59-.05,1.38.15,1.88.59-1.28,1.38-2.02,3.01-2.07" style="fill:#333; stroke-width:0px;"/><path id="ef" d="M654.67,199.51c.05-1.43-3.46-1.68-3.51-.2.74,2.27,5.83.35,5.88,4.25.05,4.1-8.1,3.75-8.49.44l2.12-.35c.2.94.99,1.23,2.17,1.23,1.63.4,2.81-1.48,1.19-2.02-2.12-.69-5.04-.54-5.14-3.26-.1-3.95,7.6-3.65,7.95-.35" style="fill:#333; stroke-width:0px;"/><path id="eg" d="M663.22,196.75c3.16,0,4.74,1.78,4.74,4.89s-1.73,4.89-4.79,4.89-4.69-1.78-4.69-4.89,1.68-4.89,4.74-4.89ZM663.17,204.85c1.73,0,2.22-1.38,2.22-3.21,0-1.98-.49-3.21-2.12-3.21s-2.22,1.28-2.22,3.21c0,1.78.49,3.21,2.12,3.21" style="fill:#333; stroke-width:0px;"/><path id="eh" d="M675.27,198.92c-1.93-.59-2.96.64-2.96,2.81v4.59h-2.47l-.05-9.38h2.32c.1.64-.05,1.43.15,1.98.3-1.38,1.33-2.62,3.01-2.02v2.02" style="fill:#333; stroke-width:0px;"/></g><g id="ei"><path id="ej" d="M539.36,220.85c.05-1.43-3.46-1.68-3.51-.2.74,2.27,5.83.35,5.88,4.25.05,4.1-8.1,3.75-8.49.44l2.12-.35c.2.94.99,1.23,2.17,1.23,1.63.4,2.81-1.48,1.19-2.02-2.12-.69-5.04-.54-5.14-3.26-.1-3.95,7.6-3.65,7.95-.35" style="fill:#333; stroke-width:0px;"/><path id="ek" d="M546.67,227.86c-4.3.05-2.86-5.58-3.11-9.58h2.47c.35,2.81-1.14,7.41,1.63,7.75,2.96-.25,1.73-4.79,1.98-7.75h2.47l.05,9.38h-2.32c-.1-.59.05-1.38-.15-1.88-.59,1.23-1.38,2.07-3.01,2.07" style="fill:#333; stroke-width:0px;"/><path id="el" d="M557.64,218.08c1.53-.05,2.27.74,2.86,1.68l-.05-4.99h2.47l.05,12.89h-2.37c-.1-.49,0-1.14-.15-1.53-.54,1.14-1.43,1.73-3.01,1.73-2.57,0-3.36-2.22-3.41-4.89,0-2.77.94-4.79,3.6-4.89ZM558.48,226.18c1.63,0,1.98-1.48,2.02-3.26.05-1.83-.44-3.16-2.02-3.16s-1.88,1.48-1.93,3.21c0,2.12.64,3.21,1.93,3.21" style="fill:#333; stroke-width:0px;"/><path id="em" d="M568.45,218.08c1.53-.05,2.27.74,2.86,1.68l-.05-4.99h2.47l.05,12.89h-2.37c-.1-.49,0-1.14-.15-1.53-.54,1.14-1.43,1.73-3.01,1.73-2.57,0-3.36-2.22-3.41-4.89,0-2.77.94-4.79,3.6-4.89ZM569.29,226.18c1.63,0,1.98-1.48,2.02-3.26.05-1.83-.44-3.16-2.02-3.16s-1.88,1.48-1.93,3.21c0,2.12.64,3.21,1.93,3.21" style="fill:#333; stroke-width:0px;"/><path id="en" d="M584.06,225.29c-.64,1.48-1.83,2.62-4.05,2.57-2.96-.1-4.4-1.83-4.4-4.94s1.48-4.84,4.44-4.84,4.1,2.22,4.15,5.33h-6.02c0,1.53.4,2.72,1.93,2.77.89,0,1.48-.35,1.68-1.09l2.27.2ZM581.83,221.88c.25-2.27-2.81-3.11-3.46-1.04-.1.3-.2.64-.2,1.04h3.65" style="fill:#333; stroke-width:0px;"/><path id="eo" d="M591.46,218.08c4.3-.05,2.86,5.58,3.11,9.58h-2.47c-.35-2.81,1.14-7.75-1.68-7.75s-1.68,4.79-1.93,7.75h-2.47l-.05-9.38h2.32c.1.59-.05,1.38.15,1.88.59-1.28,1.38-2.02,3.01-2.07" style="fill:#333; stroke-width:0px;"/><path id="ep" d="M596.85,227.66v-12.89h2.47v12.89h-2.47" style="fill:#333; stroke-width:0px;"/><path id="eq" d="M606.62,228.16c-.74,2.12-2.12,3.75-5.14,3.06v-1.73c1.73.4,2.62-.54,2.91-1.93l-3.7-9.28h2.57l2.37,7.31c.59-2.57,1.38-4.94,2.17-7.31h2.52" style="fill:#333; stroke-width:0px;"/></g><g id="er"><path id="es" d="M621.34,216.5c-1.33-.35-2.12.25-1.88,1.78h1.88v1.63h-1.88v7.75h-2.42v-7.75h-1.38v-1.63h1.38c-.44-2.91,1.58-4,4.3-3.36v1.58" style="fill:#333; stroke-width:0px;"/><path id="et" d="M622.48,216.6v-1.83h2.47v1.83h-2.47ZM622.48,227.66v-9.38h2.47v9.38h-2.47" style="fill:#333; stroke-width:0px;"/><path id="eu" d="M632.85,218.08c4.3-.05,2.86,5.58,3.11,9.58h-2.47c-.35-2.81,1.14-7.75-1.68-7.75s-1.68,4.79-1.93,7.75h-2.47l-.05-9.38h2.32c.1.59-.05,1.38.15,1.88.59-1.28,1.38-2.02,3.01-2.07" style="fill:#333; stroke-width:0px;"/><path id="ev" d="M641.34,218.08c1.53-.05,2.27.74,2.86,1.68l-.05-4.99h2.47l.05,12.89h-2.37c-.1-.49,0-1.14-.15-1.53-.54,1.14-1.43,1.73-3.01,1.73-2.57,0-3.36-2.22-3.41-4.89,0-2.77.94-4.79,3.6-4.89ZM642.18,226.18c1.63,0,1.98-1.48,2.02-3.26.05-1.83-.44-3.16-2.02-3.16s-1.88,1.48-1.93,3.21c0,2.12.64,3.21,1.93,3.21" style="fill:#333; stroke-width:0px;"/><path id="ew" d="M654.57,220.85c.05-1.43-3.46-1.68-3.51-.2.74,2.27,5.83.35,5.88,4.25.05,4.1-8.1,3.75-8.49.44l2.12-.35c.2.94.99,1.23,2.17,1.23,1.63.4,2.81-1.48,1.19-2.02-2.12-.69-5.04-.54-5.14-3.26-.1-3.95,7.6-3.65,7.95-.35" style="fill:#333; stroke-width:0px;"/></g><g id="ex"><path id="ey" d="M533.83,249v-12.89h2.47v12.89h-2.47" style="fill:#333; stroke-width:0px;"/><path id="ez" d="M544.1,247.32c-.79.94-1.48,1.93-3.16,1.88-1.83-.05-2.86-.99-2.86-2.86-.05-2.96,2.72-3.11,5.73-3.01.05-1.28-.15-2.32-1.38-2.32-.89.05-1.28.44-1.38,1.33l-2.57-.1c.35-1.88,1.78-2.86,4.05-2.81s3.65,1.09,3.7,3.36l.05,4.05c-.05.69.59.89,1.23.74v1.33c-1.48.4-3.51.25-3.41-1.58ZM541.73,247.47c1.43,0,2.12-1.19,2.07-2.81-1.58,0-3.26-.15-3.21,1.48,0,.84.4,1.33,1.14,1.33" style="fill:#333; stroke-width:0px;"/><path id="fa" d="M554.08,241.59c-1.93-.59-2.96.64-2.96,2.81v4.59h-2.47l-.05-9.38h2.32c.1.64-.05,1.43.15,1.98.3-1.38,1.33-2.62,3.01-2.02v2.02" style="fill:#333; stroke-width:0px;"/><path id="fb" d="M563.96,248.7c.54,4.35-5.93,5.23-8.1,2.57-.2-.3-.3-.64-.4-1.04l2.42-.3c.15.79.79,1.19,1.68,1.23,1.98,0,2.07-1.83,1.98-3.9-.54,1.09-1.48,1.73-3.01,1.73-2.62,0-3.46-2.12-3.46-4.79s.89-4.74,3.6-4.79c1.48,0,2.27.69,2.91,1.68l.1-1.48h2.32l-.05,9.09ZM559.51,247.27c1.58,0,2.02-1.33,2.02-3.11s-.44-3.06-1.98-3.06-1.93,1.43-1.98,3.11c0,1.78.44,3.06,1.93,3.06" style="fill:#333; stroke-width:0px;"/><path id="fc" d="M574.28,246.63c-.64,1.48-1.83,2.62-4.05,2.57-2.96-.1-4.4-1.83-4.4-4.94s1.48-4.84,4.44-4.84,4.1,2.22,4.15,5.33h-6.02c0,1.53.4,2.72,1.93,2.77.89,0,1.48-.35,1.68-1.09l2.27.2ZM572.06,243.22c.25-2.27-2.81-3.11-3.46-1.04-.1.3-.2.64-.2,1.04h3.65" style="fill:#333; stroke-width:0px;"/><path id="fd" d="M581.69,241.59c-1.93-.59-2.96.64-2.96,2.81v4.59h-2.47l-.05-9.38h2.32c.1.64-.05,1.43.15,1.98.3-1.38,1.33-2.62,3.01-2.02v2.02" style="fill:#333; stroke-width:0px;"/></g><g id="fe"><path id="ff" d="M591.22,239.42c1.53-.05,2.27.74,2.86,1.68l-.05-4.99h2.47l.05,12.89h-2.37c-.1-.49,0-1.14-.15-1.53-.54,1.14-1.43,1.73-3.01,1.73-2.57,0-3.36-2.22-3.41-4.89,0-2.77.94-4.79,3.6-4.89ZM592.06,247.51c1.63,0,1.98-1.48,2.02-3.26.05-1.83-.44-3.16-2.02-3.16s-1.88,1.48-1.93,3.21c0,2.12.64,3.21,1.93,3.21" style="fill:#333; stroke-width:0px;"/><path id="fg" d="M598.92,237.93v-1.83h2.47v1.83h-2.47ZM598.92,249v-9.38h2.47v9.38h-2.47" style="fill:#333; stroke-width:0px;"/><path id="fh" d="M609.39,242.18c.05-1.43-3.46-1.68-3.51-.2.74,2.27,5.83.35,5.88,4.25.05,4.1-8.1,3.75-8.49.44l2.12-.35c.2.94.99,1.23,2.17,1.23,1.63.4,2.81-1.48,1.19-2.02-2.12-.69-5.04-.54-5.14-3.26-.1-3.95,7.6-3.65,7.95-.35" style="fill:#333; stroke-width:0px;"/><path id="fi" d="M618.18,248.85c-1.78.69-4.3.35-4.3-2.07v-5.53h-1.19v-1.63h1.33l.74-2.22h1.53v2.22h1.78v1.63h-1.78v4.89c-.05,1.14.79,1.53,1.88,1.23v1.48" style="fill:#333; stroke-width:0px;"/><path id="fj" d="M624.94,247.32c-.79.94-1.48,1.93-3.16,1.88-1.83-.05-2.86-.99-2.86-2.86-.05-2.96,2.72-3.11,5.73-3.01.05-1.28-.15-2.32-1.38-2.32-.89.05-1.28.44-1.38,1.33l-2.57-.1c.35-1.88,1.78-2.86,4.05-2.81s3.65,1.09,3.7,3.36l.05,4.05c-.05.69.59.89,1.23.74v1.33c-1.48.4-3.51.25-3.41-1.58ZM622.57,247.47c1.43,0,2.12-1.19,2.07-2.81-1.58,0-3.26-.15-3.21,1.48,0,.84.4,1.33,1.14,1.33" style="fill:#333; stroke-width:0px;"/><path id="fk" d="M634.92,239.42c4.3-.05,2.86,5.58,3.11,9.58h-2.47c-.35-2.81,1.14-7.75-1.68-7.75s-1.68,4.79-1.93,7.75h-2.47l-.05-9.38h2.32c.1.59-.05,1.38.15,1.88.59-1.28,1.38-2.02,3.01-2.07" style="fill:#333; stroke-width:0px;"/><path id="fl" d="M648.45,245.88c-.35,2.07-1.88,3.31-4.25,3.31-2.91,0-4.15-1.88-4.44-4.84-.59-5.43,7.6-6.77,8.59-1.78l-2.42.1c-.1-.94-.74-1.58-1.73-1.58-1.48,0-1.73,1.38-1.88,3.16-.3,3.65,3.21,4.3,3.65,1.48" style="fill:#333; stroke-width:0px;"/><path id="fm" d="M658.08,246.63c-.64,1.48-1.83,2.62-4.05,2.57-2.96-.1-4.4-1.83-4.4-4.94s1.48-4.84,4.44-4.84,4.1,2.22,4.15,5.33h-6.02c0,1.53.4,2.72,1.93,2.77.89,0,1.48-.35,1.68-1.09l2.27.2ZM655.86,243.22c.25-2.27-2.81-3.11-3.46-1.04-.1.3-.2.64-.2,1.04h3.65" style="fill:#333; stroke-width:0px;"/><path id="fn" d="M663.86,244.4c0,3.65-1.09,6.07-2.57,8.3h-2.47c1.48-2.27,2.67-4.59,2.62-8.3,0-3.65-1.09-6.07-2.62-8.3h2.47c1.48,2.22,2.57,4.64,2.57,8.3" style="fill:#333; stroke-width:0px;"/></g><path d="M127,310.62h-1v-47.5h1v47.5ZM245.5,88h-112.98l-.88.07-.84.2-.8.33-.73.45-.66.56-.55.67-.45.73-.33.8-.2.84-.07.88v84.27h-1v-84.32l.08-1,.24-1,.4-.93.52-.87.66-.78.78-.66.87-.53.94-.38.98-.24,1-.08h113.02v.99Z" style="fill:#3a414a; stroke:#3a414a; stroke-width:.05px;"/><path d="M246,88h-.5v-1h.5v1Z" style="fill:#3a414a; stroke-width:0px;"/><path d="M246.02,88.03h-.56v-1.06h.56v1.06ZM245.52,87.03v.94h.46v-.94h-.46Z" style="fill:#3a414a; stroke:#3a414a; stroke-width:.05px;"/><path d="M126.5,325.38l-4.63-14.26h9.26l-4.63,14.26Z" style="fill:#3a414a; stroke-width:0px;"/><path d="M126.5,327l-5.32-16.38h10.64l-5.32,16.38ZM122.55,311.62l3.95,12.14,3.95-12.14h-7.9Z" style="fill:#3a414a; stroke:#3a414a; stroke-width:.05px;"/><g id="fo"><path id="fp" d="M53.29,192.01h-3.01l-2.17-9.68-2.17,9.68h-3.06l-3.16-12.25h2.62l2.17,9.83,2.22-9.83h2.86l2.12,9.83,2.17-9.83h2.57" style="fill:#333; stroke-width:0px;"/><path id="fq" d="M62.38,190.33c-.79.94-1.48,1.93-3.16,1.88-1.83-.05-2.86-.99-2.86-2.86-.05-2.96,2.72-3.11,5.73-3.01.05-1.28-.15-2.32-1.38-2.32-.89.05-1.28.44-1.38,1.33l-2.57-.1c.35-1.88,1.78-2.86,4.05-2.81s3.65,1.09,3.7,3.36l.05,4.05c-.05.69.59.89,1.23.74v1.33c-1.48.4-3.51.25-3.41-1.58ZM60.01,190.48c1.43,0,2.12-1.19,2.07-2.81-1.58,0-3.26-.15-3.21,1.48,0,.84.4,1.33,1.14,1.33" style="fill:#333; stroke-width:0px;"/><path id="fr" d="M66.92,192.01v-12.89h2.47v12.89h-2.47" style="fill:#333; stroke-width:0px;"/><path id="fs" d="M71.86,192.01v-12.89h2.47v12.89h-2.47" style="fill:#333; stroke-width:0px;"/></g><g id="ft"><path id="fu" d="M81.73,180.95v-1.83h2.47v1.83h-2.47ZM81.73,192.01v-9.38h2.47v9.38h-2.47" style="fill:#333; stroke-width:0px;"/><path id="fv" d="M92.1,182.43c4.3-.05,2.86,5.58,3.11,9.58h-2.47c-.35-2.81,1.14-7.75-1.68-7.75s-1.68,4.79-1.93,7.75h-2.47l-.05-9.38h2.32c.1.59-.05,1.38.15,1.88.59-1.28,1.38-2.02,3.01-2.07" style="fill:#333; stroke-width:0px;"/></g><g id="fw"><path id="fx" d="M107.17,180.85c-1.33-.35-2.12.25-1.88,1.78h1.88v1.63h-1.88v7.75h-2.42v-7.75h-1.38v-1.63h1.38c-.44-2.91,1.58-4,4.3-3.36v1.58" style="fill:#333; stroke-width:0px;"/><path id="fy" d="M113.73,184.6c-1.93-.59-2.96.64-2.96,2.81v4.59h-2.47l-.05-9.38h2.32c.1.64-.05,1.43.15,1.98.3-1.38,1.33-2.62,3.01-2.02v2.02" style="fill:#333; stroke-width:0px;"/><path id="fz" d="M119.41,182.43c3.16,0,4.74,1.78,4.74,4.89s-1.73,4.89-4.79,4.89-4.69-1.78-4.69-4.89,1.68-4.89,4.74-4.89ZM119.36,190.53c1.73,0,2.22-1.38,2.22-3.21,0-1.98-.49-3.21-2.12-3.21s-2.22,1.28-2.22,3.21c0,1.78.49,3.21,2.12,3.21" style="fill:#333; stroke-width:0px;"/><path id="ga" d="M131.46,182.43c4.3-.05,2.86,5.58,3.11,9.58h-2.47c-.35-2.81,1.14-7.75-1.68-7.75s-1.68,4.79-1.93,7.75h-2.47l-.05-9.38h2.32c.1.59-.05,1.38.15,1.88.59-1.28,1.38-2.02,3.01-2.07" style="fill:#333; stroke-width:0px;"/><path id="gb" d="M141.29,191.86c-1.78.69-4.3.35-4.3-2.07v-5.53h-1.19v-1.63h1.33l.74-2.22h1.53v2.22h1.78v1.63h-1.78v4.89c-.05,1.14.79,1.53,1.88,1.23v1.48" style="fill:#333; stroke-width:0px;"/></g><g id="gc"><path id="gd" d="M151.86,182.43c3.16,0,4.74,1.78,4.74,4.89s-1.73,4.89-4.79,4.89-4.69-1.78-4.69-4.89,1.68-4.89,4.74-4.89ZM151.81,190.53c1.73,0,2.22-1.38,2.22-3.21,0-1.98-.49-3.21-2.12-3.21s-2.22,1.28-2.22,3.21c0,1.78.49,3.21,2.12,3.21" style="fill:#333; stroke-width:0px;"/><path id="ge" d="M163.22,180.85c-1.33-.35-2.12.25-1.88,1.78h1.88v1.63h-1.88v7.75h-2.42v-7.75h-1.38v-1.63h1.38c-.44-2.91,1.58-4,4.3-3.36v1.58" style="fill:#333; stroke-width:0px;"/></g><g id="gf"><path id="gg" d="M174.72,184.6c-1.93-.59-2.96.64-2.96,2.81v4.59h-2.47l-.05-9.38h2.32c.1.64-.05,1.43.15,1.98.3-1.38,1.33-2.62,3.01-2.02v2.02" style="fill:#333; stroke-width:0px;"/><path id="gh" d="M180.4,182.43c3.16,0,4.74,1.78,4.74,4.89s-1.73,4.89-4.79,4.89-4.69-1.78-4.69-4.89,1.68-4.89,4.74-4.89ZM180.35,190.53c1.73,0,2.22-1.38,2.22-3.21,0-1.98-.49-3.21-2.12-3.21s-2.22,1.28-2.22,3.21c0,1.78.49,3.21,2.12,3.21" style="fill:#333; stroke-width:0px;"/><path id="gi" d="M192.45,182.43c2.57,0,3.46,2.12,3.46,4.84s-.94,4.89-3.6,4.94c-1.48.05-2.27-.74-2.86-1.73l-.1,1.53h-2.37l.05-12.89h2.47v5.14c.54-1.14,1.43-1.83,2.96-1.83ZM191.41,190.53c1.53,0,1.98-1.33,1.98-3.26s-.35-3.11-1.93-3.11-2.02,1.38-2.02,3.21.4,3.16,1.98,3.16" style="fill:#333; stroke-width:0px;"/><path id="gj" d="M202.03,182.43c3.16,0,4.74,1.78,4.74,4.89s-1.73,4.89-4.79,4.89-4.69-1.78-4.69-4.89,1.68-4.89,4.74-4.89ZM201.98,190.53c1.73,0,2.22-1.38,2.22-3.21,0-1.98-.49-3.21-2.12-3.21s-2.22,1.28-2.22,3.21c0,1.78.49,3.21,2.12,3.21" style="fill:#333; stroke-width:0px;"/><path id="gk" d="M213.09,191.86c-1.78.69-4.3.35-4.3-2.07v-5.53h-1.19v-1.63h1.33l.74-2.22h1.53v2.22h1.78v1.63h-1.78v4.89c-.05,1.14.79,1.53,1.88,1.23v1.48" style="fill:#333; stroke-width:0px;"/></g><g id="gl"><path id="gm" d="M43.02,208.75c0,3.65,1.09,6.07,2.62,8.3h-2.47c-1.48-2.22-2.57-4.59-2.57-8.3s1.09-6.07,2.57-8.3h2.47c-1.58,2.17-2.62,4.64-2.62,8.3" style="fill:#333; stroke-width:0px;"/><path id="gn" d="M46.77,201.1c5.93-.35,11.01.25,10.91,6.02-.05,3.95-2.17,6.22-5.98,6.22h-4.94v-12.25ZM49.34,211.37c3.65.35,5.78-.89,5.78-4.25s-2.22-4.35-5.78-4.05v8.3" style="fill:#333; stroke-width:0px;"/><path id="go" d="M59.61,202.28v-1.83h2.47v1.83h-2.47ZM59.61,213.34v-9.38h2.47v9.38h-2.47" style="fill:#333; stroke-width:0px;"/><path id="gp" d="M70.08,206.53c.05-1.43-3.46-1.68-3.51-.2.74,2.27,5.83.35,5.88,4.25.05,4.1-8.1,3.75-8.49.44l2.12-.35c.2.94.99,1.23,2.17,1.23,1.63.4,2.81-1.48,1.19-2.02-2.12-.69-5.04-.54-5.14-3.26-.1-3.95,7.6-3.65,7.95-.35" style="fill:#333; stroke-width:0px;"/><path id="gq" d="M78.87,213.2c-1.78.69-4.3.35-4.3-2.07v-5.53h-1.19v-1.63h1.33l.74-2.22h1.53v2.22h1.78v1.63h-1.78v4.89c-.05,1.14.79,1.53,1.88,1.23v1.48" style="fill:#333; stroke-width:0px;"/><path id="gr" d="M85.64,211.67c-.79.94-1.48,1.93-3.16,1.88-1.83-.05-2.86-.99-2.86-2.86-.05-2.96,2.72-3.11,5.73-3.01.05-1.28-.15-2.32-1.38-2.32-.89.05-1.28.44-1.38,1.33l-2.57-.1c.35-1.88,1.78-2.86,4.05-2.81s3.65,1.09,3.7,3.36l.05,4.05c-.05.69.59.89,1.23.74v1.33c-1.48.4-3.51.25-3.41-1.58ZM83.27,211.81c1.43,0,2.12-1.19,2.07-2.81-1.58,0-3.26-.15-3.21,1.48,0,.84.4,1.33,1.14,1.33" style="fill:#333; stroke-width:0px;"/><path id="gs" d="M95.61,203.76c4.3-.05,2.86,5.58,3.11,9.58h-2.47c-.35-2.81,1.14-7.75-1.68-7.75s-1.68,4.79-1.93,7.75h-2.47l-.05-9.38h2.32c.1.59-.05,1.38.15,1.88.59-1.28,1.38-2.02,3.01-2.07" style="fill:#333; stroke-width:0px;"/><path id="gt" d="M109.14,210.23c-.35,2.07-1.88,3.31-4.25,3.31-2.91,0-4.15-1.88-4.44-4.84-.59-5.43,7.6-6.77,8.59-1.78l-2.42.1c-.1-.94-.74-1.58-1.73-1.58-1.48,0-1.73,1.38-1.88,3.16-.3,3.65,3.21,4.3,3.65,1.48" style="fill:#333; stroke-width:0px;"/><path id="gu" d="M118.77,210.97c-.64,1.48-1.83,2.62-4.05,2.57-2.96-.1-4.4-1.83-4.4-4.94s1.48-4.84,4.44-4.84,4.1,2.22,4.15,5.33h-6.02c0,1.53.4,2.72,1.93,2.77.89,0,1.48-.35,1.68-1.09l2.27.2ZM116.55,207.57c.25-2.27-2.81-3.11-3.46-1.04-.1.3-.2.64-.2,1.04h3.65" style="fill:#333; stroke-width:0px;"/></g><g id="gv"><path id="gw" d="M131.22,206.53c.05-1.43-3.46-1.68-3.51-.2.74,2.27,5.83.35,5.88,4.25.05,4.1-8.1,3.75-8.49.44l2.12-.35c.2.94.99,1.23,2.17,1.23,1.63.4,2.81-1.48,1.19-2.02-2.12-.69-5.04-.54-5.14-3.26-.1-3.95,7.6-3.65,7.95-.35" style="fill:#333; stroke-width:0px;"/><path id="gx" d="M143.46,210.97c-.64,1.48-1.83,2.62-4.05,2.57-2.96-.1-4.4-1.83-4.4-4.94s1.48-4.84,4.44-4.84,4.1,2.22,4.15,5.33h-6.02c0,1.53.4,2.72,1.93,2.77.89,0,1.48-.35,1.68-1.09l2.27.2ZM141.24,207.57c.25-2.27-2.81-3.11-3.46-1.04-.1.3-.2.64-.2,1.04h3.65" style="fill:#333; stroke-width:0px;"/><path id="gy" d="M150.87,203.76c4.3-.05,2.86,5.58,3.11,9.58h-2.47c-.35-2.81,1.14-7.75-1.68-7.75s-1.68,4.79-1.93,7.75h-2.47l-.05-9.38h2.32c.1.59-.05,1.38.15,1.88.59-1.28,1.38-2.02,3.01-2.07" style="fill:#333; stroke-width:0px;"/><path id="gz" d="M161.78,206.53c.05-1.43-3.46-1.68-3.51-.2.74,2.27,5.83.35,5.88,4.25.05,4.1-8.1,3.75-8.49.44l2.12-.35c.2.94.99,1.23,2.17,1.23,1.63.4,2.81-1.48,1.19-2.02-2.12-.69-5.04-.54-5.14-3.26-.1-3.95,7.6-3.65,7.95-.35" style="fill:#333; stroke-width:0px;"/><path id="ha" d="M170.33,203.76c3.16,0,4.74,1.78,4.74,4.89s-1.73,4.89-4.79,4.89-4.69-1.78-4.69-4.89,1.68-4.89,4.74-4.89ZM170.28,211.86c1.73,0,2.22-1.38,2.22-3.21,0-1.98-.49-3.21-2.12-3.21s-2.22,1.28-2.22,3.21c0,1.78.49,3.21,2.12,3.21" style="fill:#333; stroke-width:0px;"/><path id="hb" d="M182.38,205.94c-1.93-.59-2.96.64-2.96,2.81v4.59h-2.47l-.05-9.38h2.32c.1.64-.05,1.43.15,1.98.3-1.38,1.33-2.62,3.01-2.02v2.02" style="fill:#333; stroke-width:0px;"/></g><g id="hc"><path id="hd" d="M46.48,227.86c.05-1.43-3.46-1.68-3.51-.2.74,2.27,5.83.35,5.88,4.25.05,4.1-8.1,3.75-8.49.44l2.12-.35c.2.94.99,1.23,2.17,1.23,1.63.4,2.81-1.48,1.19-2.02-2.12-.69-5.04-.54-5.14-3.26-.1-3.95,7.6-3.65,7.95-.35" style="fill:#333; stroke-width:0px;"/><path id="he" d="M53.78,234.88c-4.3.05-2.86-5.58-3.11-9.58h2.47c.35,2.81-1.14,7.41,1.63,7.75,2.96-.25,1.73-4.79,1.98-7.75h2.47l.05,9.38h-2.32c-.1-.59.05-1.38-.15-1.88-.59,1.23-1.38,2.07-3.01,2.07" style="fill:#333; stroke-width:0px;"/><path id="hf" d="M64.75,225.1c1.53-.05,2.27.74,2.86,1.68l-.05-4.99h2.47l.05,12.89h-2.37c-.1-.49,0-1.14-.15-1.53-.54,1.14-1.43,1.73-3.01,1.73-2.57,0-3.36-2.22-3.41-4.89,0-2.77.94-4.79,3.6-4.89ZM65.59,233.2c1.63,0,1.98-1.48,2.02-3.26.05-1.83-.44-3.16-2.02-3.16s-1.88,1.48-1.93,3.21c0,2.12.64,3.21,1.93,3.21" style="fill:#333; stroke-width:0px;"/><path id="hg" d="M75.56,225.1c1.53-.05,2.27.74,2.86,1.68l-.05-4.99h2.47l.05,12.89h-2.37c-.1-.49,0-1.14-.15-1.53-.54,1.14-1.43,1.73-3.01,1.73-2.57,0-3.36-2.22-3.41-4.89,0-2.77.94-4.79,3.6-4.89ZM76.4,233.2c1.63,0,1.98-1.48,2.02-3.26.05-1.83-.44-3.16-2.02-3.16s-1.88,1.48-1.93,3.21c0,2.12.64,3.21,1.93,3.21" style="fill:#333; stroke-width:0px;"/><path id="hh" d="M91.17,232.31c-.64,1.48-1.83,2.62-4.05,2.57-2.96-.1-4.4-1.83-4.4-4.94s1.48-4.84,4.44-4.84,4.1,2.22,4.15,5.33h-6.02c0,1.53.4,2.72,1.93,2.77.89,0,1.48-.35,1.68-1.09l2.27.2ZM88.94,228.9c.25-2.27-2.81-3.11-3.46-1.04-.1.3-.2.64-.2,1.04h3.65" style="fill:#333; stroke-width:0px;"/><path id="hi" d="M98.57,225.1c4.3-.05,2.86,5.58,3.11,9.58h-2.47c-.35-2.81,1.14-7.75-1.68-7.75s-1.68,4.79-1.93,7.75h-2.47l-.05-9.38h2.32c.1.59-.05,1.38.15,1.88.59-1.28,1.38-2.02,3.01-2.07" style="fill:#333; stroke-width:0px;"/><path id="hj" d="M103.96,234.68v-12.89h2.47v12.89h-2.47" style="fill:#333; stroke-width:0px;"/><path id="hk" d="M113.73,235.17c-.74,2.12-2.12,3.75-5.14,3.06v-1.73c1.73.4,2.62-.54,2.91-1.93l-3.7-9.28h2.57l2.37,7.31c.59-2.57,1.38-4.94,2.17-7.31h2.52" style="fill:#333; stroke-width:0px;"/></g><g id="hl"><path id="hm" d="M128.45,223.52c-1.33-.35-2.12.25-1.88,1.78h1.88v1.63h-1.88v7.75h-2.42v-7.75h-1.38v-1.63h1.38c-.44-2.91,1.58-4,4.3-3.36v1.58" style="fill:#333; stroke-width:0px;"/><path id="hn" d="M129.59,223.62v-1.83h2.47v1.83h-2.47ZM129.59,234.68v-9.38h2.47v9.38h-2.47" style="fill:#333; stroke-width:0px;"/><path id="ho" d="M139.96,225.1c4.3-.05,2.86,5.58,3.11,9.58h-2.47c-.35-2.81,1.14-7.75-1.68-7.75s-1.68,4.79-1.93,7.75h-2.47l-.05-9.38h2.32c.1.59-.05,1.38.15,1.88.59-1.28,1.38-2.02,3.01-2.07" style="fill:#333; stroke-width:0px;"/><path id="hp" d="M148.45,225.1c1.53-.05,2.27.74,2.86,1.68l-.05-4.99h2.47l.05,12.89h-2.37c-.1-.49,0-1.14-.15-1.53-.54,1.14-1.43,1.73-3.01,1.73-2.57,0-3.36-2.22-3.41-4.89,0-2.77.94-4.79,3.6-4.89ZM149.29,233.2c1.63,0,1.98-1.48,2.02-3.26.05-1.83-.44-3.16-2.02-3.16s-1.88,1.48-1.93,3.21c0,2.12.64,3.21,1.93,3.21" style="fill:#333; stroke-width:0px;"/><path id="hq" d="M161.69,227.86c.05-1.43-3.46-1.68-3.51-.2.74,2.27,5.83.35,5.88,4.25.05,4.1-8.1,3.75-8.49.44l2.12-.35c.2.94.99,1.23,2.17,1.23,1.63.4,2.81-1.48,1.19-2.02-2.12-.69-5.04-.54-5.14-3.26-.1-3.95,7.6-3.65,7.95-.35" style="fill:#333; stroke-width:0px;"/></g><g id="hr"><path id="hs" d="M46.48,249.2c.05-1.43-3.46-1.68-3.51-.2.74,2.27,5.83.35,5.88,4.25.05,4.1-8.1,3.75-8.49.44l2.12-.35c.2.94.99,1.23,2.17,1.23,1.63.4,2.81-1.48,1.19-2.02-2.12-.69-5.04-.54-5.14-3.26-.1-3.95,7.6-3.65,7.95-.35" style="fill:#333; stroke-width:0px;"/><path id="ht" d="M55.22,248.26c-2.91,0-1.68,4.79-1.93,7.75h-2.47v-12.89h2.47l-.05,5.38c.59-1.28,1.38-2.02,3.01-2.07,4.25-.05,2.86,5.58,3.11,9.58h-2.47c-.35-2.81,1.14-7.75-1.68-7.75" style="fill:#333; stroke-width:0px;"/><path id="hu" d="M65.83,246.43c3.16,0,4.74,1.78,4.74,4.89s-1.73,4.89-4.79,4.89-4.69-1.78-4.69-4.89,1.68-4.89,4.74-4.89ZM65.78,254.53c1.73,0,2.22-1.38,2.22-3.21,0-1.98-.49-3.21-2.12-3.21s-2.22,1.28-2.22,3.21c0,1.78.49,3.21,2.12,3.21" style="fill:#333; stroke-width:0px;"/><path id="hv" d="M77.88,248.6c-1.93-.59-2.96.64-2.96,2.81v4.59h-2.47l-.05-9.38h2.32c.1.64-.05,1.43.15,1.98.3-1.38,1.33-2.62,3.01-2.02v2.02" style="fill:#333; stroke-width:0px;"/><path id="hw" d="M83.81,255.86c-1.78.69-4.3.35-4.3-2.07v-5.53h-1.19v-1.63h1.33l.74-2.22h1.53v2.22h1.78v1.63h-1.78v4.89c-.05,1.14.79,1.53,1.88,1.23v1.48" style="fill:#333; stroke-width:0px;"/><path id="hx" d="M93.14,253.64c-.64,1.48-1.83,2.62-4.05,2.57-2.96-.1-4.4-1.83-4.4-4.94s1.48-4.84,4.44-4.84,4.1,2.22,4.15,5.33h-6.02c0,1.53.4,2.72,1.93,2.77.89,0,1.48-.35,1.68-1.09l2.27.2ZM90.92,250.23c.25-2.27-2.81-3.11-3.46-1.04-.1.3-.2.64-.2,1.04h3.65" style="fill:#333; stroke-width:0px;"/><path id="hy" d="M100.55,248.6c-1.93-.59-2.96.64-2.96,2.81v4.59h-2.47l-.05-9.38h2.32c.1.64-.05,1.43.15,1.98.3-1.38,1.33-2.62,3.01-2.02v2.02" style="fill:#333; stroke-width:0px;"/></g><g id="hz"><path id="ia" d="M110.08,246.43c1.53-.05,2.27.74,2.86,1.68l-.05-4.99h2.47l.05,12.89h-2.37c-.1-.49,0-1.14-.15-1.53-.54,1.14-1.43,1.73-3.01,1.73-2.57,0-3.36-2.22-3.41-4.89,0-2.77.94-4.79,3.6-4.89ZM110.92,254.53c1.63,0,1.98-1.48,2.02-3.26.05-1.83-.44-3.16-2.02-3.16s-1.88,1.48-1.93,3.21c0,2.12.64,3.21,1.93,3.21" style="fill:#333; stroke-width:0px;"/><path id="ib" d="M117.78,244.95v-1.83h2.47v1.83h-2.47ZM117.78,256.01v-9.38h2.47v9.38h-2.47" style="fill:#333; stroke-width:0px;"/><path id="ic" d="M128.25,249.2c.05-1.43-3.46-1.68-3.51-.2.74,2.27,5.83.35,5.88,4.25.05,4.1-8.1,3.75-8.49.44l2.12-.35c.2.94.99,1.23,2.17,1.23,1.63.4,2.81-1.48,1.19-2.02-2.12-.69-5.04-.54-5.14-3.26-.1-3.95,7.6-3.65,7.95-.35" style="fill:#333; stroke-width:0px;"/><path id="id" d="M137.04,255.86c-1.78.69-4.3.35-4.3-2.07v-5.53h-1.19v-1.63h1.33l.74-2.22h1.53v2.22h1.78v1.63h-1.78v4.89c-.05,1.14.79,1.53,1.88,1.23v1.48" style="fill:#333; stroke-width:0px;"/><path id="ie" d="M143.81,254.33c-.79.94-1.48,1.93-3.16,1.88-1.83-.05-2.86-.99-2.86-2.86-.05-2.96,2.72-3.11,5.73-3.01.05-1.28-.15-2.32-1.38-2.32-.89.05-1.28.44-1.38,1.33l-2.57-.1c.35-1.88,1.78-2.86,4.05-2.81s3.65,1.09,3.7,3.36l.05,4.05c-.05.69.59.89,1.23.74v1.33c-1.48.4-3.51.25-3.41-1.58ZM141.44,254.48c1.43,0,2.12-1.19,2.07-2.81-1.58,0-3.26-.15-3.21,1.48,0,.84.4,1.33,1.14,1.33" style="fill:#333; stroke-width:0px;"/><path id="if" d="M153.78,246.43c4.3-.05,2.86,5.58,3.11,9.58h-2.47c-.35-2.81,1.14-7.75-1.68-7.75s-1.68,4.79-1.93,7.75h-2.47l-.05-9.38h2.32c.1.59-.05,1.38.15,1.88.59-1.28,1.38-2.02,3.01-2.07" style="fill:#333; stroke-width:0px;"/><path id="ig" d="M167.31,252.9c-.35,2.07-1.88,3.31-4.25,3.31-2.91,0-4.15-1.88-4.44-4.84-.59-5.43,7.6-6.77,8.59-1.78l-2.42.1c-.1-.94-.74-1.58-1.73-1.58-1.48,0-1.73,1.38-1.88,3.16-.3,3.65,3.21,4.3,3.65,1.48" style="fill:#333; stroke-width:0px;"/><path id="ih" d="M176.94,253.64c-.64,1.48-1.83,2.62-4.05,2.57-2.96-.1-4.4-1.83-4.4-4.94s1.48-4.84,4.44-4.84,4.1,2.22,4.15,5.33h-6.02c0,1.53.4,2.72,1.93,2.77.89,0,1.48-.35,1.68-1.09l2.27.2ZM174.72,250.23c.25-2.27-2.81-3.11-3.46-1.04-.1.3-.2.64-.2,1.04h3.65" style="fill:#333; stroke-width:0px;"/><path id="ii" d="M182.72,251.42c0,3.65-1.09,6.07-2.57,8.3h-2.47c1.48-2.27,2.67-4.59,2.62-8.3,0-3.65-1.09-6.07-2.62-8.3h2.47c1.48,2.22,2.57,4.64,2.57,8.3" style="fill:#333; stroke-width:0px;"/></g></svg>